<?xml version="1.0" encoding="UTF-8" standalone="no"?>
<!-- Created with Inkscape (http://www.inkscape.org/) -->

<svg
   width="178.19327mm"
   height="79.401321mm"
   viewBox="0 0 178.19327 79.401321"
   version="1.1"
   id="svg1"
   inkscape:version="1.3.1 (91b66b0783, 2023-11-16, custom)"
   sodipodi:docname="hexagonal.svg"
   xmlns:inkscape="http://www.inkscape.org/namespaces/inkscape"
   xmlns:sodipodi="http://sodipodi.sourceforge.net/DTD/sodipodi-0.dtd"
   xmlns="http://www.w3.org/2000/svg"
   xmlns:svg="http://www.w3.org/2000/svg">
  <sodipodi:namedview
     id="namedview1"
     pagecolor="#505050"
     bordercolor="#eeeeee"
     borderopacity="1"
     inkscape:showpageshadow="0"
     inkscape:pageopacity="0"
     inkscape:pagecheckerboard="0"
     inkscape:deskcolor="#d1d1d1"
     inkscape:document-units="mm"
     inkscape:zoom="0.56661142"
     inkscape:cx="601.82338"
     inkscape:cy="-38.827315"
     inkscape:window-width="1908"
     inkscape:window-height="1066"
     inkscape:window-x="1924"
     inkscape:window-y="5"
     inkscape:window-maximized="1"
     inkscape:current-layer="layer1" />
  <defs
     id="defs1">
    <marker
       style="overflow:visible"
       id="ConcaveTriangle"
       refX="0"
       refY="0"
       orient="auto-start-reverse"
       inkscape:stockid="Concave triangle arrow"
       markerWidth="1"
       markerHeight="1"
       viewBox="0 0 1 1"
       inkscape:isstock="true"
       inkscape:collect="always"
       preserveAspectRatio="xMidYMid">
      <path
         transform="scale(0.7)"
         d="M -2,-4 9,0 -2,4 c 2,-2.33 2,-5.66 0,-8 z"
         style="fill:context-stroke;fill-rule:evenodd;stroke:none"
         id="path7" />
    </marker>
    <marker
       style="overflow:visible"
       id="ConcaveTriangle-8"
       refX="0"
       refY="0"
       orient="auto-start-reverse"
       inkscape:stockid="Concave triangle arrow"
       markerWidth="1"
       markerHeight="1"
       viewBox="0 0 1 1"
       inkscape:isstock="true"
       inkscape:collect="always"
       preserveAspectRatio="xMidYMid">
      <path
         transform="scale(0.7)"
         d="M -2,-4 9,0 -2,4 c 2,-2.33 2,-5.66 0,-8 z"
         style="fill:context-stroke;fill-rule:evenodd;stroke:none"
         id="path7-6" />
    </marker>
  </defs>
  <g
     inkscape:label="Layer 1"
     inkscape:groupmode="layer"
     id="layer1"
     transform="translate(-9.913956,-5.8874951)">
    <path
       sodipodi:type="star"
       style="fill:none;fill-rule:evenodd;stroke:#2e3440;stroke-width:0.998083;stroke-linecap:round;stroke-miterlimit:2;stroke-dasharray:none;paint-order:stroke fill markers"
       id="path1"
       inkscape:flatsided="true"
       sodipodi:sides="6"
       sodipodi:cx="43.68293"
       sodipodi:cy="38.886662"
       sodipodi:r1="45.29705"
       sodipodi:r2="19.077545"
       sodipodi:arg1="0.71377858"
       sodipodi:arg2="1.2373774"
       inkscape:rounded="0"
       inkscape:randomized="0"
       inkscape:transform-center-x="1.2959897"
       inkscape:transform-center-y="-0.22206145"
       transform="matrix(0.38076418,-0.07338045,0.07338045,0.38076418,22.84635,48.927493)" />
    <path
       sodipodi:type="star"
       style="fill:#b48ead;fill-rule:evenodd;stroke:#2e3440;stroke-width:0.964999;stroke-linecap:round;stroke-miterlimit:2;stroke-dasharray:1.05833, 0.264583;stroke-dashoffset:0;paint-order:stroke fill markers"
       id="path6"
       inkscape:flatsided="true"
       sodipodi:sides="6"
       sodipodi:cx="147.03957"
       sodipodi:cy="25.688721"
       sodipodi:r1="36.427765"
       sodipodi:r2="31.547371"
       sodipodi:arg1="0.86695044"
       sodipodi:arg2="1.3905492"
       inkscape:rounded="0"
       inkscape:randomized="0"
       inkscape:transform-center-x="-3.5865405e-06"
       transform="matrix(0.49179729,0.09018331,-0.09018331,0.49179729,72.279674,27.565673)" />
    <path
       sodipodi:type="star"
       style="fill:none;fill-rule:evenodd;stroke:#2e3440;stroke-width:0.998083;stroke-linecap:round;stroke-miterlimit:2;stroke-dasharray:none;paint-order:stroke fill markers"
       id="path1-8"
       inkscape:flatsided="true"
       sodipodi:sides="6"
       sodipodi:cx="43.68293"
       sodipodi:cy="38.886662"
       sodipodi:r1="45.29705"
       sodipodi:r2="19.077545"
       sodipodi:arg1="0.71377858"
       sodipodi:arg2="1.2373774"
       inkscape:rounded="0"
       inkscape:randomized="0"
       inkscape:transform-center-x="1.2959891"
       inkscape:transform-center-y="-0.22206198"
       transform="matrix(0.38076418,-0.07338045,0.07338045,0.38076418,53.269589,48.921256)" />
    <path
       sodipodi:type="star"
       style="fill:none;fill-rule:evenodd;stroke:#2e3440;stroke-width:0.998083;stroke-linecap:round;stroke-miterlimit:2;stroke-dasharray:none;paint-order:stroke fill markers"
       id="path1-6"
       inkscape:flatsided="true"
       sodipodi:sides="6"
       sodipodi:cx="43.68293"
       sodipodi:cy="38.886662"
       sodipodi:r1="45.29705"
       sodipodi:r2="19.077545"
       sodipodi:arg1="0.71377858"
       sodipodi:arg2="1.2373774"
       inkscape:rounded="0"
       inkscape:randomized="0"
       inkscape:transform-center-x="1.2959892"
       inkscape:transform-center-y="-0.22206161"
       transform="matrix(0.38076418,-0.07338045,0.07338045,0.38076418,38.052569,22.577077)" />
    <path
       sodipodi:type="star"
       style="fill:none;fill-rule:evenodd;stroke:#2e3440;stroke-width:0.998083;stroke-linecap:round;stroke-miterlimit:2;stroke-dasharray:none;paint-order:stroke fill markers"
       id="path1-61"
       inkscape:flatsided="true"
       sodipodi:sides="6"
       sodipodi:cx="43.68293"
       sodipodi:cy="38.886662"
       sodipodi:r1="45.29705"
       sodipodi:r2="19.077545"
       sodipodi:arg1="0.71377858"
       sodipodi:arg2="1.2373774"
       inkscape:rounded="0"
       inkscape:randomized="0"
       inkscape:transform-center-x="1.295989"
       inkscape:transform-center-y="-0.22206215"
       transform="matrix(0.38076418,-0.07338045,0.07338045,0.38076418,68.475807,22.57084)" />
    <path
       sodipodi:type="star"
       style="fill:none;fill-rule:evenodd;stroke:#2e3440;stroke-width:0.998083;stroke-linecap:round;stroke-miterlimit:2;stroke-dasharray:none;paint-order:stroke fill markers"
       id="path1-61-8"
       inkscape:flatsided="true"
       sodipodi:sides="6"
       sodipodi:cx="43.68293"
       sodipodi:cy="38.886662"
       sodipodi:r1="45.29705"
       sodipodi:r2="19.077545"
       sodipodi:arg1="0.71377858"
       sodipodi:arg2="1.2373774"
       inkscape:rounded="0"
       inkscape:randomized="0"
       inkscape:transform-center-x="1.2959898"
       inkscape:transform-center-y="-0.22206208"
       transform="matrix(0.38076418,-0.07338045,0.07338045,0.38076418,7.6293299,22.583313)" />
    <circle
       style="fill:#5e81ac;fill-rule:evenodd;stroke:#2e3440;stroke-width:0.559104;stroke-linecap:round;stroke-miterlimit:2;stroke-dasharray:none;paint-order:stroke fill markers"
       id="path4"
       cx="57.531586"
       cy="51.521935"
       r="1.6582681" />
    <circle
       style="fill:#5e81ac;fill-rule:evenodd;stroke:#2e3440;stroke-width:0.559104;stroke-linecap:round;stroke-miterlimit:2;stroke-dasharray:none;paint-order:stroke fill markers"
       id="path4-0"
       cx="72.756004"
       cy="43.336868"
       r="1.6582681" />
    <circle
       style="fill:#5e81ac;fill-rule:evenodd;stroke:#2e3440;stroke-width:0.559104;stroke-linecap:round;stroke-miterlimit:2;stroke-dasharray:none;paint-order:stroke fill markers"
       id="path4-4"
       cx="87.962227"
       cy="51.180534"
       r="1.6582681" />
    <circle
       style="fill:#5e81ac;fill-rule:evenodd;stroke:#2e3440;stroke-width:0.559104;stroke-linecap:round;stroke-miterlimit:2;stroke-dasharray:none;paint-order:stroke fill markers"
       id="path4-5"
       cx="42.132027"
       cy="24.8675"
       r="1.6582681" />
    <circle
       style="fill:#5e81ac;fill-rule:evenodd;stroke:#2e3440;stroke-width:0.559104;stroke-linecap:round;stroke-miterlimit:2;stroke-dasharray:none;paint-order:stroke fill markers"
       id="path4-1"
       cx="42.357437"
       cy="43.011032"
       r="1.6582681" />
    <circle
       style="fill:#5e81ac;fill-rule:evenodd;stroke:#2e3440;stroke-width:0.559104;stroke-linecap:round;stroke-miterlimit:2;stroke-dasharray:none;paint-order:stroke fill markers"
       id="path4-7"
       cx="27.181255"
       cy="51.748833"
       r="1.6582681" />
    <circle
       style="fill:#5e81ac;fill-rule:evenodd;stroke:#2e3440;stroke-width:0.559104;stroke-linecap:round;stroke-miterlimit:2;stroke-dasharray:none;paint-order:stroke fill markers"
       id="path4-59"
       cx="27.181255"
       cy="69.377739"
       r="1.6582681" />
    <circle
       style="fill:#5e81ac;fill-rule:evenodd;stroke:#2e3440;stroke-width:0.559104;stroke-linecap:round;stroke-miterlimit:2;stroke-dasharray:none;paint-order:stroke fill markers"
       id="path4-8"
       cx="42.357437"
       cy="78.11554"
       r="1.6582681" />
    <circle
       style="fill:#5e81ac;fill-rule:evenodd;stroke:#2e3440;stroke-width:0.559104;stroke-linecap:round;stroke-miterlimit:2;stroke-dasharray:none;paint-order:stroke fill markers"
       id="path4-89"
       cx="57.533627"
       cy="69.377739"
       r="1.6582681" />
    <circle
       style="fill:#5e81ac;fill-rule:evenodd;stroke:#2e3440;stroke-width:0.559104;stroke-linecap:round;stroke-miterlimit:2;stroke-dasharray:none;paint-order:stroke fill markers"
       id="path4-3"
       cx="72.709816"
       cy="78.11554"
       r="1.6582681" />
    <circle
       style="fill:#5e81ac;fill-rule:evenodd;stroke:#2e3440;stroke-width:0.559104;stroke-linecap:round;stroke-miterlimit:2;stroke-dasharray:none;paint-order:stroke fill markers"
       id="path4-04"
       cx="87.885994"
       cy="69.377739"
       r="1.6582681" />
    <circle
       style="fill:#5e81ac;fill-rule:evenodd;stroke:#2e3440;stroke-width:0.559104;stroke-linecap:round;stroke-miterlimit:2;stroke-dasharray:none;paint-order:stroke fill markers"
       id="path4-9"
       cx="103.06218"
       cy="43.011032"
       r="1.6582681" />
    <circle
       style="fill:#5e81ac;fill-rule:evenodd;stroke:#2e3440;stroke-width:0.559104;stroke-linecap:round;stroke-miterlimit:2;stroke-dasharray:none;paint-order:stroke fill markers"
       id="path4-43"
       cx="103.36877"
       cy="25.688721"
       r="1.6582681" />
    <circle
       style="fill:#5e81ac;fill-rule:evenodd;stroke:#2e3440;stroke-width:0.559104;stroke-linecap:round;stroke-miterlimit:2;stroke-dasharray:none;paint-order:stroke fill markers"
       id="path4-92"
       cx="88.039284"
       cy="16.797619"
       r="1.6582681" />
    <circle
       style="fill:#5e81ac;fill-rule:evenodd;stroke:#2e3440;stroke-width:0.559104;stroke-linecap:round;stroke-miterlimit:2;stroke-dasharray:none;paint-order:stroke fill markers"
       id="path4-594"
       cx="57.533627"
       cy="16.644325"
       r="1.6582681" />
    <circle
       style="fill:#bf616a;fill-rule:evenodd;stroke:#2e3440;stroke-width:0.559104;stroke-linecap:round;stroke-miterlimit:2;stroke-dasharray:none;paint-order:stroke fill markers"
       id="path4-594-6"
       cx="27.519764"
       cy="34.467194"
       r="1.6582681" />
    <circle
       style="fill:#bf616a;fill-rule:evenodd;stroke:#2e3440;stroke-width:0.559104;stroke-linecap:round;stroke-miterlimit:2;stroke-dasharray:none;paint-order:stroke fill markers"
       id="path4-594-6-0"
       cx="42.419067"
       cy="60.67532"
       r="1.6582681" />
    <circle
       style="fill:#bf616a;fill-rule:evenodd;stroke:#2e3440;stroke-width:0.559104;stroke-linecap:round;stroke-miterlimit:2;stroke-dasharray:none;paint-order:stroke fill markers"
       id="path4-594-6-1"
       cx="72.581566"
       cy="60.146152"
       r="1.6582681" />
    <circle
       style="fill:#bf616a;fill-rule:evenodd;stroke:#2e3440;stroke-width:0.559104;stroke-linecap:round;stroke-miterlimit:2;stroke-dasharray:none;paint-order:stroke fill markers"
       id="path4-594-6-1-4"
       cx="89.5149"
       cy="33.952404"
       r="1.6582681" />
    <circle
       style="fill:#bf616a;fill-rule:evenodd;stroke:#2e3440;stroke-width:0.559104;stroke-linecap:round;stroke-miterlimit:2;stroke-dasharray:none;paint-order:stroke fill markers"
       id="path4-594-6-1-1"
       cx="57.50032"
       cy="35.010738"
       r="1.6582681" />
    <circle
       style="fill:#bf616a;fill-rule:evenodd;stroke:#2e3440;stroke-width:0.559104;stroke-linecap:round;stroke-miterlimit:2;stroke-dasharray:none;paint-order:stroke fill markers"
       id="path4-594-6-1-3"
       cx="142.69615"
       cy="53.266987"
       r="1.6582681" />
    <circle
       style="fill:#bf616a;fill-rule:evenodd;stroke:#2e3440;stroke-width:0.559104;stroke-linecap:round;stroke-miterlimit:2;stroke-dasharray:none;paint-order:stroke fill markers"
       id="path4-594-6-1-5"
       cx="169.68365"
       cy="37.921154"
       r="1.6582681" />
    <circle
       style="fill:#bf616a;fill-rule:evenodd;stroke:#2e3440;stroke-width:0.559104;stroke-linecap:round;stroke-miterlimit:2;stroke-dasharray:none;paint-order:stroke fill markers"
       id="path4-594-6-1-0"
       cx="142.16699"
       cy="22.575319"
       r="1.6582681" />
    <circle
       style="fill:#bf616a;fill-rule:evenodd;stroke:#2e3440;stroke-width:0.559104;stroke-linecap:round;stroke-miterlimit:2;stroke-dasharray:none;paint-order:stroke fill markers"
       id="path4-594-6-1-2"
       cx="169.41907"
       cy="70.464905"
       r="1.6582681" />
    <circle
       style="fill:#5e81ac;fill-rule:evenodd;stroke:#2e3440;stroke-width:0.559104;stroke-linecap:round;stroke-miterlimit:2;stroke-dasharray:none;paint-order:stroke fill markers"
       id="path4-2"
       cx="27.181255"
       cy="16.797619"
       r="1.6582681" />
    <circle
       style="fill:#5e81ac;fill-rule:evenodd;stroke:#2e3440;stroke-width:0.559104;stroke-linecap:round;stroke-miterlimit:2;stroke-dasharray:none;paint-order:stroke fill markers"
       id="path4-54"
       cx="11.851776"
       cy="25.382133"
       r="1.6582681" />
    <circle
       style="fill:#5e81ac;fill-rule:evenodd;stroke:#2e3440;stroke-width:0.559104;stroke-linecap:round;stroke-miterlimit:2;stroke-dasharray:none;paint-order:stroke fill markers"
       id="path4-893"
       cx="12.00507"
       cy="43.011032"
       r="1.6582681" />
    <circle
       style="fill:#5e81ac;fill-rule:evenodd;stroke:#2e3440;stroke-width:0.559104;stroke-linecap:round;stroke-miterlimit:2;stroke-dasharray:none;paint-order:stroke fill markers"
       id="path4-6"
       cx="72.756004"
       cy="25.263657"
       r="1.6582681" />
    <path
       style="fill:none;stroke:#000000;stroke-width:0.264583px;stroke-linecap:butt;stroke-linejoin:miter;stroke-dasharray:1.05833, 0.264583;stroke-dashoffset:0;stroke-opacity:1"
       d="m 27.519765,34.467191 30.019219,0.269457 15.217021,25.600199"
       id="path5" />
    <path
       style="fill:#ebcb8b;stroke:#ebcb8b;stroke-width:0.385289;stroke-linecap:butt;stroke-linejoin:miter;stroke-dasharray:none;stroke-opacity:1;marker-end:url(#ConcaveTriangle)"
       d="m 42.332765,60.528669 27.971716,-0.19507"
       id="path2"
       sodipodi:nodetypes="cc" />
    <path
       style="fill:#ebcb8b;stroke:#ebcb8b;stroke-width:0.385289;stroke-linecap:butt;stroke-linejoin:miter;stroke-dasharray:none;stroke-opacity:1;marker-end:url(#ConcaveTriangle)"
       d="M 42.332764,60.528669 28.71921,36.577456"
       id="path3"
       sodipodi:nodetypes="cc" />
    <path
       sodipodi:type="star"
       style="fill:none;fill-rule:evenodd;stroke:#2e3440;stroke-width:0.964999;stroke-linecap:round;stroke-miterlimit:2;stroke-dasharray:1.05833, 0.264583;stroke-dashoffset:0;paint-order:stroke fill markers"
       id="path6-2"
       inkscape:flatsided="true"
       sodipodi:sides="6"
       sodipodi:cx="147.03957"
       sodipodi:cy="25.688721"
       sodipodi:r1="36.427765"
       sodipodi:r2="31.547371"
       sodipodi:arg1="0.86695044"
       sodipodi:arg2="1.3905492"
       inkscape:rounded="0"
       inkscape:randomized="0"
       inkscape:transform-center-x="-3.5865405e-06"
       transform="matrix(0.49179728,0.09018331,-0.09018331,0.49179728,99.617904,11.822481)" />
    <path
       sodipodi:type="star"
       style="fill:none;fill-rule:evenodd;stroke:#2e3440;stroke-width:0.964999;stroke-linecap:round;stroke-miterlimit:2;stroke-dasharray:1.05833, 0.264583;stroke-dashoffset:0;paint-order:stroke fill markers"
       id="path6-1"
       inkscape:flatsided="true"
       sodipodi:sides="6"
       sodipodi:cx="147.03957"
       sodipodi:cy="25.688721"
       sodipodi:r1="36.427765"
       sodipodi:r2="31.547371"
       sodipodi:arg1="0.86695044"
       sodipodi:arg2="1.3905492"
       inkscape:rounded="0"
       inkscape:randomized="0"
       inkscape:transform-center-x="-3.5865405e-06"
       transform="matrix(0.49179728,0.09018331,-0.09018331,0.49179728,99.582794,43.369679)" />
    <path
       sodipodi:type="star"
       style="fill:none;fill-rule:evenodd;stroke:#2e3440;stroke-width:0.964999;stroke-linecap:round;stroke-miterlimit:2;stroke-dasharray:1.05833, 0.264583;stroke-dashoffset:0;paint-order:stroke fill markers"
       id="path6-5"
       inkscape:flatsided="true"
       sodipodi:sides="6"
       sodipodi:cx="147.03957"
       sodipodi:cy="25.688721"
       sodipodi:r1="36.427765"
       sodipodi:r2="31.547371"
       sodipodi:arg1="0.86695044"
       sodipodi:arg2="1.3905492"
       inkscape:rounded="0"
       inkscape:randomized="0"
       inkscape:transform-center-x="-3.5865405e-06"
       transform="matrix(0.49179728,0.09018331,-0.09018331,0.49179728,72.314784,-3.9815245)" />
    <path
       style="fill:#ebcb8b;stroke:#ebcb8b;stroke-width:0.385289;stroke-linecap:butt;stroke-linejoin:miter;stroke-dasharray:none;stroke-opacity:1;marker-end:url(#ConcaveTriangle-8)"
       d="M 142.39149,53.305087 167.58984,38.731949"
       id="path2-4"
       sodipodi:nodetypes="cc" />
    <path
       style="fill:#ebcb8b;stroke:#ebcb8b;stroke-width:0.385289;stroke-linecap:butt;stroke-linejoin:miter;stroke-dasharray:none;stroke-opacity:1;marker-end:url(#ConcaveTriangle-8)"
       d="M 142.54566,53.296123 142.31175,24.454696"
       id="path3-7"
       sodipodi:nodetypes="cc" />
    <g
       inkscape:label=""
       transform="translate(52.118684,54.13192)"
       id="g9"
       style="fill:#ebcb8b">
      <g
         fill="#000000"
         fill-opacity="1"
         id="g3"
         transform="matrix(0.352778,0,0,0.352778,-1.05035,-0.557654)"
         style="fill:#ebcb8b">
        <g
           id="use2"
           transform="translate(2.6789999,15.862)"
           style="fill:#ebcb8b">
          <path
             d="M 9.890625,-13.703125 V -14.28125 H 1.46875 v 0.578125 z m 0,0"
             id="path8"
             style="fill:#ebcb8b" />
        </g>
      </g>
      <g
         fill="#000000"
         fill-opacity="1"
         id="g4"
         transform="matrix(0.352778,0,0,0.352778,-1.05035,-0.557654)"
         style="fill:#ebcb8b">
        <g
           id="use3"
           transform="translate(1.993,15.863)"
           style="fill:#ebcb8b">
          <path
             d="m 7.453125,-2.953125 c -0.125,0.421875 -0.125,0.46875 -0.46875,0.953125 -0.546875,0.6875 -1.625,1.75 -2.796875,1.75 -1.015625,0 -1.578125,-0.921875 -1.578125,-2.375 0,-1.359375 0.765625,-4.140625 1.234375,-5.1875 0.84375,-1.734375 2,-2.625 2.96875,-2.625 1.640625,0 1.953125,2.03125 1.953125,2.234375 0,0.03125 -0.0625,0.34375 -0.09375,0.390625 z m 1.59375,-6.34375 c -0.28125,-0.640625 -0.9375,-1.625 -2.234375,-1.625 -2.796875,0 -5.828125,3.609375 -5.828125,7.28125 0,2.453125 1.4375,3.890625 3.125,3.890625 1.375,0 2.53125,-1.0625 3.21875,-1.890625 C 7.578125,-0.171875 8.75,0.25 9.484375,0.25 c 0.75,0 1.34375,-0.453125 1.796875,-1.34375 0.390625,-0.84375 0.734375,-2.34375 0.734375,-2.453125 0,-0.125 -0.09375,-0.21875 -0.25,-0.21875 -0.21875,0 -0.25,0.125 -0.34375,0.5 C 11.046875,-1.8125 10.578125,-0.25 9.5625,-0.25 c -0.71875,0 -0.765625,-0.640625 -0.765625,-1.140625 0,-0.5625 0.078125,-0.84375 0.296875,-1.8125 0.171875,-0.609375 0.296875,-1.15625 0.5,-1.875 0.90625,-3.71875 1.140625,-4.609375 1.140625,-4.765625 0,-0.34375 -0.28125,-0.609375 -0.640625,-0.609375 -0.796875,0 -1,0.859375 -1.046875,1.15625 z m 0,0"
             id="path9"
             style="fill:#ebcb8b" />
        </g>
      </g>
    </g>
    <g
       inkscape:label=""
       transform="translate(39.84625,46.093923)"
       id="g14"
       style="fill:#ebcb8b">
      <g
         fill="#000000"
         fill-opacity="1"
         id="g11"
         transform="matrix(0.352778,0,0,0.352778,-1.03602,-0.557654)"
         style="fill:#ebcb8b">
        <g
           id="g10"
           transform="translate(1.4680001,15.862)"
           style="fill:#ebcb8b">
          <path
             d="M 9.890625,-13.703125 V -14.28125 H 1.46875 v 0.578125 z m 0,0"
             id="path10"
             style="fill:#ebcb8b" />
        </g>
      </g>
      <g
         fill="#000000"
         fill-opacity="1"
         id="g13"
         transform="matrix(0.352778,0,0,0.352778,-1.03602,-0.557654)"
         style="fill:#ebcb8b">
        <g
           id="g12"
           transform="translate(1.993,22.403999)"
           style="fill:#ebcb8b">
          <path
             d="m 5.71875,-16.578125 c 0.03125,-0.09375 0.078125,-0.25 0.078125,-0.375 0,-0.25 -0.25,-0.25 -0.296875,-0.25 -0.015625,0 -0.921875,0.07813 -1.359375,0.125 C 3.71875,-17.046875 3.34375,-17 2.90625,-16.96875 c -0.609375,0.04687 -0.78125,0.0625 -0.78125,0.515625 0,0.25 0.25,0.25 0.5,0.25 1.265625,0 1.265625,0.21875 1.265625,0.46875 0,0.171875 -0.203125,0.890625 -0.296875,1.34375 L 3,-12.015625 c -0.25,0.984375 -1.65625,6.609375 -1.765625,7.0625 -0.125,0.609375 -0.125,1.03125 -0.125,1.359375 0,2.53125 1.421875,3.84375 3.03125,3.84375 2.875,0 5.84375,-3.6875 5.84375,-7.28125 0,-2.28125 -1.28125,-3.890625 -3.140625,-3.890625 -1.296875,0 -2.453125,1.0625 -2.921875,1.546875 z M 4.15625,-0.25 C 3.375,-0.25 2.5,-0.84375 2.5,-2.78125 2.5,-3.59375 2.578125,-4.0625 3.015625,-5.796875 3.09375,-6.125 3.5,-7.703125 3.59375,-8.03125 3.640625,-8.234375 5.109375,-10.4375 6.796875,-10.4375 7.875,-10.4375 8.375,-9.34375 8.375,-8.046875 8.375,-6.859375 7.6875,-4.0625 7.0625,-2.78125 6.4375,-1.4375 5.296875,-0.25 4.15625,-0.25 Z m 0,0"
             id="path11"
             style="fill:#ebcb8b" />
        </g>
      </g>
    </g>
    <g
       inkscape:label=""
       transform="matrix(1.5424421,0,0,1.5424421,146.9255,51.744425)"
       id="g29"
       style="fill:#ebcb8b">
      <g
         fill="#000000"
         fill-opacity="1"
         id="g26"
         transform="matrix(0.352778,0,0,0.352778,-0.879475,-0.706482)"
         style="fill:#ebcb8b">
        <g
           id="g25"
           transform="translate(1.993,8.8520002)"
           style="fill:#ebcb8b">
          <path
             d="m 1.265625,-0.765625 1.0625,-1.03125 c 1.546875,-1.375 2.140625,-1.90625 2.140625,-2.90625 0,-1.140625 -0.890625,-1.9375 -2.109375,-1.9375 -1.125,0 -1.859375,0.921875 -1.859375,1.8125 0,0.546875 0.5,0.546875 0.53125,0.546875 0.171875,0 0.515625,-0.109375 0.515625,-0.53125 0,-0.25 -0.1875,-0.515625 -0.53125,-0.515625 -0.078125,0 -0.09375,0 -0.125,0.015625 0.21875,-0.65625 0.765625,-1.015625 1.34375,-1.015625 0.90625,0 1.328125,0.8125 1.328125,1.625 C 3.5625,-3.90625 3.078125,-3.125 2.515625,-2.5 l -1.90625,2.125 C 0.5,-0.265625 0.5,-0.234375 0.5,0 H 4.203125 L 4.46875,-1.734375 H 4.234375 C 4.171875,-1.4375 4.109375,-1 4,-0.84375 3.9375,-0.765625 3.28125,-0.765625 3.0625,-0.765625 Z m 0,0"
             id="path12"
             style="fill:#ebcb8b" />
        </g>
      </g>
      <g
         fill="#000000"
         fill-opacity="1"
         id="g7"
         transform="matrix(0.352778,0,0,0.352778,-0.879475,-0.706482)"
         style="fill:#ebcb8b">
        <g
           id="use6"
           transform="translate(6.974,8.8520002)"
           style="fill:#ebcb8b">
          <path
             d="m 2.640625,-3.71875 h 1.125 C 3.4375,-2.25 3.34375,-1.8125 3.34375,-1.140625 c 0,0.140625 0,0.40625 0.078125,0.75 0.109375,0.4375 0.21875,0.5 0.359375,0.5 0.203125,0 0.421875,-0.171875 0.421875,-0.375 0,-0.0625 0,-0.078125 -0.0625,-0.21875 -0.296875,-0.71875 -0.296875,-1.375 -0.296875,-1.65625 0,-0.515625 0.078125,-1.0625 0.1875,-1.578125 h 1.125 c 0.140625,0 0.5,0 0.5,-0.34375 0,-0.234375 -0.21875,-0.234375 -0.40625,-0.234375 H 1.90625 c -0.21875,0 -0.59375,0 -1.03125,0.46875 -0.34375,0.390625 -0.609375,0.84375 -0.609375,0.890625 0,0.015625 0,0.109375 0.125,0.109375 0.078125,0 0.09375,-0.046875 0.15625,-0.125 C 1.03125,-3.71875 1.609375,-3.71875 1.8125,-3.71875 H 2.375 C 2.0625,-2.515625 1.53125,-1.3125 1.109375,-0.40625 1.03125,-0.25 1.03125,-0.234375 1.03125,-0.15625 c 0,0.1875 0.15625,0.265625 0.28125,0.265625 0.296875,0 0.375,-0.28125 0.5,-0.640625 C 1.953125,-1 1.953125,-1.015625 2.078125,-1.515625 Z m 0,0"
             id="path26"
             style="fill:#ebcb8b" />
        </g>
      </g>
      <g
         fill="#000000"
         fill-opacity="1"
         id="g8"
         transform="matrix(0.352778,0,0,0.352778,-0.879475,-0.706482)"
         style="fill:#ebcb8b">
        <g
           id="use7"
           transform="translate(13.153,8.8520002)"
           style="fill:#ebcb8b">
          <path
             d="M 4.28125,-5.578125 V -5.875 H 0.6875 v 0.296875 z m 0,0"
             id="path27"
             style="fill:#ebcb8b" />
        </g>
      </g>
      <g
         fill="#000000"
         fill-opacity="1"
         id="g27"
         transform="matrix(0.352778,0,0,0.352778,-0.879475,-0.706482)"
         style="fill:#ebcb8b">
        <g
           id="use8"
           transform="translate(13.01,8.8520002)"
           style="fill:#ebcb8b">
          <path
             d="M 3.71875,-3.765625 C 3.53125,-4.140625 3.25,-4.40625 2.796875,-4.40625 c -1.15625,0 -2.390625,1.46875 -2.390625,2.921875 0,0.9375 0.546875,1.59375 1.3125,1.59375 0.203125,0 0.703125,-0.046875 1.296875,-0.75 0.078125,0.421875 0.4375,0.75 0.90625,0.75 0.359375,0 0.578125,-0.234375 0.75,-0.546875 0.15625,-0.359375 0.296875,-0.96875 0.296875,-0.984375 0,-0.109375 -0.09375,-0.109375 -0.125,-0.109375 -0.09375,0 -0.109375,0.046875 -0.140625,0.1875 -0.171875,0.640625 -0.34375,1.234375 -0.75,1.234375 -0.28125,0 -0.296875,-0.265625 -0.296875,-0.453125 0,-0.21875 0.015625,-0.3125 0.125,-0.75 C 3.890625,-1.71875 3.90625,-1.828125 4,-2.203125 L 4.359375,-3.59375 c 0.0625,-0.28125 0.0625,-0.296875 0.0625,-0.34375 0,-0.171875 -0.109375,-0.265625 -0.28125,-0.265625 -0.25,0 -0.390625,0.21875 -0.421875,0.4375 z M 3.078125,-1.1875 C 3.015625,-1 3.015625,-0.984375 2.875,-0.8125 2.4375,-0.265625 2.03125,-0.109375 1.75,-0.109375 c -0.5,0 -0.640625,-0.546875 -0.640625,-0.9375 0,-0.5 0.3125,-1.71875 0.546875,-2.1875 0.3125,-0.578125 0.75,-0.953125 1.15625,-0.953125 0.640625,0 0.78125,0.8125 0.78125,0.875 0,0.0625 -0.015625,0.125 -0.03125,0.171875 z m 0,0"
             id="path13"
             style="fill:#ebcb8b" />
        </g>
      </g>
      <g
         fill="#000000"
         fill-opacity="1"
         id="g28"
         transform="matrix(0.352778,0,0,0.352778,-0.879475,-0.706482)"
         style="fill:#ebcb8b">
        <g
           id="use9"
           transform="translate(18.275999,5.237)"
           style="fill:#ebcb8b">
          <path
             d="m 2.25,-1.734375 c 0.578125,-0.25 0.828125,-0.34375 1,-0.4375 0.140625,-0.046875 0.203125,-0.078125 0.203125,-0.21875 0,-0.109375 -0.09375,-0.21875 -0.21875,-0.21875 -0.046875,0 -0.0625,0 -0.140625,0.0625 L 2.140625,-1.90625 2.25,-2.9375 c 0.015625,-0.125 0,-0.296875 -0.21875,-0.296875 -0.078125,0 -0.21875,0.046875 -0.21875,0.203125 0,0.0625 0.03125,0.265625 0.046875,0.34375 0.015625,0.109375 0.0625,0.625 0.078125,0.78125 L 0.984375,-2.546875 c -0.0625,-0.03125 -0.078125,-0.0625 -0.140625,-0.0625 -0.140625,0 -0.21875,0.109375 -0.21875,0.21875 0,0.140625 0.078125,0.1875 0.140625,0.203125 L 1.8125,-1.734375 c -0.5625,0.25 -0.828125,0.34375 -1,0.421875 -0.125,0.0625 -0.1875,0.09375 -0.1875,0.21875 0,0.125 0.078125,0.21875 0.21875,0.21875 0.046875,0 0.0625,0 0.140625,-0.0625 l 0.953125,-0.625 -0.125,1.109375 c 0,0.15625 0.140625,0.21875 0.21875,0.21875 0.09375,0 0.21875,-0.0625 0.21875,-0.21875 0,-0.0625 -0.03125,-0.265625 -0.03125,-0.328125 -0.015625,-0.125 -0.0625,-0.625 -0.078125,-0.78125 L 2.96875,-1.015625 C 3.15625,-0.875 3.171875,-0.875 3.234375,-0.875 c 0.125,0 0.21875,-0.09375 0.21875,-0.21875 0,-0.140625 -0.09375,-0.171875 -0.15625,-0.203125 z m 0,0"
             id="path28"
             style="fill:#ebcb8b" />
        </g>
      </g>
    </g>
    <g
       inkscape:label=""
       transform="matrix(1.5840846,0,0,1.5840846,143.13459,40.747294)"
       id="g40"
       style="fill:#ebcb8b">
      <g
         fill="#000000"
         fill-opacity="1"
         id="g31"
         transform="matrix(0.352778,0,0,0.352778,-0.879475,-0.625828)"
         style="fill:#ebcb8b">
        <g
           id="g30"
           transform="translate(1.993,10.278)"
           style="fill:#ebcb8b">
          <path
             d="m 1.265625,-0.765625 1.0625,-1.03125 c 1.546875,-1.375 2.140625,-1.90625 2.140625,-2.90625 0,-1.140625 -0.890625,-1.9375 -2.109375,-1.9375 -1.125,0 -1.859375,0.921875 -1.859375,1.8125 0,0.546875 0.5,0.546875 0.53125,0.546875 0.171875,0 0.515625,-0.109375 0.515625,-0.53125 0,-0.25 -0.1875,-0.515625 -0.53125,-0.515625 -0.078125,0 -0.09375,0 -0.125,0.015625 0.21875,-0.65625 0.765625,-1.015625 1.34375,-1.015625 0.90625,0 1.328125,0.8125 1.328125,1.625 C 3.5625,-3.90625 3.078125,-3.125 2.515625,-2.5 l -1.90625,2.125 C 0.5,-0.265625 0.5,-0.234375 0.5,0 H 4.203125 L 4.46875,-1.734375 H 4.234375 C 4.171875,-1.4375 4.109375,-1 4,-0.84375 3.9375,-0.765625 3.28125,-0.765625 3.0625,-0.765625 Z m 0,0"
             id="path29"
             style="fill:#ebcb8b" />
        </g>
      </g>
      <g
         fill="#000000"
         fill-opacity="1"
         id="g33"
         transform="matrix(0.352778,0,0,0.352778,-0.879475,-0.625828)"
         style="fill:#ebcb8b">
        <g
           id="g32"
           transform="translate(6.974,10.278)"
           style="fill:#ebcb8b">
          <path
             d="m 2.640625,-3.71875 h 1.125 C 3.4375,-2.25 3.34375,-1.8125 3.34375,-1.140625 c 0,0.140625 0,0.40625 0.078125,0.75 0.109375,0.4375 0.21875,0.5 0.359375,0.5 0.203125,0 0.421875,-0.171875 0.421875,-0.375 0,-0.0625 0,-0.078125 -0.0625,-0.21875 -0.296875,-0.71875 -0.296875,-1.375 -0.296875,-1.65625 0,-0.515625 0.078125,-1.0625 0.1875,-1.578125 h 1.125 c 0.140625,0 0.5,0 0.5,-0.34375 0,-0.234375 -0.21875,-0.234375 -0.40625,-0.234375 H 1.90625 c -0.21875,0 -0.59375,0 -1.03125,0.46875 -0.34375,0.390625 -0.609375,0.84375 -0.609375,0.890625 0,0.015625 0,0.109375 0.125,0.109375 0.078125,0 0.09375,-0.046875 0.15625,-0.125 C 1.03125,-3.71875 1.609375,-3.71875 1.8125,-3.71875 H 2.375 C 2.0625,-2.515625 1.53125,-1.3125 1.109375,-0.40625 1.03125,-0.25 1.03125,-0.234375 1.03125,-0.15625 c 0,0.1875 0.15625,0.265625 0.28125,0.265625 0.296875,0 0.375,-0.28125 0.5,-0.640625 C 1.953125,-1 1.953125,-1.015625 2.078125,-1.515625 Z m 0,0"
             id="path31"
             style="fill:#ebcb8b" />
        </g>
      </g>
      <g
         fill="#000000"
         fill-opacity="1"
         id="g35"
         transform="matrix(0.352778,0,0,0.352778,-0.879475,-0.625828)"
         style="fill:#ebcb8b">
        <g
           id="g34"
           transform="translate(12.657,7.6490002)"
           style="fill:#ebcb8b">
          <path
             d="M 4.28125,-5.578125 V -5.875 H 0.6875 v 0.296875 z m 0,0"
             id="path33"
             style="fill:#ebcb8b" />
        </g>
      </g>
      <g
         fill="#000000"
         fill-opacity="1"
         id="g37"
         transform="matrix(0.352778,0,0,0.352778,-0.879475,-0.625828)"
         style="fill:#ebcb8b">
        <g
           id="g36"
           transform="translate(13.01,10.278)"
           style="fill:#ebcb8b">
          <path
             d="m 2.375,-6.8125 c 0,0 0,-0.109375 -0.125,-0.109375 -0.21875,0 -0.953125,0.078125 -1.21875,0.109375 -0.078125,0 -0.1875,0.015625 -0.1875,0.1875 0,0.125 0.09375,0.125 0.25,0.125 0.46875,0 0.484375,0.0625 0.484375,0.171875 0,0.0625 -0.078125,0.40625 -0.125,0.609375 l -0.828125,3.25 c -0.109375,0.5 -0.15625,0.671875 -0.15625,1.015625 0,0.9375 0.53125,1.5625 1.265625,1.5625 1.171875,0 2.40625,-1.484375 2.40625,-2.921875 0,-0.90625 -0.53125,-1.59375 -1.328125,-1.59375 -0.453125,0 -0.875,0.296875 -1.171875,0.59375 z M 1.453125,-3.046875 C 1.5,-3.265625 1.5,-3.28125 1.59375,-3.390625 2.078125,-4.03125 2.53125,-4.1875 2.796875,-4.1875 c 0.359375,0 0.625,0.296875 0.625,0.9375 0,0.59375 -0.328125,1.734375 -0.515625,2.109375 -0.328125,0.671875 -0.78125,1.03125 -1.171875,1.03125 -0.34375,0 -0.671875,-0.265625 -0.671875,-1 0,-0.203125 0,-0.390625 0.15625,-1.015625 z m 0,0"
             id="path35"
             style="fill:#ebcb8b" />
        </g>
      </g>
      <g
         fill="#000000"
         fill-opacity="1"
         id="g39"
         transform="matrix(0.352778,0,0,0.352778,-0.879475,-0.625828)"
         style="fill:#ebcb8b">
        <g
           id="g38"
           transform="translate(17.285999,6.6630001)"
           style="fill:#ebcb8b">
          <path
             d="m 2.25,-1.734375 c 0.578125,-0.25 0.828125,-0.34375 1,-0.4375 0.140625,-0.046875 0.203125,-0.078125 0.203125,-0.21875 0,-0.109375 -0.09375,-0.21875 -0.21875,-0.21875 -0.046875,0 -0.0625,0 -0.140625,0.0625 L 2.140625,-1.90625 2.25,-2.9375 c 0.015625,-0.125 0,-0.296875 -0.21875,-0.296875 -0.078125,0 -0.21875,0.046875 -0.21875,0.203125 0,0.0625 0.03125,0.265625 0.046875,0.34375 0.015625,0.109375 0.0625,0.625 0.078125,0.78125 L 0.984375,-2.546875 c -0.0625,-0.03125 -0.078125,-0.0625 -0.140625,-0.0625 -0.140625,0 -0.21875,0.109375 -0.21875,0.21875 0,0.140625 0.078125,0.1875 0.140625,0.203125 L 1.8125,-1.734375 c -0.5625,0.25 -0.828125,0.34375 -1,0.421875 -0.125,0.0625 -0.1875,0.09375 -0.1875,0.21875 0,0.125 0.078125,0.21875 0.21875,0.21875 0.046875,0 0.0625,0 0.140625,-0.0625 l 0.953125,-0.625 -0.125,1.109375 c 0,0.15625 0.140625,0.21875 0.21875,0.21875 0.09375,0 0.21875,-0.0625 0.21875,-0.21875 0,-0.0625 -0.03125,-0.265625 -0.03125,-0.328125 -0.015625,-0.125 -0.0625,-0.625 -0.078125,-0.78125 L 2.96875,-1.015625 C 3.15625,-0.875 3.171875,-0.875 3.234375,-0.875 c 0.125,0 0.21875,-0.09375 0.21875,-0.21875 0,-0.140625 -0.09375,-0.171875 -0.15625,-0.203125 z m 0,0"
             id="path37"
             style="fill:#ebcb8b" />
        </g>
      </g>
    </g>
  </g>
</svg>
