<?xml version="1.0" encoding="UTF-8" standalone="no"?>
<!-- Created with Inkscape (http://www.inkscape.org/) -->

<svg
   width="210mm"
   height="297mm"
   viewBox="0 0 210 297"
   version="1.1"
   id="svg5"
   sodipodi:docname="BJT.svg"
   inkscape:version="1.2.2 (b0a8486541, 2022-12-01)"
   xmlns:inkscape="http://www.inkscape.org/namespaces/inkscape"
   xmlns:sodipodi="http://sodipodi.sourceforge.net/DTD/sodipodi-0.dtd"
   xmlns="http://www.w3.org/2000/svg"
   xmlns:svg="http://www.w3.org/2000/svg">
  <sodipodi:namedview
     id="namedview7"
     pagecolor="#505050"
     bordercolor="#eeeeee"
     borderopacity="1"
     inkscape:showpageshadow="0"
     inkscape:pageopacity="0"
     inkscape:pagecheckerboard="0"
     inkscape:deskcolor="#d1d1d1"
     inkscape:document-units="mm"
     showgrid="false"
     inkscape:zoom="2"
     inkscape:cx="459.75"
     inkscape:cy="263.75"
     inkscape:window-width="1920"
     inkscape:window-height="1043"
     inkscape:window-x="0"
     inkscape:window-y="0"
     inkscape:window-maximized="1"
     inkscape:current-layer="layer1" />
  <defs
     id="defs2">
    <marker
       style="overflow:visible"
       id="marker12705"
       refX="0"
       refY="0"
       orient="auto-start-reverse"
       inkscape:stockid="Arrow1"
       markerWidth="4.0606604"
       markerHeight="6.7071066"
       viewBox="0 0 4.0606602 6.7071068"
       inkscape:isstock="true"
       inkscape:collect="always"
       preserveAspectRatio="xMidYMid">
      <path
         style="fill:none;stroke:context-stroke;stroke-width:1;stroke-linecap:butt"
         d="M 3,-3 0,0 3,3"
         id="path12703"
         transform="rotate(180,0.125,0)"
         sodipodi:nodetypes="ccc" />
    </marker>
    <marker
       style="overflow:visible"
       id="marker8737"
       refX="0"
       refY="0"
       orient="auto-start-reverse"
       inkscape:stockid="Arrow1"
       markerWidth="4.0606604"
       markerHeight="6.7071066"
       viewBox="0 0 4.0606602 6.7071068"
       inkscape:isstock="true"
       inkscape:collect="always"
       preserveAspectRatio="xMidYMid">
      <path
         style="fill:none;stroke:context-stroke;stroke-width:1;stroke-linecap:butt"
         d="M 3,-3 0,0 3,3"
         id="path8735"
         transform="rotate(180,0.125,0)"
         sodipodi:nodetypes="ccc" />
    </marker>
    <marker
       style="overflow:visible"
       id="marker2756"
       refX="0"
       refY="0"
       orient="auto-start-reverse"
       inkscape:stockid="Arrow1"
       markerWidth="4.0606604"
       markerHeight="6.7071066"
       viewBox="0 0 4.0606602 6.7071068"
       inkscape:isstock="true"
       inkscape:collect="always"
       preserveAspectRatio="xMidYMid">
      <path
         style="fill:none;stroke:context-stroke;stroke-width:1;stroke-linecap:butt"
         d="M 3,-3 0,0 3,3"
         id="path2754"
         transform="rotate(180,0.125,0)"
         sodipodi:nodetypes="ccc" />
    </marker>
    <marker
       style="overflow:visible"
       id="marker2564"
       refX="0"
       refY="0"
       orient="auto-start-reverse"
       inkscape:stockid="Arrow1"
       markerWidth="4.0606604"
       markerHeight="6.7071066"
       viewBox="0 0 4.0606602 6.7071068"
       inkscape:isstock="true"
       inkscape:collect="always"
       preserveAspectRatio="xMidYMid">
      <path
         style="fill:none;stroke:context-stroke;stroke-width:1;stroke-linecap:butt"
         d="M 3,-3 0,0 3,3"
         id="path2562"
         transform="rotate(180,0.125,0)"
         sodipodi:nodetypes="ccc" />
    </marker>
    <marker
       style="overflow:visible"
       id="marker2420"
       refX="0"
       refY="0"
       orient="auto-start-reverse"
       inkscape:stockid="Arrow1"
       markerWidth="4.0606604"
       markerHeight="6.7071066"
       viewBox="0 0 4.0606602 6.7071068"
       inkscape:isstock="true"
       inkscape:collect="always"
       preserveAspectRatio="xMidYMid">
      <path
         style="fill:none;stroke:context-stroke;stroke-width:1;stroke-linecap:butt"
         d="M 3,-3 0,0 3,3"
         id="path2418"
         transform="rotate(180,0.125,0)"
         sodipodi:nodetypes="ccc" />
    </marker>
    <marker
       style="overflow:visible"
       id="Arrow1"
       refX="0"
       refY="0"
       orient="auto-start-reverse"
       inkscape:stockid="Arrow1"
       markerWidth="4.0606604"
       markerHeight="6.7071066"
       viewBox="0 0 4.0606602 6.7071068"
       inkscape:isstock="true"
       inkscape:collect="always"
       preserveAspectRatio="xMidYMid">
      <path
         style="fill:none;stroke:context-stroke;stroke-width:1;stroke-linecap:butt"
         d="M 3,-3 0,0 3,3"
         id="path5057"
         transform="rotate(180,0.125,0)"
         sodipodi:nodetypes="ccc" />
    </marker>
    <clipPath
       id="clipPath1376">
      <path
         clip-rule="nonzero"
         d="M 0,0 H 14.738281 V 1 H 0 Z m 0,0"
         id="path3826" />
    </clipPath>
    <clipPath
       id="clipPath8249">
      <path
         clip-rule="nonzero"
         d="M 0,0 H 1 V 14.945312 H 0 Z m 0,0"
         id="path1606" />
    </clipPath>
    <clipPath
       id="clipPath2276">
      <path
         clip-rule="nonzero"
         d="m 14,0 h 0.738281 V 14.945312 H 14 Z m 0,0"
         id="path660" />
    </clipPath>
    <clipPath
       id="clipPath6527">
      <path
         clip-rule="nonzero"
         d="m 0,14 h 14.738281 v 0.945312 H 0 Z m 0,0"
         id="path2057" />
    </clipPath>
    <clipPath
       id="clipPath384">
      <path
         clip-rule="nonzero"
         d="M 0,0 H 15.0625 V 1 H 0 Z m 0,0"
         id="path7124" />
    </clipPath>
    <clipPath
       id="clipPath3563">
      <path
         clip-rule="nonzero"
         d="M 0,0 H 1 V 14.945312 H 0 Z m 0,0"
         id="path7015" />
    </clipPath>
    <clipPath
       id="clipPath5281">
      <path
         clip-rule="nonzero"
         d="m 14,0 h 1.0625 V 14.945312 H 14 Z m 0,0"
         id="path9647" />
    </clipPath>
    <clipPath
       id="clipPath6349">
      <path
         clip-rule="nonzero"
         d="m 0,14 h 15.0625 v 0.945312 H 0 Z m 0,0"
         id="path7132" />
    </clipPath>
    <clipPath
       id="clipPath9363">
      <path
         clip-rule="nonzero"
         d="M 0,0 H 15.230469 V 1 H 0 Z m 0,0"
         id="path6157" />
    </clipPath>
    <clipPath
       id="clipPath8677">
      <path
         clip-rule="nonzero"
         d="M 0,0 H 1 V 14.945312 H 0 Z m 0,0"
         id="path2546" />
    </clipPath>
    <clipPath
       id="clipPath7402">
      <path
         clip-rule="nonzero"
         d="m 14,0 h 1.230469 V 14.945312 H 14 Z m 0,0"
         id="path2445" />
    </clipPath>
    <clipPath
       id="clipPath9862">
      <path
         clip-rule="nonzero"
         d="m 0,14 h 15.230469 v 0.945312 H 0 Z m 0,0"
         id="path342" />
    </clipPath>
    <clipPath
       id="clipPath7634">
      <path
         clip-rule="nonzero"
         d="m 5,4 h 8 v 6.179688 H 5 Z m 0,0"
         id="path1200" />
    </clipPath>
    <clipPath
       id="clipPath6471">
      <path
         clip-rule="nonzero"
         d="m 12,6 h 6 v 4.179688 h -6 z m 0,0"
         id="path2321" />
    </clipPath>
    <clipPath
       id="clipPath8934">
      <path
         clip-rule="nonzero"
         d="m 12,6 h 5 v 5.921875 h -5 z m 0,0"
         id="path4553" />
    </clipPath>
    <clipPath
       id="clipPath1154">
      <path
         clip-rule="nonzero"
         d="m 5,3 h 8 v 7.179688 H 5 Z m 0,0"
         id="path7576" />
    </clipPath>
    <clipPath
       id="clipPath7777">
      <path
         clip-rule="nonzero"
         d="m 12,6 h 6 v 4.179688 h -6 z m 0,0"
         id="path3330" />
    </clipPath>
    <clipPath
       id="clipPath7930">
      <path
         clip-rule="nonzero"
         d="m 12,6 h 5 v 5.921875 h -5 z m 0,0"
         id="path3700" />
    </clipPath>
    <clipPath
       id="clipPath972">
      <path
         clip-rule="nonzero"
         d="M 0,0 H 24.65625 V 1 H 0 Z m 0,0"
         id="path7029" />
    </clipPath>
    <clipPath
       id="clipPath1264">
      <path
         clip-rule="nonzero"
         d="M 0,0 H 1 V 15.855469 H 0 Z m 0,0"
         id="path1693" />
    </clipPath>
    <clipPath
       id="clipPath3344">
      <path
         clip-rule="nonzero"
         d="m 24,0 h 0.65625 V 15.855469 H 24 Z m 0,0"
         id="path6379" />
    </clipPath>
    <clipPath
       id="clipPath9433">
      <path
         clip-rule="nonzero"
         d="m 0,15 h 24.65625 v 0.855469 H 0 Z m 0,0"
         id="path942" />
    </clipPath>
    <clipPath
       id="clipPath2927">
      <path
         clip-rule="nonzero"
         d="M 0,0 H 14.738281 V 1 H 0 Z m 0,0"
         id="path7616" />
    </clipPath>
    <clipPath
       id="clipPath6144">
      <path
         clip-rule="nonzero"
         d="M 0,0 H 1 V 14.945312 H 0 Z m 0,0"
         id="path9812" />
    </clipPath>
    <clipPath
       id="clipPath7574">
      <path
         clip-rule="nonzero"
         d="m 14,0 h 0.738281 V 14.945312 H 14 Z m 0,0"
         id="path3388" />
    </clipPath>
    <clipPath
       id="clipPath6552">
      <path
         clip-rule="nonzero"
         d="m 0,14 h 14.738281 v 0.945312 H 0 Z m 0,0"
         id="path6694" />
    </clipPath>
    <clipPath
       id="clipPath1442">
      <path
         clip-rule="nonzero"
         d="M 0,0 H 15.550781 V 1 H 0 Z m 0,0"
         id="path4973" />
    </clipPath>
    <clipPath
       id="clipPath295">
      <path
         clip-rule="nonzero"
         d="M 0,0 H 1 V 14.945312 H 0 Z m 0,0"
         id="path9610" />
    </clipPath>
    <clipPath
       id="clipPath4493">
      <path
         clip-rule="nonzero"
         d="m 15,0 h 0.550781 V 14.945312 H 15 Z m 0,0"
         id="path9824" />
    </clipPath>
    <clipPath
       id="clipPath5510">
      <path
         clip-rule="nonzero"
         d="m 0,14 h 15.550781 v 0.945312 H 0 Z m 0,0"
         id="path7574" />
    </clipPath>
    <clipPath
       id="clipPath9069">
      <path
         clip-rule="nonzero"
         d="m 4,3 h 7 V 9.847656 H 4 Z m 0,0"
         id="path1221" />
    </clipPath>
    <clipPath
       id="clipPath2421">
      <path
         clip-rule="nonzero"
         d="m 4,3 h 7 V 9.847656 H 4 Z m 0,0"
         id="path2887" />
    </clipPath>
    <clipPath
       id="clipPath157">
      <path
         clip-rule="nonzero"
         d="m 4,3 h 7 V 9.847656 H 4 Z m 0,0"
         id="path8378" />
    </clipPath>
    <clipPath
       id="clipPath9212">
      <path
         clip-rule="nonzero"
         d="M 0,0 H 11.953125 V 4.386719 H 0 Z m 0,0"
         id="path946" />
    </clipPath>
    <marker
       style="overflow:visible"
       id="marker12705-3"
       refX="0"
       refY="0"
       orient="auto-start-reverse"
       inkscape:stockid="Arrow1"
       markerWidth="4.0606604"
       markerHeight="6.7071066"
       viewBox="0 0 4.0606602 6.7071068"
       inkscape:isstock="true"
       inkscape:collect="always"
       preserveAspectRatio="xMidYMid">
      <path
         style="fill:none;stroke:context-stroke;stroke-width:1;stroke-linecap:butt"
         d="M 3,-3 0,0 3,3"
         id="path12703-6"
         transform="rotate(180,0.125,0)"
         sodipodi:nodetypes="ccc" />
    </marker>
    <marker
       style="overflow:visible"
       id="marker12705-5"
       refX="0"
       refY="0"
       orient="auto-start-reverse"
       inkscape:stockid="Arrow1"
       markerWidth="4.0606604"
       markerHeight="6.7071066"
       viewBox="0 0 4.0606602 6.7071068"
       inkscape:isstock="true"
       inkscape:collect="always"
       preserveAspectRatio="xMidYMid">
      <path
         style="fill:none;stroke:context-stroke;stroke-width:1;stroke-linecap:butt"
         d="M 3,-3 0,0 3,3"
         id="path12703-3"
         transform="rotate(180,0.125,0)"
         sodipodi:nodetypes="ccc" />
    </marker>
  </defs>
  <g
     inkscape:label="Layer 1"
     inkscape:groupmode="layer"
     id="layer1">
    <path
       style="fill:none;fill-rule:evenodd;stroke:#000000;stroke-width:0.3;stroke-linecap:round;stroke-linejoin:round;stroke-miterlimit:2"
       d="M 45.298508,85.216046 H 140.42485"
       id="path1103" />
    <path
       style="fill:none;fill-rule:evenodd;stroke:#000000;stroke-width:0.3;stroke-linecap:round;stroke-linejoin:round;stroke-miterlimit:2"
       d="M 66.68073,45.47318 V 85.216044"
       id="path1107" />
    <path
       style="fill:none;fill-rule:evenodd;stroke:#000000;stroke-width:0.3;stroke-linecap:round;stroke-linejoin:round;stroke-miterlimit:2"
       d="M 78.71665,45.32318 V 85.216044"
       id="path1109" />
    <path
       style="fill:none;fill-rule:evenodd;stroke:#000000;stroke-width:0.3;stroke-linecap:round;stroke-linejoin:round;stroke-miterlimit:2"
       d="M 105,45.17318 V 85.216044"
       id="path1111" />
    <path
       style="fill:none;fill-rule:evenodd;stroke:#000000;stroke-width:0.3;stroke-linecap:round;stroke-linejoin:round;stroke-miterlimit:2"
       d="M 122.49003,45.02318 V 85.216044"
       id="path1113" />
    <path
       style="fill:none;fill-rule:evenodd;stroke:#000000;stroke-width:0.3;stroke-linecap:round;stroke-linejoin:round;stroke-miterlimit:2;stroke-dasharray:1.80000007,1.80000007;stroke-dashoffset:0"
       d="m 113.44027,40.094601 v 49.55605"
       id="path1165" />
    <path
       style="fill:none;fill-rule:evenodd;stroke:#000000;stroke-width:0.3;stroke-linecap:round;stroke-linejoin:round;stroke-miterlimit:2;stroke-dasharray:1.80000007,1.80000007;stroke-dashoffset:0"
       d="m 68.05704,39.9446 0.152834,49.856051"
       id="path1167" />
    <path
       style="fill:#bf616a;fill-rule:evenodd;stroke:#bf616a;stroke-width:0.3;stroke-linecap:round;stroke-linejoin:round;stroke-miterlimit:2;stroke-dasharray:none;stroke-dashoffset:0;marker-end:url(#Arrow1)"
       d="M 78.71665,58.829466 H 66.68073"
       id="path2003" />
    <path
       style="fill:none;fill-rule:evenodd;stroke:#5e81ac;stroke-width:0.3;stroke-linecap:round;stroke-linejoin:round;stroke-miterlimit:2;stroke-dasharray:none;stroke-dashoffset:0;marker-end:url(#marker2420)"
       d="M 78.71665,81.730246 H 66.68073"
       id="path2005" />
    <path
       style="fill:none;fill-rule:evenodd;stroke:#5e81ac;stroke-width:0.3;stroke-linecap:round;stroke-linejoin:round;stroke-miterlimit:2;stroke-dasharray:none;stroke-dashoffset:0;marker-start:url(#marker2756)"
       d="m 105,83.103187 h 17.49003"
       id="path2007" />
    <path
       style="fill:none;fill-rule:evenodd;stroke:#bf616a;stroke-width:0.3;stroke-linecap:round;stroke-linejoin:round;stroke-miterlimit:2;stroke-dasharray:none;stroke-dashoffset:0;marker-start:url(#marker2564)"
       d="m 105,61.381938 h 17.49003"
       id="path2009" />
    <g
       inkscape:label=""
       transform="translate(52.513456,86.874133)"
       id="g3386">
      <g
         clip-path="url(#clipPath1376)"
         id="g23"
         transform="matrix(0.352778,0,0,0.352778,0,-7.71698e-5)">
        <path
           fill="none"
           stroke-width="0.398"
           stroke-linecap="butt"
           stroke-linejoin="miter"
           stroke="#000000"
           stroke-opacity="1"
           stroke-miterlimit="10"
           d="M 0,-2.1875e-4 H 14.738281"
           transform="matrix(1,0,0,-1,0,0.199)"
           id="path21" />
      </g>
      <g
         clip-path="url(#clipPath8249)"
         id="g27"
         transform="matrix(0.352778,0,0,0.352778,0,-7.71698e-5)">
        <path
           fill="none"
           stroke-width="0.398"
           stroke-linecap="butt"
           stroke-linejoin="miter"
           stroke="#000000"
           stroke-opacity="1"
           stroke-miterlimit="10"
           d="M 2.1875e-4,-8.75e-4 V 14.147562"
           transform="matrix(1,0,0,-1,0.199,14.546)"
           id="path25" />
      </g>
      <g
         fill="#000000"
         fill-opacity="1"
         id="g31"
         transform="matrix(0.352778,0,0,0.352778,0,-7.71698e-5)">
        <g
           id="use29"
           transform="translate(3.3870001,11.557)">
          <path
             d="M 7.625,-3.0625 H 7.359375 c -0.28125,1.875 -0.5625,2.71875 -2.59375,2.71875 h -1.625 C 2.625,-0.34375 2.59375,-0.4375 2.59375,-0.828125 v -3.21875 H 3.6875 c 1.140625,0 1.265625,0.359375 1.265625,1.390625 H 5.21875 V -5.796875 H 4.953125 c 0,1.03125 -0.125,1.390625 -1.265625,1.390625 H 2.59375 V -7.3125 c 0,-0.390625 0.03125,-0.484375 0.546875,-0.484375 h 1.59375 c 1.75,0 2.125,0.59375 2.3125,2.328125 h 0.25 L 7,-8.140625 H 0.484375 v 0.34375 h 0.25 c 0.859375,0 0.890625,0.125 0.890625,0.5625 v 6.328125 c 0,0.4375 -0.03125,0.5625 -0.890625,0.5625 h -0.25 V 0 h 6.65625 z m 0,0"
             id="path45" />
        </g>
      </g>
      <g
         clip-path="url(#clipPath2276)"
         id="g35"
         transform="matrix(0.352778,0,0,0.352778,0,-7.71698e-5)">
        <path
           fill="none"
           stroke-width="0.398"
           stroke-linecap="butt"
           stroke-linejoin="miter"
           stroke="#000000"
           stroke-opacity="1"
           stroke-miterlimit="10"
           d="M -9.375e-4,-8.75e-4 V 14.147562"
           transform="matrix(1,0,0,-1,14.54,14.546)"
           id="path33" />
      </g>
      <g
         clip-path="url(#clipPath6527)"
         id="g39"
         transform="matrix(0.352778,0,0,0.352778,0,-7.71698e-5)">
        <path
           fill="none"
           stroke-width="0.398"
           stroke-linecap="butt"
           stroke-linejoin="miter"
           stroke="#000000"
           stroke-opacity="1"
           stroke-miterlimit="10"
           d="M 0,-0.00109375 H 14.738281"
           transform="matrix(1,0,0,-1,0,14.745)"
           id="path37" />
      </g>
    </g>
    <g
       inkscape:label=""
       transform="translate(89.713614,87.014539)"
       id="g3550">
      <g
         clip-path="url(#clipPath384)"
         id="g3530"
         transform="matrix(0.352778,0,0,0.352778,0,-7.71698e-5)">
        <path
           fill="none"
           stroke-width="0.398"
           stroke-linecap="butt"
           stroke-linejoin="miter"
           stroke="#000000"
           stroke-opacity="1"
           stroke-miterlimit="10"
           d="M 0,-2.1875e-4 H 15.0625"
           transform="matrix(1,0,0,-1,0,0.199)"
           id="path3528" />
      </g>
      <g
         clip-path="url(#clipPath3563)"
         id="g3534"
         transform="matrix(0.352778,0,0,0.352778,0,-7.71698e-5)">
        <path
           fill="none"
           stroke-width="0.398"
           stroke-linecap="butt"
           stroke-linejoin="miter"
           stroke="#000000"
           stroke-opacity="1"
           stroke-miterlimit="10"
           d="M 2.1875e-4,-8.75e-4 V 14.147562"
           transform="matrix(1,0,0,-1,0.199,14.546)"
           id="path3532" />
      </g>
      <g
         fill="#000000"
         fill-opacity="1"
         id="g3540"
         transform="matrix(0.352778,0,0,0.352778,0,-7.71698e-5)">
        <g
           id="g3538"
           transform="translate(3.3870001,11.557)">
          <path
             d="M 0.515625,-8.15625 V -7.8125 H 0.75 c 0.859375,0 0.90625,0.109375 0.90625,0.5625 v 6.34375 c 0,0.4375 -0.046875,0.5625 -0.90625,0.5625 H 0.515625 V 0 h 4.5 C 6.546875,0 7.625,-1.046875 7.625,-2.1875 7.625,-3.15625 6.75,-4.109375 5.328125,-4.265625 6.46875,-4.484375 7.296875,-5.25 7.296875,-6.140625 7.296875,-7.171875 6.25,-8.15625 4.6875,-8.15625 Z M 2.5625,-4.359375 V -7.34375 c 0,-0.390625 0.015625,-0.46875 0.546875,-0.46875 h 1.5 c 1.203125,0 1.625,1.015625 1.625,1.671875 0,0.78125 -0.609375,1.78125 -1.9375,1.78125 z M 3.109375,-0.34375 C 2.578125,-0.34375 2.5625,-0.4375 2.5625,-0.828125 V -4.125 h 2.234375 c 1.140625,0 1.734375,1 1.734375,1.921875 0,0.96875 -0.71875,1.859375 -1.890625,1.859375 z m 0,0"
             id="path3536" />
        </g>
      </g>
      <g
         clip-path="url(#clipPath5281)"
         id="g3544"
         transform="matrix(0.352778,0,0,0.352778,0,-7.71698e-5)">
        <path
           fill="none"
           stroke-width="0.398"
           stroke-linecap="butt"
           stroke-linejoin="miter"
           stroke="#000000"
           stroke-opacity="1"
           stroke-miterlimit="10"
           d="M -0.00171875,-8.75e-4 V 14.147562"
           transform="matrix(1,0,0,-1,14.865,14.546)"
           id="path3542" />
      </g>
      <g
         clip-path="url(#clipPath6349)"
         id="g3548"
         transform="matrix(0.352778,0,0,0.352778,0,-7.71698e-5)">
        <path
           fill="none"
           stroke-width="0.398"
           stroke-linecap="butt"
           stroke-linejoin="miter"
           stroke="#000000"
           stroke-opacity="1"
           stroke-miterlimit="10"
           d="M 0,-0.00109375 H 15.0625"
           transform="matrix(1,0,0,-1,0,14.745)"
           id="path3546" />
      </g>
    </g>
    <g
       inkscape:label=""
       transform="translate(130.43235,87.014539)"
       id="g3754">
      <g
         clip-path="url(#clipPath9363)"
         id="g3734"
         transform="matrix(0.352778,0,0,0.352778,0,-7.71698e-5)">
        <path
           fill="none"
           stroke-width="0.398"
           stroke-linecap="butt"
           stroke-linejoin="miter"
           stroke="#000000"
           stroke-opacity="1"
           stroke-miterlimit="10"
           d="M 0,-2.1875e-4 H 15.230469"
           transform="matrix(1,0,0,-1,0,0.199)"
           id="path3732" />
      </g>
      <g
         clip-path="url(#clipPath8677)"
         id="g3738"
         transform="matrix(0.352778,0,0,0.352778,0,-7.71698e-5)">
        <path
           fill="none"
           stroke-width="0.398"
           stroke-linecap="butt"
           stroke-linejoin="miter"
           stroke="#000000"
           stroke-opacity="1"
           stroke-miterlimit="10"
           d="M 2.1875e-4,-8.75e-4 V 14.147562"
           transform="matrix(1,0,0,-1,0.199,14.546)"
           id="path3736" />
      </g>
      <g
         fill="#000000"
         fill-opacity="1"
         id="g3744"
         transform="matrix(0.352778,0,0,0.352778,0,-7.71698e-5)">
        <g
           id="g3742"
           transform="translate(3.3870001,11.557)">
          <path
             d="m 7.796875,-8.140625 c 0,-0.21875 0,-0.28125 -0.125,-0.28125 -0.0625,0 -0.078125,0.03125 -0.15625,0.15625 L 6.9375,-7.328125 C 6.390625,-8 5.578125,-8.421875 4.71875,-8.421875 c -2.1875,0 -4.078125,1.890625 -4.078125,4.328125 0,2.484375 1.921875,4.34375 4.078125,4.34375 1.96875,0 3.078125,-1.703125 3.078125,-3.015625 0,-0.140625 0,-0.203125 -0.140625,-0.203125 -0.109375,0 -0.125,0.046875 -0.125,0.140625 -0.109375,1.890625 -1.5,2.734375 -2.65625,2.734375 -0.828125,0 -3.125,-0.5 -3.125,-4 0,-3.453125 2.25,-3.96875 3.109375,-3.96875 1.265625,0 2.359375,1.0625 2.59375,2.84375 0.03125,0.15625 0.03125,0.1875 0.171875,0.1875 0.171875,0 0.171875,-0.03125 0.171875,-0.28125 z m 0,0"
             id="path3740" />
        </g>
      </g>
      <g
         clip-path="url(#clipPath7402)"
         id="g3748"
         transform="matrix(0.352778,0,0,0.352778,0,-7.71698e-5)">
        <path
           fill="none"
           stroke-width="0.398"
           stroke-linecap="butt"
           stroke-linejoin="miter"
           stroke="#000000"
           stroke-opacity="1"
           stroke-miterlimit="10"
           d="M 0.00125,-8.75e-4 V 14.147562"
           transform="matrix(1,0,0,-1,15.03,14.546)"
           id="path3746" />
      </g>
      <g
         clip-path="url(#clipPath9862)"
         id="g3752"
         transform="matrix(0.352778,0,0,0.352778,0,-7.71698e-5)">
        <path
           fill="none"
           stroke-width="0.398"
           stroke-linecap="butt"
           stroke-linejoin="miter"
           stroke="#000000"
           stroke-opacity="1"
           stroke-miterlimit="10"
           d="M 0,-0.00109375 H 15.230469"
           transform="matrix(1,0,0,-1,0,14.745)"
           id="path3750" />
      </g>
    </g>
    <g
       inkscape:label=""
       transform="translate(70.556034,53.387439)"
       id="g3987">
      <g
         fill="#000000"
         fill-opacity="1"
         id="g3974"
         transform="matrix(0.352778,0,0,0.352778,-0.170877,-0.0044978)">
        <g
           id="use21"
           transform="translate(0,8.1689997)">
          <path
             d="m 4.40625,-7.28125 c 0.09375,-0.421875 0.125,-0.53125 1,-0.53125 0.265625,0 0.359375,0 0.359375,-0.234375 0,-0.109375 -0.140625,-0.109375 -0.171875,-0.109375 -0.21875,0 -0.484375,0.015625 -0.6875,0.015625 H 3.4375 c -0.25,0 -0.515625,-0.015625 -0.765625,-0.015625 -0.09375,0 -0.21875,0 -0.21875,0.21875 0,0.125 0.09375,0.125 0.328125,0.125 0.75,0 0.75,0.09375 0.75,0.21875 0,0.09375 -0.03125,0.15625 -0.046875,0.265625 l -1.625,6.4375 c -0.109375,0.421875 -0.125,0.546875 -1,0.546875 -0.265625,0 -0.375,0 -0.375,0.21875 0,0.125 0.125,0.125 0.1875,0.125 0.21875,0 0.46875,-0.03125 0.6875,-0.03125 h 1.46875 c 0.25,0 0.5,0.03125 0.75,0.03125 0.09375,0 0.234375,0 0.234375,-0.21875 0,-0.125 -0.078125,-0.125 -0.328125,-0.125 -0.75,0 -0.75,-0.09375 -0.75,-0.234375 0,-0.03125 0,-0.09375 0.046875,-0.28125 z m 0,0"
             id="path41" />
        </g>
      </g>
      <g
         clip-path="url(#clipPath7634)"
         id="g29"
         transform="matrix(0.352778,0,0,0.352778,-0.170877,-0.0044978)">
        <g
           fill="#000000"
           fill-opacity="1"
           id="g3979">
          <g
             id="use25"
             transform="translate(5.1630001,10.178)">
            <path
               d="M 2.8125,-3.03125 H 3.734375 C 4.375,-3.03125 4.5,-2.921875 4.5,-2.625 c 0,0.0625 -0.03125,0.25 -0.0625,0.40625 -0.015625,0.046875 -0.03125,0.09375 -0.03125,0.125 0,0 0,0.109375 0.125,0.109375 0.109375,0 0.109375,-0.0625 0.15625,-0.1875 L 5.15625,-4.0625 C 5.1875,-4.1875 5.1875,-4.203125 5.1875,-4.25 c 0,-0.0625 -0.046875,-0.109375 -0.125,-0.109375 -0.09375,0 -0.109375,0.046875 -0.140625,0.21875 -0.1875,0.71875 -0.46875,0.828125 -1.1875,0.828125 h -0.84375 c 0.125,-0.546875 0.546875,-2.25 0.59375,-2.359375 0.0625,-0.125 0.125,-0.15625 0.421875,-0.15625 h 1.3125 c 1.125,0 1.375,0.28125 1.375,1 0,0.28125 -0.046875,0.546875 -0.046875,0.609375 0,0.078125 0.046875,0.140625 0.125,0.140625 0.109375,0 0.125,-0.0625 0.140625,-0.234375 L 7,-5.96875 c 0,-0.125 -0.09375,-0.125 -0.265625,-0.125 h -4.625 c -0.15625,0 -0.265625,0 -0.265625,0.15625 0,0.109375 0.09375,0.109375 0.28125,0.109375 0.03125,0 0.203125,0 0.34375,0.03125 0.1875,0.015625 0.203125,0.0625 0.203125,0.140625 0,0.03125 0,0.046875 -0.046875,0.203125 L 1.4375,-0.6875 c -0.078125,0.328125 -0.09375,0.40625 -0.78125,0.40625 -0.15625,0 -0.265625,0 -0.265625,0.171875 C 0.390625,0 0.484375,0 0.640625,0 H 5.375 c 0.171875,0 0.1875,0 0.21875,-0.03125 0.015625,-0.015625 0.03125,-0.015625 0.078125,-0.140625 0.109375,-0.234375 0.875,-1.9375 0.875,-2.03125 0,-0.0625 -0.046875,-0.109375 -0.125,-0.109375 -0.078125,0 -0.078125,0 -0.171875,0.21875 -0.5625,1.25 -0.9375,1.8125 -2.421875,1.8125 h -1.375 c -0.125,0 -0.140625,0 -0.171875,0 -0.09375,-0.015625 -0.125,-0.03125 -0.125,-0.09375 0,-0.015625 0,-0.03125 0.046875,-0.203125 z m 0,0"
               id="path3976" />
          </g>
        </g>
      </g>
      <g
         clip-path="url(#clipPath6471)"
         id="g3985"
         transform="matrix(0.352778,0,0,0.352778,-0.170877,-0.0044978)">
        <g
           fill="#000000"
           fill-opacity="1"
           id="g33">
          <g
             id="use31"
             transform="translate(12.455373,10.178)">
            <path
               d="m 1.6875,-1.40625 c 0.109375,-0.421875 0.28125,-1.078125 0.28125,-1.15625 0.015625,-0.046875 0.25,-0.484375 0.5625,-0.796875 0.265625,-0.234375 0.609375,-0.375 0.953125,-0.375 0.484375,0 0.484375,0.46875 0.484375,0.625 0,0.546875 -0.421875,1.640625 -0.515625,1.921875 C 3.34375,-0.921875 3.3125,-0.828125 3.3125,-0.65625 c 0,0.484375 0.359375,0.75 0.765625,0.75 0.859375,0 1.21875,-1.28125 1.21875,-1.375 0,-0.046875 -0.03125,-0.109375 -0.125,-0.109375 -0.09375,0 -0.109375,0.046875 -0.140625,0.15625 C 4.8125,-0.46875 4.4375,-0.125 4.109375,-0.125 c -0.0625,0 -0.21875,0 -0.21875,-0.28125 0,-0.234375 0.078125,-0.46875 0.15625,-0.65625 0.171875,-0.46875 0.53125,-1.40625 0.53125,-1.921875 0,-0.796875 -0.59375,-0.984375 -1.0625,-0.984375 C 2.6875,-3.96875 2.25,-3.375 2.09375,-3.1875 2.046875,-3.671875 1.671875,-3.96875 1.234375,-3.96875 c -0.375,0 -0.578125,0.28125 -0.703125,0.53125 -0.140625,0.3125 -0.265625,0.8125 -0.265625,0.859375 0,0.078125 0.0625,0.109375 0.125,0.109375 0.09375,0 0.109375,-0.046875 0.15625,-0.234375 0.171875,-0.703125 0.359375,-1.03125 0.65625,-1.03125 0.28125,0 0.28125,0.28125 0.28125,0.421875 0,0.1875 -0.078125,0.453125 -0.125,0.6875 -0.0625,0.234375 -0.15625,0.625 -0.1875,0.734375 L 0.8125,-0.421875 C 0.75,-0.203125 0.75,-0.1875 0.75,-0.15625 c 0,0.109375 0.078125,0.25 0.265625,0.25 0.125,0 0.265625,-0.078125 0.328125,-0.1875 C 1.375,-0.140625 1.4375,-0.4375 1.484375,-0.609375 Z m 0,0"
               id="path49" />
          </g>
        </g>
      </g>
    </g>
    <g
       inkscape:label=""
       transform="translate(70.556034,75.619395)"
       id="g4241">
      <g
         fill="#000000"
         fill-opacity="1"
         id="g20"
         transform="matrix(0.352778,0,0,0.352778,-0.170877,-0.0044978)">
        <g
           id="use18"
           transform="translate(0,8.1689997)">
          <path
             d="m 4.40625,-7.28125 c 0.09375,-0.421875 0.125,-0.53125 1,-0.53125 0.265625,0 0.359375,0 0.359375,-0.234375 0,-0.109375 -0.140625,-0.109375 -0.171875,-0.109375 -0.21875,0 -0.484375,0.015625 -0.6875,0.015625 H 3.4375 c -0.25,0 -0.515625,-0.015625 -0.765625,-0.015625 -0.09375,0 -0.21875,0 -0.21875,0.21875 0,0.125 0.09375,0.125 0.328125,0.125 0.75,0 0.75,0.09375 0.75,0.21875 0,0.09375 -0.03125,0.15625 -0.046875,0.265625 l -1.625,6.4375 c -0.109375,0.421875 -0.125,0.546875 -1,0.546875 -0.265625,0 -0.375,0 -0.375,0.21875 0,0.125 0.125,0.125 0.1875,0.125 0.21875,0 0.46875,-0.03125 0.6875,-0.03125 h 1.46875 c 0.25,0 0.5,0.03125 0.75,0.03125 0.09375,0 0.234375,0 0.234375,-0.21875 0,-0.125 -0.078125,-0.125 -0.328125,-0.125 -0.75,0 -0.75,-0.09375 -0.75,-0.234375 0,-0.03125 0,-0.09375 0.046875,-0.28125 z m 0,0"
             id="path36" />
        </g>
      </g>
      <g
         fill="#000000"
         fill-opacity="1"
         id="g24"
         transform="matrix(0.352778,0,0,0.352778,-0.170877,-0.0044978)">
        <g
           id="use22"
           transform="translate(5.1630001,10.179)">
          <path
             d="M 2.8125,-3.03125 H 3.734375 C 4.375,-3.03125 4.5,-2.921875 4.5,-2.625 c 0,0.0625 -0.03125,0.25 -0.0625,0.40625 -0.015625,0.046875 -0.03125,0.09375 -0.03125,0.125 0,0 0,0.109375 0.125,0.109375 0.109375,0 0.109375,-0.0625 0.15625,-0.1875 L 5.15625,-4.0625 C 5.1875,-4.1875 5.1875,-4.203125 5.1875,-4.25 c 0,-0.0625 -0.046875,-0.109375 -0.125,-0.109375 -0.09375,0 -0.109375,0.046875 -0.140625,0.21875 -0.1875,0.71875 -0.46875,0.828125 -1.1875,0.828125 h -0.84375 c 0.125,-0.546875 0.546875,-2.25 0.59375,-2.359375 0.0625,-0.125 0.125,-0.15625 0.421875,-0.15625 h 1.3125 c 1.125,0 1.375,0.28125 1.375,1 0,0.28125 -0.046875,0.546875 -0.046875,0.609375 0,0.078125 0.046875,0.140625 0.125,0.140625 0.109375,0 0.125,-0.0625 0.140625,-0.234375 L 7,-5.96875 c 0,-0.125 -0.09375,-0.125 -0.265625,-0.125 h -4.625 c -0.15625,0 -0.265625,0 -0.265625,0.15625 0,0.109375 0.09375,0.109375 0.28125,0.109375 0.03125,0 0.203125,0 0.34375,0.03125 0.1875,0.015625 0.203125,0.0625 0.203125,0.140625 0,0.03125 0,0.046875 -0.046875,0.203125 L 1.4375,-0.6875 c -0.078125,0.328125 -0.09375,0.40625 -0.78125,0.40625 -0.15625,0 -0.265625,0 -0.265625,0.171875 C 0.390625,0 0.484375,0 0.640625,0 H 5.375 c 0.171875,0 0.1875,0 0.21875,-0.03125 0.015625,-0.015625 0.03125,-0.015625 0.078125,-0.140625 0.109375,-0.234375 0.875,-1.9375 0.875,-2.03125 0,-0.0625 -0.046875,-0.109375 -0.125,-0.109375 -0.078125,0 -0.078125,0 -0.171875,0.21875 -0.5625,1.25 -0.9375,1.8125 -2.421875,1.8125 h -1.375 c -0.125,0 -0.140625,0 -0.171875,0 -0.09375,-0.015625 -0.125,-0.03125 -0.125,-0.09375 0,-0.015625 0,-0.03125 0.046875,-0.203125 z m 0,0"
             id="path40" />
        </g>
      </g>
      <g
         clip-path="url(#clipPath8934)"
         id="g30"
         transform="matrix(0.352778,0,0,0.352778,-0.170877,-0.0044978)">
        <g
           fill="#000000"
           fill-opacity="1"
           id="g28">
          <g
             id="use26"
             transform="translate(12.455373,10.179)">
            <path
               d="m 0.40625,1.125 c -0.0625,0.25 -0.078125,0.34375 -0.453125,0.34375 -0.109375,0 -0.21875,0 -0.21875,0.15625 0,0.03125 0.03125,0.109375 0.125,0.109375 l 0.375,-0.015625 c 0.0625,0 0.265625,0 0.390625,0 0.15625,0 0.3125,0 0.453125,0 0.15625,0 0.296875,0.015625 0.4375,0.015625 0.046875,0 0.171875,0 0.171875,-0.15625 0,-0.109375 -0.09375,-0.109375 -0.25,-0.109375 -0.421875,0 -0.421875,-0.0625 -0.421875,-0.15625 0,-0.046875 0.0625,-0.296875 0.109375,-0.4375 l 0.328125,-1.328125 c 0.09375,0.1875 0.34375,0.546875 0.859375,0.546875 1.046875,0 2.1875,-1.265625 2.1875,-2.609375 0,-0.90625 -0.5625,-1.453125 -1.234375,-1.453125 -0.1875,0 -0.640625,0.046875 -1.1875,0.65625 -0.125,-0.5 -0.546875,-0.65625 -0.84375,-0.65625 -0.375,0 -0.578125,0.28125 -0.703125,0.53125 -0.140625,0.3125 -0.265625,0.8125 -0.265625,0.859375 0,0.078125 0.0625,0.109375 0.125,0.109375 0.09375,0 0.109375,-0.046875 0.15625,-0.234375 0.171875,-0.703125 0.359375,-1.03125 0.65625,-1.03125 0.28125,0 0.28125,0.28125 0.28125,0.421875 0,0.0625 -0.015625,0.203125 -0.03125,0.265625 z m 1.625,-3.890625 C 2.078125,-2.9375 2.078125,-2.953125 2.203125,-3.09375 2.4375,-3.40625 2.84375,-3.734375 3.25,-3.734375 c 0.421875,0 0.59375,0.421875 0.59375,0.84375 C 3.84375,-2.5 3.59375,-1.375 3.3125,-0.90625 3,-0.390625 2.625,-0.125 2.296875,-0.125 1.71875,-0.125 1.5625,-0.828125 1.5625,-0.890625 1.5625,-0.953125 1.59375,-1 1.59375,-1.046875 Z m 0,0"
               id="path44" />
          </g>
        </g>
      </g>
    </g>
    <g
       inkscape:label=""
       transform="translate(113.96877,62.388004)"
       id="g4532">
      <g
         fill="#000000"
         fill-opacity="1"
         id="g4514"
         transform="matrix(0.352778,0,0,0.352778,-0.170877,-0.0044978)">
        <g
           id="g4512"
           transform="translate(0,8.1689997)">
          <path
             d="m 4.40625,-7.28125 c 0.09375,-0.421875 0.125,-0.53125 1,-0.53125 0.265625,0 0.359375,0 0.359375,-0.234375 0,-0.109375 -0.140625,-0.109375 -0.171875,-0.109375 -0.21875,0 -0.484375,0.015625 -0.6875,0.015625 H 3.4375 c -0.25,0 -0.515625,-0.015625 -0.765625,-0.015625 -0.09375,0 -0.21875,0 -0.21875,0.21875 0,0.125 0.09375,0.125 0.328125,0.125 0.75,0 0.75,0.09375 0.75,0.21875 0,0.09375 -0.03125,0.15625 -0.046875,0.265625 l -1.625,6.4375 c -0.109375,0.421875 -0.125,0.546875 -1,0.546875 -0.265625,0 -0.375,0 -0.375,0.21875 0,0.125 0.125,0.125 0.1875,0.125 0.21875,0 0.46875,-0.03125 0.6875,-0.03125 h 1.46875 c 0.25,0 0.5,0.03125 0.75,0.03125 0.09375,0 0.234375,0 0.234375,-0.21875 0,-0.125 -0.078125,-0.125 -0.328125,-0.125 -0.75,0 -0.75,-0.09375 -0.75,-0.234375 0,-0.03125 0,-0.09375 0.046875,-0.28125 z m 0,0"
             id="path4510" />
        </g>
      </g>
      <g
         clip-path="url(#clipPath1154)"
         id="g4522"
         transform="matrix(0.352778,0,0,0.352778,-0.170877,-0.0044978)">
        <g
           fill="#000000"
           fill-opacity="1"
           id="g4520">
          <g
             id="g4518"
             transform="translate(5.1630001,10.178)">
            <path
               d="m 6.9375,-6.078125 c 0.03125,-0.109375 0.03125,-0.125 0.03125,-0.140625 0,-0.015625 -0.015625,-0.109375 -0.109375,-0.109375 -0.046875,0 -0.078125,0.03125 -0.140625,0.109375 L 6.171875,-5.625 c -0.03125,0.046875 -0.078125,0.078125 -0.078125,0.078125 -0.015625,0 -0.015625,0 -0.078125,-0.0625 -0.125,-0.1875 -0.53125,-0.71875 -1.46875,-0.71875 -2.046875,0 -4.09375,2 -4.09375,4.046875 0,1.453125 1.078125,2.484375 2.515625,2.484375 0.9375,0 1.671875,-0.484375 2.015625,-0.796875 0.8125,-0.734375 0.96875,-1.515625 0.96875,-1.5625 0,-0.03125 -0.015625,-0.09375 -0.125,-0.09375 -0.09375,0 -0.109375,0.046875 -0.125,0.09375 -0.4375,1.4375 -1.71875,2.078125 -2.625,2.078125 -0.859375,0 -1.78125,-0.53125 -1.78125,-1.890625 0,-0.40625 0.125,-1.8125 1.03125,-2.921875 C 2.875,-5.53125 3.75,-6.046875 4.609375,-6.046875 c 1,0 1.53125,0.765625 1.53125,1.75 0,0.3125 -0.03125,0.375 -0.03125,0.4375 0,0.09375 0.109375,0.09375 0.140625,0.09375 0.109375,0 0.109375,-0.015625 0.15625,-0.1875 z m 0,0"
               id="path4516" />
          </g>
        </g>
      </g>
      <g
         clip-path="url(#clipPath7777)"
         id="g4530"
         transform="matrix(0.352778,0,0,0.352778,-0.170877,-0.0044978)">
        <g
           fill="#000000"
           fill-opacity="1"
           id="g4528">
          <g
             id="g4526"
             transform="translate(12.377365,10.178)">
            <path
               d="m 1.6875,-1.40625 c 0.109375,-0.421875 0.28125,-1.078125 0.28125,-1.15625 0.015625,-0.046875 0.25,-0.484375 0.5625,-0.796875 0.265625,-0.234375 0.609375,-0.375 0.953125,-0.375 0.484375,0 0.484375,0.46875 0.484375,0.625 0,0.546875 -0.421875,1.640625 -0.515625,1.921875 C 3.34375,-0.921875 3.3125,-0.828125 3.3125,-0.65625 c 0,0.484375 0.359375,0.75 0.765625,0.75 0.859375,0 1.21875,-1.28125 1.21875,-1.375 0,-0.046875 -0.03125,-0.109375 -0.125,-0.109375 -0.09375,0 -0.109375,0.046875 -0.140625,0.15625 C 4.8125,-0.46875 4.4375,-0.125 4.109375,-0.125 c -0.0625,0 -0.21875,0 -0.21875,-0.28125 0,-0.234375 0.078125,-0.46875 0.15625,-0.65625 0.171875,-0.46875 0.53125,-1.40625 0.53125,-1.921875 0,-0.796875 -0.59375,-0.984375 -1.0625,-0.984375 C 2.6875,-3.96875 2.25,-3.375 2.09375,-3.1875 2.046875,-3.671875 1.671875,-3.96875 1.234375,-3.96875 c -0.375,0 -0.578125,0.28125 -0.703125,0.53125 -0.140625,0.3125 -0.265625,0.8125 -0.265625,0.859375 0,0.078125 0.0625,0.109375 0.125,0.109375 0.09375,0 0.109375,-0.046875 0.15625,-0.234375 0.171875,-0.703125 0.359375,-1.03125 0.65625,-1.03125 0.28125,0 0.28125,0.28125 0.28125,0.421875 0,0.1875 -0.078125,0.453125 -0.125,0.6875 -0.0625,0.234375 -0.15625,0.625 -0.1875,0.734375 L 0.8125,-0.421875 C 0.75,-0.203125 0.75,-0.1875 0.75,-0.15625 c 0,0.109375 0.078125,0.25 0.265625,0.25 0.125,0 0.265625,-0.078125 0.328125,-0.1875 C 1.375,-0.140625 1.4375,-0.4375 1.484375,-0.609375 Z m 0,0"
               id="path4524" />
          </g>
        </g>
      </g>
    </g>
    <g
       inkscape:label=""
       transform="translate(115.07361,78.385941)"
       id="g4854">
      <g
         fill="#000000"
         fill-opacity="1"
         id="g4838"
         transform="matrix(0.352778,0,0,0.352778,-0.170877,-0.0044978)">
        <g
           id="g4836"
           transform="translate(0,8.1689997)">
          <path
             d="m 4.40625,-7.28125 c 0.09375,-0.421875 0.125,-0.53125 1,-0.53125 0.265625,0 0.359375,0 0.359375,-0.234375 0,-0.109375 -0.140625,-0.109375 -0.171875,-0.109375 -0.21875,0 -0.484375,0.015625 -0.6875,0.015625 H 3.4375 c -0.25,0 -0.515625,-0.015625 -0.765625,-0.015625 -0.09375,0 -0.21875,0 -0.21875,0.21875 0,0.125 0.09375,0.125 0.328125,0.125 0.75,0 0.75,0.09375 0.75,0.21875 0,0.09375 -0.03125,0.15625 -0.046875,0.265625 l -1.625,6.4375 c -0.109375,0.421875 -0.125,0.546875 -1,0.546875 -0.265625,0 -0.375,0 -0.375,0.21875 0,0.125 0.125,0.125 0.1875,0.125 0.21875,0 0.46875,-0.03125 0.6875,-0.03125 h 1.46875 c 0.25,0 0.5,0.03125 0.75,0.03125 0.09375,0 0.234375,0 0.234375,-0.21875 0,-0.125 -0.078125,-0.125 -0.328125,-0.125 -0.75,0 -0.75,-0.09375 -0.75,-0.234375 0,-0.03125 0,-0.09375 0.046875,-0.28125 z m 0,0"
             id="path4834" />
        </g>
      </g>
      <g
         fill="#000000"
         fill-opacity="1"
         id="g4844"
         transform="matrix(0.352778,0,0,0.352778,-0.170877,-0.0044978)">
        <g
           id="g4842"
           transform="translate(5.1630001,10.179)">
          <path
             d="m 6.9375,-6.078125 c 0.03125,-0.109375 0.03125,-0.125 0.03125,-0.140625 0,-0.015625 -0.015625,-0.109375 -0.109375,-0.109375 -0.046875,0 -0.078125,0.03125 -0.140625,0.109375 L 6.171875,-5.625 c -0.03125,0.046875 -0.078125,0.078125 -0.078125,0.078125 -0.015625,0 -0.015625,0 -0.078125,-0.0625 -0.125,-0.1875 -0.53125,-0.71875 -1.46875,-0.71875 -2.046875,0 -4.09375,2 -4.09375,4.046875 0,1.453125 1.078125,2.484375 2.515625,2.484375 0.9375,0 1.671875,-0.484375 2.015625,-0.796875 0.8125,-0.734375 0.96875,-1.515625 0.96875,-1.5625 0,-0.03125 -0.015625,-0.09375 -0.125,-0.09375 -0.09375,0 -0.109375,0.046875 -0.125,0.09375 -0.4375,1.4375 -1.71875,2.078125 -2.625,2.078125 -0.859375,0 -1.78125,-0.53125 -1.78125,-1.890625 0,-0.40625 0.125,-1.8125 1.03125,-2.921875 C 2.875,-5.53125 3.75,-6.046875 4.609375,-6.046875 c 1,0 1.53125,0.765625 1.53125,1.75 0,0.3125 -0.03125,0.375 -0.03125,0.4375 0,0.09375 0.109375,0.09375 0.140625,0.09375 0.109375,0 0.109375,-0.015625 0.15625,-0.1875 z m 0,0"
             id="path4840" />
        </g>
      </g>
      <g
         clip-path="url(#clipPath7930)"
         id="g4852"
         transform="matrix(0.352778,0,0,0.352778,-0.170877,-0.0044978)">
        <g
           fill="#000000"
           fill-opacity="1"
           id="g4850">
          <g
             id="g4848"
             transform="translate(12.377365,10.179)">
            <path
               d="m 0.40625,1.125 c -0.0625,0.25 -0.078125,0.34375 -0.453125,0.34375 -0.109375,0 -0.21875,0 -0.21875,0.15625 0,0.03125 0.03125,0.109375 0.125,0.109375 l 0.375,-0.015625 c 0.0625,0 0.265625,0 0.390625,0 0.15625,0 0.3125,0 0.453125,0 0.15625,0 0.296875,0.015625 0.4375,0.015625 0.046875,0 0.171875,0 0.171875,-0.15625 0,-0.109375 -0.09375,-0.109375 -0.25,-0.109375 -0.421875,0 -0.421875,-0.0625 -0.421875,-0.15625 0,-0.046875 0.0625,-0.296875 0.109375,-0.4375 l 0.328125,-1.328125 c 0.09375,0.1875 0.34375,0.546875 0.859375,0.546875 1.046875,0 2.1875,-1.265625 2.1875,-2.609375 0,-0.90625 -0.5625,-1.453125 -1.234375,-1.453125 -0.1875,0 -0.640625,0.046875 -1.1875,0.65625 -0.125,-0.5 -0.546875,-0.65625 -0.84375,-0.65625 -0.375,0 -0.578125,0.28125 -0.703125,0.53125 -0.140625,0.3125 -0.265625,0.8125 -0.265625,0.859375 0,0.078125 0.0625,0.109375 0.125,0.109375 0.09375,0 0.109375,-0.046875 0.15625,-0.234375 0.171875,-0.703125 0.359375,-1.03125 0.65625,-1.03125 0.28125,0 0.28125,0.28125 0.28125,0.421875 0,0.0625 -0.015625,0.203125 -0.03125,0.265625 z m 1.625,-3.890625 C 2.078125,-2.9375 2.078125,-2.953125 2.203125,-3.09375 2.4375,-3.40625 2.84375,-3.734375 3.25,-3.734375 c 0.421875,0 0.59375,0.421875 0.59375,0.84375 C 3.84375,-2.5 3.59375,-1.375 3.3125,-0.90625 3,-0.390625 2.625,-0.125 2.296875,-0.125 1.71875,-0.125 1.5625,-0.828125 1.5625,-0.890625 1.5625,-0.953125 1.59375,-1 1.59375,-1.046875 Z m 0,0"
               id="path4846" />
          </g>
        </g>
      </g>
    </g>
    <g
       inkscape:label=""
       transform="translate(72.909385,31.881556)"
       id="g6273">
      <g
         clip-path="url(#clipPath972)"
         id="g26"
         transform="matrix(0.352778,0,0,0.352778,0,-7.71698e-5)">
        <path
           fill="none"
           stroke-width="0.398"
           stroke-linecap="butt"
           stroke-linejoin="miter"
           stroke="#000000"
           stroke-opacity="1"
           stroke-miterlimit="10"
           d="M 0,-2.1875e-4 H 24.65625"
           transform="matrix(1,0,0,-1,0,0.199)"
           id="path24" />
      </g>
      <g
         clip-path="url(#clipPath1264)"
         id="g6262"
         transform="matrix(0.352778,0,0,0.352778,0,-7.71698e-5)">
        <path
           fill="none"
           stroke-width="0.398"
           stroke-linecap="butt"
           stroke-linejoin="miter"
           stroke="#000000"
           stroke-opacity="1"
           stroke-miterlimit="10"
           d="M 2.1875e-4,-0.0019375 V 15.060563"
           transform="matrix(1,0,0,-1,0.199,15.459)"
           id="path28" />
      </g>
      <g
         fill="#000000"
         fill-opacity="1"
         id="g36"
         transform="matrix(0.352778,0,0,0.352778,0,-7.71698e-5)">
        <g
           id="use32"
           transform="translate(3.3870001,11.557)">
          <path
             d="M 2.703125,-8 C 2.59375,-8.15625 2.578125,-8.15625 2.3125,-8.15625 H 0.484375 v 0.34375 c 0.515625,0 0.8125,0 1.140625,0.078125 V -1.25 c 0,0.34375 0,0.90625 -1.140625,0.90625 V 0 c 0.3125,-0.03125 0.953125,-0.03125 1.28125,-0.03125 0.34375,0 0.96875,0 1.28125,0.03125 V -0.34375 C 1.90625,-0.34375 1.90625,-0.90625 1.90625,-1.25 v -6.296875 c 0.109375,0.09375 0.109375,0.125 0.203125,0.265625 L 6.78125,-0.171875 C 6.890625,-0.015625 6.90625,0 7,0 7.09375,0 7.125,-0.046875 7.140625,-0.078125 V -6.90625 c 0,-0.34375 0,-0.90625 1.125,-0.90625 V -8.15625 C 7.953125,-8.140625 7.328125,-8.140625 7,-8.140625 c -0.34375,0 -0.96875,0 -1.28125,-0.015625 v 0.34375 c 1.125,0 1.125,0.5625 1.125,0.90625 v 5.21875 z m 0,0"
             id="path50" />
        </g>
        <g
           id="use34"
           transform="translate(12.162117,11.557)">
          <path
             d="M 4.765625,-2.765625 H 8.0625 c 0.171875,0 0.390625,0 0.390625,-0.203125 0,-0.234375 -0.203125,-0.234375 -0.390625,-0.234375 H 4.765625 V -6.5 c 0,-0.171875 0,-0.390625 -0.21875,-0.390625 -0.21875,0 -0.21875,0.203125 -0.21875,0.390625 v 3.296875 H 1.03125 c -0.171875,0 -0.390625,0 -0.390625,0.21875 0,0.21875 0.203125,0.21875 0.390625,0.21875 H 4.328125 V 0.53125 c 0,0.171875 0,0.390625 0.21875,0.390625 0.21875,0 0.21875,-0.203125 0.21875,-0.390625 z m 0,0"
             id="path54" />
        </g>
      </g>
      <g
         clip-path="url(#clipPath3344)"
         id="g40"
         transform="matrix(0.352778,0,0,0.352778,0,-7.71698e-5)">
        <path
           fill="none"
           stroke-width="0.398"
           stroke-linecap="butt"
           stroke-linejoin="miter"
           stroke="#000000"
           stroke-opacity="1"
           stroke-miterlimit="10"
           d="M -0.001875,-0.0019375 V 15.060563"
           transform="matrix(1,0,0,-1,24.455,15.459)"
           id="path38" />
      </g>
      <g
         clip-path="url(#clipPath9433)"
         id="g44"
         transform="matrix(0.352778,0,0,0.352778,0,-7.71698e-5)">
        <path
           fill="none"
           stroke-width="0.398"
           stroke-linecap="butt"
           stroke-linejoin="miter"
           stroke="#000000"
           stroke-opacity="1"
           stroke-miterlimit="10"
           d="M 0,0.00175 H 24.65625"
           transform="matrix(1,0,0,-1,0,15.658)"
           id="path42" />
      </g>
    </g>
    <g
       inkscape:label=""
       transform="matrix(1.0613033,0,0,1.0613033,81.607568,31.879434)"
       id="g6677">
      <g
         clip-path="url(#clipPath2927)"
         id="g6657"
         transform="matrix(0.352778,0,0,0.352778,0,-7.71698e-5)">
        <path
           fill="none"
           stroke-width="0.398"
           stroke-linecap="butt"
           stroke-linejoin="miter"
           stroke="#000000"
           stroke-opacity="1"
           stroke-miterlimit="10"
           d="M 0,-2.1875e-4 H 14.738281"
           transform="matrix(1,0,0,-1,0,0.199)"
           id="path6655" />
      </g>
      <g
         clip-path="url(#clipPath6144)"
         id="g6661"
         transform="matrix(0.352778,0,0,0.352778,0,-7.71698e-5)">
        <path
           fill="none"
           stroke-width="0.398"
           stroke-linecap="butt"
           stroke-linejoin="miter"
           stroke="#000000"
           stroke-opacity="1"
           stroke-miterlimit="10"
           d="M 2.1875e-4,-8.75e-4 V 14.147562"
           transform="matrix(1,0,0,-1,0.199,14.546)"
           id="path6659" />
      </g>
      <g
         fill="#000000"
         fill-opacity="1"
         id="g6667"
         transform="matrix(0.352778,0,0,0.352778,0,-7.71698e-5)">
        <g
           id="g6665"
           transform="translate(3.3870001,11.557)">
          <path
             d="M 2.609375,-3.796875 H 4.625 c 1.40625,0 2.671875,-0.953125 2.671875,-2.15625 0,-1.15625 -1.15625,-2.203125 -2.765625,-2.203125 H 0.5 v 0.34375 h 0.234375 c 0.875,0 0.90625,0.109375 0.90625,0.5625 v 6.34375 c 0,0.4375 -0.03125,0.5625 -0.90625,0.5625 H 0.5 V 0 c 0.28125,-0.03125 1.265625,-0.03125 1.609375,-0.03125 0.359375,0 1.34375,0 1.625,0.03125 V -0.34375 H 3.5 c -0.859375,0 -0.890625,-0.125 -0.890625,-0.5625 z M 2.578125,-4.09375 v -3.25 c 0,-0.390625 0.03125,-0.46875 0.546875,-0.46875 H 4.25 c 1.9375,0 1.9375,1.34375 1.9375,1.859375 0,0.5 0,1.859375 -1.9375,1.859375 z m 0,0"
             id="path6663" />
        </g>
      </g>
      <g
         clip-path="url(#clipPath7574)"
         id="g6671"
         transform="matrix(0.352778,0,0,0.352778,0,-7.71698e-5)">
        <path
           fill="none"
           stroke-width="0.398"
           stroke-linecap="butt"
           stroke-linejoin="miter"
           stroke="#000000"
           stroke-opacity="1"
           stroke-miterlimit="10"
           d="M -9.375e-4,-8.75e-4 V 14.147562"
           transform="matrix(1,0,0,-1,14.54,14.546)"
           id="path6669" />
      </g>
      <g
         clip-path="url(#clipPath6552)"
         id="g6675"
         transform="matrix(0.352778,0,0,0.352778,0,-7.71698e-5)">
        <path
           fill="none"
           stroke-width="0.398"
           stroke-linecap="butt"
           stroke-linejoin="miter"
           stroke="#000000"
           stroke-opacity="1"
           stroke-miterlimit="10"
           d="M 0,-0.00109375 H 14.738281"
           transform="matrix(1,0,0,-1,0,14.745)"
           id="path6673" />
      </g>
    </g>
    <g
       inkscape:label=""
       transform="matrix(1.057113,0,0,1.0613033,87.125646,31.879434)"
       id="g7119">
      <g
         clip-path="url(#clipPath1442)"
         id="g7099"
         transform="matrix(0.352778,0,0,0.352778,0,-7.71698e-5)">
        <path
           fill="none"
           stroke-width="0.398"
           stroke-linecap="butt"
           stroke-linejoin="miter"
           stroke="#000000"
           stroke-opacity="1"
           stroke-miterlimit="10"
           d="M 0,-2.1875e-4 H 15.550781"
           transform="matrix(1,0,0,-1,0,0.199)"
           id="path7097" />
      </g>
      <g
         clip-path="url(#clipPath295)"
         id="g7103"
         transform="matrix(0.352778,0,0,0.352778,0,-7.71698e-5)">
        <path
           fill="none"
           stroke-width="0.398"
           stroke-linecap="butt"
           stroke-linejoin="miter"
           stroke="#000000"
           stroke-opacity="1"
           stroke-miterlimit="10"
           d="M 2.1875e-4,-8.75e-4 V 14.147562"
           transform="matrix(1,0,0,-1,0.199,14.546)"
           id="path7101" />
      </g>
      <g
         fill="#000000"
         fill-opacity="1"
         id="g7109"
         transform="matrix(0.352778,0,0,0.352778,0,-7.71698e-5)">
        <g
           id="g7107"
           transform="translate(3.3870001,11.557)">
          <path
             d="M 2.703125,-8 C 2.59375,-8.15625 2.578125,-8.15625 2.3125,-8.15625 H 0.484375 v 0.34375 c 0.515625,0 0.8125,0 1.140625,0.078125 V -1.25 c 0,0.34375 0,0.90625 -1.140625,0.90625 V 0 c 0.3125,-0.03125 0.953125,-0.03125 1.28125,-0.03125 0.34375,0 0.96875,0 1.28125,0.03125 V -0.34375 C 1.90625,-0.34375 1.90625,-0.90625 1.90625,-1.25 v -6.296875 c 0.109375,0.09375 0.109375,0.125 0.203125,0.265625 L 6.78125,-0.171875 C 6.890625,-0.015625 6.90625,0 7,0 7.09375,0 7.125,-0.046875 7.140625,-0.078125 V -6.90625 c 0,-0.34375 0,-0.90625 1.125,-0.90625 V -8.15625 C 7.953125,-8.140625 7.328125,-8.140625 7,-8.140625 c -0.34375,0 -0.96875,0 -1.28125,-0.015625 v 0.34375 c 1.125,0 1.125,0.5625 1.125,0.90625 v 5.21875 z m 0,0"
             id="path7105" />
        </g>
      </g>
      <g
         clip-path="url(#clipPath4493)"
         id="g7113"
         transform="matrix(0.352778,0,0,0.352778,0,-7.71698e-5)">
        <path
           fill="none"
           stroke-width="0.398"
           stroke-linecap="butt"
           stroke-linejoin="miter"
           stroke="#000000"
           stroke-opacity="1"
           stroke-miterlimit="10"
           d="M 5.625e-4,-8.75e-4 V 14.147562"
           transform="matrix(1,0,0,-1,15.351,14.546)"
           id="path7111" />
      </g>
      <g
         clip-path="url(#clipPath5510)"
         id="g7117"
         transform="matrix(0.352778,0,0,0.352778,0,-7.71698e-5)">
        <path
           fill="none"
           stroke-width="0.398"
           stroke-linecap="butt"
           stroke-linejoin="miter"
           stroke="#000000"
           stroke-opacity="1"
           stroke-miterlimit="10"
           d="M 0,-0.00109375 H 15.550781"
           transform="matrix(1,0,0,-1,0,14.745)"
           id="path7115" />
      </g>
    </g>
    <rect
       style="font-variation-settings:normal;opacity:1;vector-effect:none;fill:#2e3440;fill-opacity:1;fill-rule:evenodd;stroke:#000000;stroke-width:0.3;stroke-linecap:round;stroke-linejoin:miter;stroke-miterlimit:2;stroke-dasharray:none;stroke-dashoffset:0;stroke-opacity:1;-inkscape-stroke:none;paint-order:stroke fill markers;stop-color:#000000;stop-opacity:1"
       id="rect7809"
       width="12.677779"
       height="2.797714"
       x="108.74892"
       y="31.879433" />
    <path
       style="fill:#2e3440;fill-rule:evenodd;stroke:#000000;stroke-width:0.3;stroke-linecap:round;stroke-linejoin:round;stroke-miterlimit:2;stroke-dasharray:none;stroke-dashoffset:0;stroke-opacity:1;marker-end:url(#marker8737)"
       d="m 112.57051,34.762373 -2.6952,2.6952"
       id="path7865" />
    <path
       style="fill:none;fill-rule:evenodd;stroke:#000000;stroke-width:0.3;stroke-linecap:round;stroke-linejoin:round;stroke-miterlimit:2;stroke-dasharray:none;stroke-dashoffset:0;stroke-opacity:1"
       d="m 117.91803,34.763429 2.61795,2.617952 h 3.71716"
       id="path8731" />
    <path
       style="fill:none;fill-rule:evenodd;stroke:#000000;stroke-width:0.3;stroke-linecap:round;stroke-linejoin:round;stroke-miterlimit:2;stroke-dasharray:none;stroke-dashoffset:0;stroke-opacity:1"
       d="m 109.87531,37.457573 h -3.6287"
       id="path8733" />
    <path
       style="fill:none;fill-rule:evenodd;stroke:#000000;stroke-width:0.3;stroke-linecap:round;stroke-linejoin:round;stroke-miterlimit:2;stroke-dasharray:none;stroke-dashoffset:0;stroke-opacity:1"
       d="M 115.37519,31.879431 V 28.770318"
       id="path8835" />
    <g
       inkscape:label=""
       transform="translate(117.3453,26.843529)"
       id="g9659">
      <g
         fill="#000000"
         fill-opacity="1"
         id="g17"
         transform="matrix(0.352778,0,0,0.352778,-0.115755,0.00754069)">
        <g
           id="use15"
           transform="translate(0,7.8379998)">
          <path
             d="m 3.375,-1.703125 c 0,-0.0625 -0.046875,-0.109375 -0.109375,-0.109375 -0.109375,0 -0.125,0.03125 -0.1875,0.234375 -0.3125,1.09375 -0.796875,1.453125 -1.1875,1.453125 -0.140625,0 -0.3125,-0.03125 -0.3125,-0.390625 0,-0.328125 0.140625,-0.671875 0.28125,-1.03125 L 2.6875,-3.78125 c 0.03125,-0.09375 0.125,-0.3125 0.125,-0.53125 0,-0.5 -0.359375,-0.953125 -0.953125,-0.953125 -1.09375,0 -1.53125,1.734375 -1.53125,1.828125 0,0.046875 0.046875,0.109375 0.125,0.109375 0.109375,0 0.125,-0.046875 0.171875,-0.21875 0.28125,-1 0.734375,-1.484375 1.203125,-1.484375 0.109375,0 0.3125,0.015625 0.3125,0.390625 0,0.3125 -0.15625,0.703125 -0.25,0.96875 l -0.84375,2.21875 C 0.984375,-1.25 0.90625,-1.0625 0.90625,-0.84375 c 0,0.53125 0.375,0.96875 0.953125,0.96875 1.09375,0 1.515625,-1.75 1.515625,-1.828125 z m -0.09375,-5.75 c 0,-0.1875 -0.140625,-0.40625 -0.40625,-0.40625 -0.265625,0 -0.578125,0.265625 -0.578125,0.578125 0,0.296875 0.25,0.390625 0.390625,0.390625 0.328125,0 0.59375,-0.3125 0.59375,-0.5625 z m 0,0"
             id="path29" />
        </g>
      </g>
      <g
         clip-path="url(#clipPath9069)"
         id="g9657"
         transform="matrix(0.352778,0,0,0.352778,-0.115755,0.00754069)">
        <g
           fill="#000000"
           fill-opacity="1"
           id="g21">
          <g
             id="use19"
             transform="translate(3.993,9.8470001)">
            <path
               d="M 1.46875,-0.6875 C 1.375,-0.359375 1.359375,-0.28125 0.6875,-0.28125 c -0.171875,0 -0.265625,0 -0.265625,0.171875 C 0.421875,0 0.515625,0 0.671875,0 H 3.9375 c 1.453125,0 2.515625,-1.0625 2.515625,-1.921875 0,-0.640625 -0.53125,-1.1875 -1.40625,-1.28125 C 6.0625,-3.40625 6.9375,-4.078125 6.9375,-4.875 c 0,-0.703125 -0.65625,-1.25 -1.71875,-1.25 h -3.0625 c -0.171875,0 -0.265625,0 -0.265625,0.15625 0,0.125 0.078125,0.125 0.265625,0.125 0.03125,0 0.1875,0 0.34375,0.015625 0.140625,0.015625 0.203125,0.03125 0.203125,0.140625 0,0.03125 0,0.078125 -0.03125,0.171875 z M 2.859375,-3.296875 3.40625,-5.5 C 3.484375,-5.828125 3.5,-5.84375 3.890625,-5.84375 H 5.09375 c 0.9375,0 1.015625,0.703125 1.015625,0.921875 0,0.8125 -0.828125,1.625 -1.84375,1.625 z M 2.4375,-0.28125 c -0.125,0 -0.15625,0 -0.1875,0 C 2.15625,-0.296875 2.140625,-0.3125 2.140625,-0.375 c 0,-0.015625 0,-0.03125 0.03125,-0.203125 l 0.625,-2.5 h 1.6875 c 0.5625,0 1.125,0.25 1.125,1.0625 0,0.890625 -0.8125,1.734375 -1.890625,1.734375 z m 0,0"
               id="path9653" />
          </g>
        </g>
      </g>
    </g>
    <g
       inkscape:label=""
       transform="translate(121.24339,38.772517)"
       id="g10157">
      <g
         fill="#000000"
         fill-opacity="1"
         id="g10147"
         transform="matrix(0.352778,0,0,0.352778,-0.115755,0.00754069)">
        <g
           id="g10145"
           transform="translate(0,7.8379998)">
          <path
             d="m 3.375,-1.703125 c 0,-0.0625 -0.046875,-0.109375 -0.109375,-0.109375 -0.109375,0 -0.125,0.03125 -0.1875,0.234375 -0.3125,1.09375 -0.796875,1.453125 -1.1875,1.453125 -0.140625,0 -0.3125,-0.03125 -0.3125,-0.390625 0,-0.328125 0.140625,-0.671875 0.28125,-1.03125 L 2.6875,-3.78125 c 0.03125,-0.09375 0.125,-0.3125 0.125,-0.53125 0,-0.5 -0.359375,-0.953125 -0.953125,-0.953125 -1.09375,0 -1.53125,1.734375 -1.53125,1.828125 0,0.046875 0.046875,0.109375 0.125,0.109375 0.109375,0 0.125,-0.046875 0.171875,-0.21875 0.28125,-1 0.734375,-1.484375 1.203125,-1.484375 0.109375,0 0.3125,0.015625 0.3125,0.390625 0,0.3125 -0.15625,0.703125 -0.25,0.96875 l -0.84375,2.21875 C 0.984375,-1.25 0.90625,-1.0625 0.90625,-0.84375 c 0,0.53125 0.375,0.96875 0.953125,0.96875 1.09375,0 1.515625,-1.75 1.515625,-1.828125 z m -0.09375,-5.75 c 0,-0.1875 -0.140625,-0.40625 -0.40625,-0.40625 -0.265625,0 -0.578125,0.265625 -0.578125,0.578125 0,0.296875 0.25,0.390625 0.390625,0.390625 0.328125,0 0.59375,-0.3125 0.59375,-0.5625 z m 0,0"
             id="path10143" />
        </g>
      </g>
      <g
         clip-path="url(#clipPath2421)"
         id="g10155"
         transform="matrix(0.352778,0,0,0.352778,-0.115755,0.00754069)">
        <g
           fill="#000000"
           fill-opacity="1"
           id="g10153">
          <g
             id="g10151"
             transform="translate(3.993,9.8470001)">
            <path
               d="M 2.8125,-3.03125 H 3.734375 C 4.375,-3.03125 4.5,-2.921875 4.5,-2.625 c 0,0.0625 -0.03125,0.25 -0.0625,0.40625 -0.015625,0.046875 -0.03125,0.09375 -0.03125,0.125 0,0 0,0.109375 0.125,0.109375 0.109375,0 0.109375,-0.0625 0.15625,-0.1875 L 5.15625,-4.0625 C 5.1875,-4.1875 5.1875,-4.203125 5.1875,-4.25 c 0,-0.0625 -0.046875,-0.109375 -0.125,-0.109375 -0.09375,0 -0.109375,0.046875 -0.140625,0.21875 -0.1875,0.71875 -0.46875,0.828125 -1.1875,0.828125 h -0.84375 c 0.125,-0.546875 0.546875,-2.25 0.59375,-2.359375 0.0625,-0.125 0.125,-0.15625 0.421875,-0.15625 h 1.3125 c 1.125,0 1.375,0.28125 1.375,1 0,0.28125 -0.046875,0.546875 -0.046875,0.609375 0,0.078125 0.046875,0.140625 0.125,0.140625 0.109375,0 0.125,-0.0625 0.140625,-0.234375 L 7,-5.96875 c 0,-0.125 -0.09375,-0.125 -0.265625,-0.125 h -4.625 c -0.15625,0 -0.265625,0 -0.265625,0.15625 0,0.109375 0.09375,0.109375 0.28125,0.109375 0.03125,0 0.203125,0 0.34375,0.03125 0.1875,0.015625 0.203125,0.0625 0.203125,0.140625 0,0.03125 0,0.046875 -0.046875,0.203125 L 1.4375,-0.6875 c -0.078125,0.328125 -0.09375,0.40625 -0.78125,0.40625 -0.15625,0 -0.265625,0 -0.265625,0.171875 C 0.390625,0 0.484375,0 0.640625,0 H 5.375 c 0.171875,0 0.1875,0 0.21875,-0.03125 0.015625,-0.015625 0.03125,-0.015625 0.078125,-0.140625 0.109375,-0.234375 0.875,-1.9375 0.875,-2.03125 0,-0.0625 -0.046875,-0.109375 -0.125,-0.109375 -0.078125,0 -0.078125,0 -0.171875,0.21875 -0.5625,1.25 -0.9375,1.8125 -2.421875,1.8125 h -1.375 c -0.125,0 -0.140625,0 -0.171875,0 -0.09375,-0.015625 -0.125,-0.03125 -0.125,-0.09375 0,-0.015625 0,-0.03125 0.046875,-0.203125 z m 0,0"
               id="path10149" />
          </g>
        </g>
      </g>
    </g>
    <g
       inkscape:label=""
       transform="translate(106.18531,38.813687)"
       id="g10675">
      <g
         fill="#000000"
         fill-opacity="1"
         id="g10665"
         transform="matrix(0.352778,0,0,0.352778,-0.115755,0.00754069)">
        <g
           id="g10663"
           transform="translate(0,7.8379998)">
          <path
             d="m 3.375,-1.703125 c 0,-0.0625 -0.046875,-0.109375 -0.109375,-0.109375 -0.109375,0 -0.125,0.03125 -0.1875,0.234375 -0.3125,1.09375 -0.796875,1.453125 -1.1875,1.453125 -0.140625,0 -0.3125,-0.03125 -0.3125,-0.390625 0,-0.328125 0.140625,-0.671875 0.28125,-1.03125 L 2.6875,-3.78125 c 0.03125,-0.09375 0.125,-0.3125 0.125,-0.53125 0,-0.5 -0.359375,-0.953125 -0.953125,-0.953125 -1.09375,0 -1.53125,1.734375 -1.53125,1.828125 0,0.046875 0.046875,0.109375 0.125,0.109375 0.109375,0 0.125,-0.046875 0.171875,-0.21875 0.28125,-1 0.734375,-1.484375 1.203125,-1.484375 0.109375,0 0.3125,0.015625 0.3125,0.390625 0,0.3125 -0.15625,0.703125 -0.25,0.96875 l -0.84375,2.21875 C 0.984375,-1.25 0.90625,-1.0625 0.90625,-0.84375 c 0,0.53125 0.375,0.96875 0.953125,0.96875 1.09375,0 1.515625,-1.75 1.515625,-1.828125 z m -0.09375,-5.75 c 0,-0.1875 -0.140625,-0.40625 -0.40625,-0.40625 -0.265625,0 -0.578125,0.265625 -0.578125,0.578125 0,0.296875 0.25,0.390625 0.390625,0.390625 0.328125,0 0.59375,-0.3125 0.59375,-0.5625 z m 0,0"
             id="path10661" />
        </g>
      </g>
      <g
         clip-path="url(#clipPath157)"
         id="g10673"
         transform="matrix(0.352778,0,0,0.352778,-0.115755,0.00754069)">
        <g
           fill="#000000"
           fill-opacity="1"
           id="g10671">
          <g
             id="g10669"
             transform="translate(3.993,9.8470001)">
            <path
               d="m 6.9375,-6.078125 c 0.03125,-0.109375 0.03125,-0.125 0.03125,-0.140625 0,-0.015625 -0.015625,-0.109375 -0.109375,-0.109375 -0.046875,0 -0.078125,0.03125 -0.140625,0.109375 L 6.171875,-5.625 c -0.03125,0.046875 -0.078125,0.078125 -0.078125,0.078125 -0.015625,0 -0.015625,0 -0.078125,-0.0625 -0.125,-0.1875 -0.53125,-0.71875 -1.46875,-0.71875 -2.046875,0 -4.09375,2 -4.09375,4.046875 0,1.453125 1.078125,2.484375 2.515625,2.484375 0.9375,0 1.671875,-0.484375 2.015625,-0.796875 0.8125,-0.734375 0.96875,-1.515625 0.96875,-1.5625 0,-0.03125 -0.015625,-0.09375 -0.125,-0.09375 -0.09375,0 -0.109375,0.046875 -0.125,0.09375 -0.4375,1.4375 -1.71875,2.078125 -2.625,2.078125 -0.859375,0 -1.78125,-0.53125 -1.78125,-1.890625 0,-0.40625 0.125,-1.8125 1.03125,-2.921875 C 2.875,-5.53125 3.75,-6.046875 4.609375,-6.046875 c 1,0 1.53125,0.765625 1.53125,1.75 0,0.3125 -0.03125,0.375 -0.03125,0.4375 0,0.09375 0.109375,0.09375 0.140625,0.09375 0.109375,0 0.109375,-0.015625 0.15625,-0.1875 z m 0,0"
               id="path10667" />
          </g>
        </g>
      </g>
    </g>
    <path
       style="fill:none;fill-rule:evenodd;stroke:#000000;stroke-width:0.30245;stroke-linecap:round;stroke-linejoin:round;stroke-miterlimit:2;stroke-dasharray:none;stroke-dashoffset:0;stroke-opacity:1;marker-end:url(#marker12705)"
       d="m 110.88265,38.861608 h -2.95008"
       id="path12423"
       sodipodi:nodetypes="cc" />
    <path
       style="fill:none;fill-rule:evenodd;stroke:#000000;stroke-width:0.30245;stroke-linecap:round;stroke-linejoin:round;stroke-miterlimit:2;stroke-dasharray:none;stroke-dashoffset:0;stroke-opacity:1;marker-end:url(#marker12705-3)"
       d="m 125.94731,38.817751 h -2.95008"
       id="path12423-7"
       sodipodi:nodetypes="cc" />
    <path
       style="fill:none;fill-rule:evenodd;stroke:#000000;stroke-width:0.30245;stroke-linecap:round;stroke-linejoin:round;stroke-miterlimit:2;stroke-dasharray:none;stroke-dashoffset:0;stroke-opacity:1;marker-end:url(#marker12705-5)"
       d="m 116.5574,27.700326 v 2.95008"
       id="path12423-5"
       sodipodi:nodetypes="cc" />
  </g>
</svg>
