<?xml version="1.0" encoding="UTF-8" standalone="no"?>
<!-- Created with Inkscape (http://www.inkscape.org/) -->

<svg
   width="40.04068mm"
   height="26.876705mm"
   viewBox="0 0 40.04068 26.876705"
   version="1.1"
   id="svg1"
   inkscape:version="1.3.1 (91b66b0783, 2023-11-16, custom)"
   sodipodi:docname="fermibose.svg"
   xmlns:inkscape="http://www.inkscape.org/namespaces/inkscape"
   xmlns:sodipodi="http://sodipodi.sourceforge.net/DTD/sodipodi-0.dtd"
   xmlns="http://www.w3.org/2000/svg"
   xmlns:svg="http://www.w3.org/2000/svg">
  <sodipodi:namedview
     id="namedview1"
     pagecolor="#505050"
     bordercolor="#eeeeee"
     borderopacity="1"
     inkscape:showpageshadow="0"
     inkscape:pageopacity="0"
     inkscape:pagecheckerboard="0"
     inkscape:deskcolor="#d1d1d1"
     inkscape:document-units="mm"
     showgrid="true"
     inkscape:zoom="5.8297419"
     inkscape:cx="78.219587"
     inkscape:cy="49.744913"
     inkscape:window-width="1908"
     inkscape:window-height="1066"
     inkscape:window-x="1924"
     inkscape:window-y="5"
     inkscape:window-maximized="1"
     inkscape:current-layer="layer1">
    <inkscape:grid
       id="grid1"
       units="px"
       originx="-21.15744"
       originy="-43.312296"
       spacingx="0.26458333"
       spacingy="0.26458334"
       empcolor="#0099e5"
       empopacity="0.30196078"
       color="#0099e5"
       opacity="0.14901961"
       empspacing="5"
       dotted="false"
       gridanglex="30"
       gridanglez="30"
       visible="true" />
  </sodipodi:namedview>
  <defs
     id="defs1">
    <marker
       style="overflow:visible"
       id="marker46"
       refX="0"
       refY="0"
       orient="auto-start-reverse"
       inkscape:stockid="Concave triangle arrow"
       markerWidth="1"
       markerHeight="1"
       viewBox="0 0 1 1"
       inkscape:isstock="true"
       inkscape:collect="always"
       preserveAspectRatio="xMidYMid">
      <path
         transform="scale(0.7)"
         d="M -2,-4 9,0 -2,4 c 2,-2.33 2,-5.66 0,-8 z"
         style="fill:context-stroke;fill-rule:evenodd;stroke:none"
         id="path46" />
    </marker>
    <marker
       style="overflow:visible"
       id="ConcaveTriangle"
       refX="0"
       refY="0"
       orient="auto-start-reverse"
       inkscape:stockid="Concave triangle arrow"
       markerWidth="1"
       markerHeight="1"
       viewBox="0 0 1 1"
       inkscape:isstock="true"
       inkscape:collect="always"
       preserveAspectRatio="xMidYMid">
      <path
         transform="scale(0.7)"
         d="M -2,-4 9,0 -2,4 c 2,-2.33 2,-5.66 0,-8 z"
         style="fill:context-stroke;fill-rule:evenodd;stroke:none"
         id="path45" />
    </marker>
  </defs>
  <g
     inkscape:label="Layer 1"
     inkscape:groupmode="layer"
     id="layer1"
     transform="translate(-21.15744,-43.312295)">
    <path
       style="fill:none;stroke:#000000;stroke-width:0.264583px;stroke-linecap:butt;stroke-linejoin:miter;stroke-opacity:1"
       d="m 22.489582,52.916669 h 2.645834"
       id="path67" />
    <path
       style="fill:none;stroke:#000000;stroke-width:0.264583px;stroke-linecap:butt;stroke-linejoin:miter;stroke-opacity:1;marker-start:url(#marker46);marker-end:url(#ConcaveTriangle)"
       d="M 23.812499,44.979168 V 66.145835 H 59.531248"
       id="path1"
       sodipodi:nodetypes="ccc" />
    <path
       style="fill:none;stroke:#5e81ac;stroke-width:0.264583px;stroke-linecap:butt;stroke-linejoin:miter;stroke-opacity:1"
       d="m 23.812499,52.916669 c 11.90625,-10e-7 12.896952,-0.689724 14.552083,6.614583 1.778336,7.848028 3.701766,6.614583 21.958016,6.614583"
       id="path2"
       sodipodi:nodetypes="csc" />
    <path
       style="fill:none;stroke:#000000;stroke-width:0.264583px;stroke-linecap:butt;stroke-linejoin:miter;stroke-opacity:1"
       d="m 38.364582,64.822918 v 2.645834"
       id="path3" />
    <g
       inkscape:label=""
       transform="translate(37.24837,67.42741)"
       id="g4">
      <g
         fill="#000000"
         fill-opacity="1"
         id="g2"
         transform="matrix(0.352778,0,0,0.352778,-0.818841,-0.661238)">
        <g
           id="use1"
           transform="translate(1.993,7.1399999)">
          <path
             d="M 1.71875,-0.265625 C 2.015625,0.015625 2.46875,0.125 2.875,0.125 3.640625,0.125 4.15625,-0.390625 4.4375,-0.765625 4.546875,-0.125 5.0625,0.125 5.46875,0.125 5.828125,0.125 6.125,-0.09375 6.328125,-0.53125 6.53125,-0.9375 6.6875,-1.65625 6.6875,-1.703125 c 0,-0.0625 -0.046875,-0.109375 -0.109375,-0.109375 -0.109375,0 -0.125,0.0625 -0.171875,0.234375 C 6.234375,-0.875 6,-0.125 5.515625,-0.125 c -0.359375,0 -0.375,-0.3125 -0.375,-0.546875 0,-0.265625 0.109375,-0.703125 0.1875,-1.0625 L 5.671875,-3.03125 C 5.71875,-3.25 5.84375,-3.796875 5.90625,-4 c 0.0625,-0.296875 0.203125,-0.8125 0.203125,-0.859375 0,-0.171875 -0.140625,-0.296875 -0.328125,-0.296875 -0.109375,0 -0.359375,0.046875 -0.453125,0.40625 L 4.5,-1.421875 C 4.4375,-1.1875 4.4375,-1.15625 4.28125,-0.96875 4.140625,-0.765625 3.671875,-0.125 2.921875,-0.125 2.25,-0.125 2.03125,-0.609375 2.03125,-1.171875 c 0,-0.34375 0.109375,-0.765625 0.15625,-0.96875 l 0.53125,-2.15625 C 2.78125,-4.515625 2.875,-4.90625 2.875,-4.96875 c 0,-0.1875 -0.15625,-0.296875 -0.3125,-0.296875 -0.09375,0 -0.359375,0.03125 -0.453125,0.40625 L 0.375,2.0625 C 0.359375,2.125 0.328125,2.203125 0.328125,2.265625 c 0,0.1875 0.15625,0.296875 0.328125,0.296875 0.34375,0 0.421875,-0.265625 0.5,-0.609375 z m 0,0"
             id="path4" />
        </g>
      </g>
    </g>
    <g
       inkscape:label=""
       transform="matrix(0.52164195,0,0,0.52164195,24.684926,46.26495)"
       id="g5"
       style="fill:#5e81ac">
      <g
         fill="#000000"
         fill-opacity="1"
         id="g9"
         transform="matrix(0.352778,0,0,0.352778,-0.818841,-0.702116)"
         style="fill:#5e81ac">
        <g
           id="use8"
           transform="translate(1.993,10.959)"
           style="fill:#5e81ac">
          <path
             d="M 2.46875,-3.5 C 2.484375,-3.578125 2.78125,-4.171875 3.234375,-4.546875 3.53125,-4.84375 3.9375,-5.03125 4.40625,-5.03125 c 0.484375,0 0.65625,0.359375 0.65625,0.828125 0,0.6875 -0.5,2.046875 -0.734375,2.703125 -0.109375,0.28125 -0.171875,0.4375 -0.171875,0.65625 0,0.53125 0.375,0.96875 0.953125,0.96875 1.109375,0 1.53125,-1.765625 1.53125,-1.828125 0,-0.0625 -0.046875,-0.109375 -0.125,-0.109375 -0.109375,0 -0.125,0.03125 -0.1875,0.234375 C 6.0625,-0.59375 5.609375,-0.125 5.140625,-0.125 c -0.125,0 -0.3125,0 -0.3125,-0.390625 0,-0.296875 0.125,-0.65625 0.203125,-0.828125 C 5.265625,-2 5.765625,-3.328125 5.765625,-4.015625 c 0,-0.71875 -0.40625,-1.25 -1.3125,-1.25 -1.078125,0 -1.625,0.75 -1.84375,1.046875 -0.046875,-0.6875 -0.53125,-1.046875 -1.0625,-1.046875 -0.375,0 -0.640625,0.21875 -0.84375,0.625 -0.21875,0.4375 -0.375,1.15625 -0.375,1.203125 0,0.046875 0.046875,0.109375 0.125,0.109375 0.09375,0 0.109375,-0.015625 0.1875,-0.296875 0.1875,-0.71875 0.40625,-1.40625 0.875,-1.40625 0.28125,0 0.375,0.1875 0.375,0.546875 0,0.265625 -0.125,0.734375 -0.203125,1.109375 l -0.34375,1.28125 c -0.046875,0.234375 -0.171875,0.765625 -0.234375,0.984375 -0.078125,0.3125 -0.21875,0.875 -0.21875,0.9375 0,0.15625 0.140625,0.296875 0.3125,0.296875 0.140625,0 0.3125,-0.078125 0.40625,-0.25 C 1.640625,-0.1875 1.75,-0.609375 1.8125,-0.84375 l 0.25,-1.078125 z m 0,0"
             id="path17"
             style="fill:#5e81ac" />
        </g>
      </g>
      <g
         fill="#000000"
         fill-opacity="1"
         id="g10"
         transform="matrix(0.352778,0,0,0.352778,-0.818841,-0.702116)"
         style="fill:#5e81ac">
        <g
           id="use9"
           transform="translate(8.9799995,12.968)"
           style="fill:#5e81ac">
          <path
             d="m 2.796875,-2.921875 h 0.875 c 0.640625,0 0.765625,0.109375 0.765625,0.40625 0,0.015625 -0.015625,0.1875 -0.0625,0.40625 -0.046875,0.09375 -0.046875,0.109375 -0.046875,0.125 0,0.03125 0.03125,0.125 0.125,0.125 0.109375,0 0.109375,-0.046875 0.140625,-0.1875 l 0.5,-1.9375 C 5.109375,-4.03125 5.125,-4.078125 5.125,-4.125 5.125,-4.171875 5.078125,-4.25 5,-4.25 4.890625,-4.25 4.875,-4.171875 4.84375,-4.03125 4.65625,-3.328125 4.40625,-3.1875 3.6875,-3.1875 H 2.859375 c 0.125,-0.5 0.578125,-2.34375 0.609375,-2.453125 0.0625,-0.1875 0.15625,-0.1875 0.4375,-0.1875 h 1.234375 c 1.125,0 1.328125,0.296875 1.328125,1 0,0.296875 -0.046875,0.546875 -0.046875,0.609375 0,0.078125 0.046875,0.140625 0.125,0.140625 0.109375,0 0.109375,-0.0625 0.140625,-0.234375 L 6.875,-5.96875 c 0,-0.125 -0.09375,-0.125 -0.265625,-0.125 h -4.5 c -0.171875,0 -0.265625,0 -0.265625,0.15625 0,0.109375 0.09375,0.109375 0.28125,0.109375 0.03125,0 0.203125,0 0.34375,0.03125 0.1875,0.015625 0.203125,0.0625 0.203125,0.140625 0,0.03125 0,0.046875 -0.046875,0.203125 L 1.4375,-0.6875 c -0.078125,0.328125 -0.09375,0.40625 -0.78125,0.40625 -0.15625,0 -0.265625,0 -0.265625,0.171875 C 0.390625,-0.0625 0.421875,0 0.53125,0 0.625,0 1.046875,-0.015625 1.140625,-0.015625 1.203125,-0.03125 1.53125,-0.03125 1.71875,-0.03125 c 0.171875,0 0.421875,0.015625 0.640625,0.015625 0.21875,0 0.46875,0.015625 0.6875,0.015625 0.0625,0 0.1875,0 0.1875,-0.15625 0,-0.125 -0.09375,-0.125 -0.28125,-0.125 -0.015625,0 -0.25,0 -0.46875,-0.015625 -0.28125,-0.03125 -0.296875,-0.0625 -0.296875,-0.171875 0,-0.015625 0,-0.0625 0.03125,-0.203125 z m 0,0"
             id="path18"
             style="fill:#5e81ac" />
        </g>
      </g>
      <g
         fill="#000000"
         fill-opacity="1"
         id="g11"
         transform="matrix(0.352778,0,0,0.352778,-0.818841,-0.702116)"
         style="fill:#5e81ac">
        <g
           id="use10"
           transform="translate(16.642,10.959)"
           style="fill:#5e81ac">
          <path
             d="m 3.890625,2.90625 c 0,-0.03125 0,-0.0625 -0.203125,-0.265625 C 2.484375,1.4375 1.8125,-0.53125 1.8125,-2.96875 c 0,-2.328125 0.5625,-4.328125 1.953125,-5.734375 0.125,-0.109375 0.125,-0.125 0.125,-0.171875 0,-0.0625 -0.0625,-0.09375 -0.109375,-0.09375 -0.15625,0 -1.140625,0.859375 -1.71875,2.03125 -0.609375,1.21875 -0.890625,2.484375 -0.890625,3.96875 0,1.0625 0.171875,2.484375 0.78125,3.75 C 2.671875,2.21875 3.640625,3 3.78125,3 3.828125,3 3.890625,2.96875 3.890625,2.90625 Z m 0,0"
             id="path19"
             style="fill:#5e81ac" />
        </g>
      </g>
      <g
         fill="#000000"
         fill-opacity="1"
         id="g12"
         transform="matrix(0.352778,0,0,0.352778,-0.818841,-0.702116)"
         style="fill:#5e81ac">
        <g
           id="use11"
           transform="translate(21.195,10.959)"
           style="fill:#5e81ac">
          <path
             d="m 6.765625,-6.953125 c 0,-0.71875 -0.609375,-1.46875 -1.703125,-1.46875 -1.53125,0 -2.515625,1.890625 -2.828125,3.125 l -1.890625,7.5 C 0.328125,2.296875 0.390625,2.3125 0.453125,2.3125 c 0.078125,0 0.140625,0 0.15625,-0.0625 l 0.84375,-3.34375 C 1.5625,-0.4375 2.21875,0.125 2.921875,0.125 4.640625,0.125 6.25,-1.21875 6.25,-3 6.25,-3.453125 6.140625,-3.90625 5.890625,-4.296875 5.75,-4.515625 5.5625,-4.6875 5.375,-4.828125 c 0.859375,-0.453125 1.390625,-1.1875 1.390625,-2.125 z M 4.6875,-4.84375 C 4.5,-4.765625 4.296875,-4.75 4.078125,-4.75 3.90625,-4.75 3.75,-4.734375 3.53125,-4.8125 c 0.125,-0.078125 0.3125,-0.09375 0.5625,-0.09375 0.203125,0 0.421875,0.015625 0.59375,0.0625 z M 6.140625,-7.0625 c 0,0.65625 -0.3125,1.609375 -1.09375,2.046875 C 4.8125,-5.09375 4.5,-5.15625 4.25,-5.15625 4,-5.15625 3.28125,-5.171875 3.28125,-4.796875 3.28125,-4.46875 3.9375,-4.5 4.140625,-4.5 c 0.3125,0 0.578125,-0.078125 0.875,-0.15625 0.375,0.3125 0.546875,0.71875 0.546875,1.3125 0,0.6875 -0.203125,1.25 -0.421875,1.765625 C 4.75,-0.6875 3.8125,-0.125 2.984375,-0.125 c -0.875,0 -1.328125,-0.6875 -1.328125,-1.5 0,-0.109375 0,-0.265625 0.046875,-0.4375 l 0.78125,-3.15625 c 0.390625,-1.5625 1.40625,-2.96875 2.5625,-2.96875 0.859375,0 1.09375,0.59375 1.09375,1.125 z m 0,0"
             id="path20"
             style="fill:#5e81ac" />
        </g>
      </g>
      <g
         fill="#000000"
         fill-opacity="1"
         id="g13"
         transform="matrix(0.352778,0,0,0.352778,-0.818841,-0.702116)"
         style="fill:#5e81ac">
        <g
           id="use12"
           transform="translate(28.466,10.959)"
           style="fill:#5e81ac">
          <path
             d="m 3.890625,2.90625 c 0,-0.03125 0,-0.0625 -0.203125,-0.265625 C 2.484375,1.4375 1.8125,-0.53125 1.8125,-2.96875 c 0,-2.328125 0.5625,-4.328125 1.953125,-5.734375 0.125,-0.109375 0.125,-0.125 0.125,-0.171875 0,-0.0625 -0.0625,-0.09375 -0.109375,-0.09375 -0.15625,0 -1.140625,0.859375 -1.71875,2.03125 -0.609375,1.21875 -0.890625,2.484375 -0.890625,3.96875 0,1.0625 0.171875,2.484375 0.78125,3.75 C 2.671875,2.21875 3.640625,3 3.78125,3 3.828125,3 3.890625,2.96875 3.890625,2.90625 Z m 0,0"
             id="path21"
             style="fill:#5e81ac" />
        </g>
      </g>
      <g
         fill="#000000"
         fill-opacity="1"
         id="g14"
         transform="matrix(0.352778,0,0,0.352778,-0.818841,-0.702116)"
         style="fill:#5e81ac">
        <g
           id="use13"
           transform="translate(33.018002,10.959)"
           style="fill:#5e81ac">
          <path
             d="m 1.65625,-2.71875 c 0.390625,0.15625 0.796875,0.15625 1.015625,0.15625 0.3125,0 0.9375,0 0.9375,-0.359375 0,-0.203125 -0.234375,-0.296875 -0.84375,-0.296875 -0.296875,0 -0.65625,0.046875 -1.0625,0.21875 -0.375,-0.171875 -0.515625,-0.453125 -0.515625,-0.71875 0,-0.734375 1.171875,-1.171875 2.234375,-1.171875 0.203125,0 0.625,0 1.125,0.375 C 4.625,-4.46875 4.65625,-4.4375 4.75,-4.4375 c 0.140625,0 0.296875,-0.15625 0.296875,-0.296875 0,-0.21875 -0.703125,-0.671875 -1.515625,-0.671875 -1.34375,0 -2.609375,0.796875 -2.609375,1.6875 0,0.4375 0.28125,0.71875 0.484375,0.859375 -0.6875,0.390625 -1.09375,1.046875 -1.09375,1.625 0,0.828125 0.734375,1.484375 1.890625,1.484375 1.578125,0 2.203125,-1.046875 2.203125,-1.21875 0,-0.0625 -0.046875,-0.109375 -0.109375,-0.109375 -0.046875,0 -0.078125,0.03125 -0.125,0.109375 -0.125,0.234375 -0.4375,0.703125 -1.859375,0.703125 -0.75,0 -1.734375,-0.1875 -1.734375,-1.03125 0,-0.40625 0.3125,-1.015625 1.078125,-1.421875 z M 2.03125,-2.875 C 2.359375,-2.96875 2.671875,-2.96875 2.75,-2.96875 c 0.328125,0 0.390625,0.015625 0.578125,0.0625 -0.203125,0.09375 -0.21875,0.09375 -0.65625,0.09375 -0.203125,0 -0.40625,0 -0.640625,-0.0625 z m 0,0"
             id="path22"
             style="fill:#5e81ac" />
        </g>
      </g>
      <g
         fill="#000000"
         fill-opacity="1"
         id="g15"
         transform="matrix(0.352778,0,0,0.352778,-0.818841,-0.702116)"
         style="fill:#5e81ac">
        <g
           id="use14"
           transform="translate(41.153,10.959)"
           style="fill:#5e81ac">
          <path
             d="m 7.875,-2.75 c 0.203125,0 0.421875,0 0.421875,-0.234375 0,-0.25 -0.21875,-0.25 -0.421875,-0.25 H 1.40625 c -0.203125,0 -0.421875,0 -0.421875,0.25 0,0.234375 0.21875,0.234375 0.421875,0.234375 z m 0,0"
             id="path23"
             style="fill:#5e81ac" />
        </g>
      </g>
      <g
         fill="#000000"
         fill-opacity="1"
         id="g16"
         transform="matrix(0.352778,0,0,0.352778,-0.818841,-0.702116)"
         style="fill:#5e81ac">
        <g
           id="use15"
           transform="translate(53.108002,10.959)"
           style="fill:#5e81ac">
          <path
             d="M 1.71875,-0.265625 C 2.015625,0.015625 2.46875,0.125 2.875,0.125 3.640625,0.125 4.15625,-0.390625 4.4375,-0.765625 4.546875,-0.125 5.0625,0.125 5.46875,0.125 5.828125,0.125 6.125,-0.09375 6.328125,-0.53125 6.53125,-0.9375 6.6875,-1.65625 6.6875,-1.703125 c 0,-0.0625 -0.046875,-0.109375 -0.109375,-0.109375 -0.109375,0 -0.125,0.0625 -0.171875,0.234375 C 6.234375,-0.875 6,-0.125 5.515625,-0.125 c -0.359375,0 -0.375,-0.3125 -0.375,-0.546875 0,-0.265625 0.109375,-0.703125 0.1875,-1.0625 L 5.671875,-3.03125 C 5.71875,-3.25 5.84375,-3.796875 5.90625,-4 c 0.0625,-0.296875 0.203125,-0.8125 0.203125,-0.859375 0,-0.171875 -0.140625,-0.296875 -0.328125,-0.296875 -0.109375,0 -0.359375,0.046875 -0.453125,0.40625 L 4.5,-1.421875 C 4.4375,-1.1875 4.4375,-1.15625 4.28125,-0.96875 4.140625,-0.765625 3.671875,-0.125 2.921875,-0.125 2.25,-0.125 2.03125,-0.609375 2.03125,-1.171875 c 0,-0.34375 0.109375,-0.765625 0.15625,-0.96875 l 0.53125,-2.15625 C 2.78125,-4.515625 2.875,-4.90625 2.875,-4.96875 c 0,-0.1875 -0.15625,-0.296875 -0.3125,-0.296875 -0.09375,0 -0.359375,0.03125 -0.453125,0.40625 L 0.375,2.0625 C 0.359375,2.125 0.328125,2.203125 0.328125,2.265625 c 0,0.1875 0.15625,0.296875 0.328125,0.296875 0.34375,0 0.421875,-0.265625 0.5,-0.609375 z m 0,0"
             id="path24"
             style="fill:#5e81ac" />
        </g>
      </g>
      <g
         fill="#000000"
         fill-opacity="1"
         id="g17"
         transform="matrix(0.352778,0,0,0.352778,-0.818841,-0.702116)"
         style="fill:#5e81ac">
        <g
           id="use16"
           transform="translate(60.151001,10.959)"
           style="fill:#5e81ac">
          <path
             d="M 3.375,-2.96875 C 3.375,-3.890625 3.25,-5.359375 2.578125,-6.75 1.875,-8.1875 0.890625,-8.96875 0.765625,-8.96875 c -0.046875,0 -0.109375,0.03125 -0.109375,0.09375 0,0.046875 0,0.0625 0.203125,0.265625 1.203125,1.203125 1.859375,3.1875 1.859375,5.625 0,2.3125 -0.5625,4.3125 -1.9375,5.71875 C 0.65625,2.84375 0.65625,2.875 0.65625,2.90625 0.65625,2.96875 0.71875,3 0.765625,3 0.921875,3 1.90625,2.140625 2.484375,0.96875 3.09375,-0.25 3.375,-1.546875 3.375,-2.96875 Z m 0,0"
             id="path25"
             style="fill:#5e81ac" />
        </g>
        <g
           id="use17"
           transform="translate(64.703537,10.959)"
           style="fill:#5e81ac">
          <path
             d="M 3.375,-2.96875 C 3.375,-3.890625 3.25,-5.359375 2.578125,-6.75 1.875,-8.1875 0.890625,-8.96875 0.765625,-8.96875 c -0.046875,0 -0.109375,0.03125 -0.109375,0.09375 0,0.046875 0,0.0625 0.203125,0.265625 1.203125,1.203125 1.859375,3.1875 1.859375,5.625 0,2.3125 -0.5625,4.3125 -1.9375,5.71875 C 0.65625,2.84375 0.65625,2.875 0.65625,2.90625 0.65625,2.96875 0.71875,3 0.765625,3 0.921875,3 1.90625,2.140625 2.484375,0.96875 3.09375,-0.25 3.375,-1.546875 3.375,-2.96875 Z m 0,0"
             id="path26"
             style="fill:#5e81ac" />
        </g>
      </g>
    </g>
    <g
       inkscape:label=""
       transform="translate(58.308853,67.141821)"
       id="g45">
      <g
         fill="#000000"
         fill-opacity="1"
         id="g44"
         transform="matrix(0.352778,0,0,0.352778,-0.813329,-0.611276)">
        <g
           id="g43"
           transform="translate(1.993,7.1389999)">
          <path
             d="m 1.65625,-2.71875 c 0.390625,0.15625 0.796875,0.15625 1.015625,0.15625 0.3125,0 0.9375,0 0.9375,-0.359375 0,-0.203125 -0.234375,-0.296875 -0.84375,-0.296875 -0.296875,0 -0.65625,0.046875 -1.0625,0.21875 -0.375,-0.171875 -0.515625,-0.453125 -0.515625,-0.71875 0,-0.734375 1.171875,-1.171875 2.234375,-1.171875 0.203125,0 0.625,0 1.125,0.375 C 4.625,-4.46875 4.65625,-4.4375 4.75,-4.4375 c 0.140625,0 0.296875,-0.15625 0.296875,-0.296875 0,-0.21875 -0.703125,-0.671875 -1.515625,-0.671875 -1.34375,0 -2.609375,0.796875 -2.609375,1.6875 0,0.4375 0.28125,0.71875 0.484375,0.859375 -0.6875,0.390625 -1.09375,1.046875 -1.09375,1.625 0,0.828125 0.734375,1.484375 1.890625,1.484375 1.578125,0 2.203125,-1.046875 2.203125,-1.21875 0,-0.0625 -0.046875,-0.109375 -0.109375,-0.109375 -0.046875,0 -0.078125,0.03125 -0.125,0.109375 -0.125,0.234375 -0.4375,0.703125 -1.859375,0.703125 -0.75,0 -1.734375,-0.1875 -1.734375,-1.03125 0,-0.40625 0.3125,-1.015625 1.078125,-1.421875 z M 2.03125,-2.875 C 2.359375,-2.96875 2.671875,-2.96875 2.75,-2.96875 c 0.328125,0 0.390625,0.015625 0.578125,0.0625 -0.203125,0.09375 -0.21875,0.09375 -0.65625,0.09375 -0.203125,0 -0.40625,0 -0.640625,-0.0625 z m 0,0"
             id="path42" />
        </g>
      </g>
    </g>
    <path
       style="fill:none;stroke:#d08770;stroke-width:0.264583px;stroke-linecap:butt;stroke-linejoin:miter;stroke-opacity:1"
       d="m 38.79513,47.634605 c 0.264583,6.879166 0.09862,12.690397 3.009035,16.659147 1.783975,2.432694 11.255075,1.852083 15.08125,1.852083"
       id="path47"
       sodipodi:nodetypes="csc" />
    <g
       inkscape:label=""
       transform="matrix(0.53817643,0,0,0.53817643,24.387904,49.568291)"
       id="g67"
       style="fill:#d08770">
      <g
         fill="#000000"
         fill-opacity="1"
         id="g49"
         transform="matrix(0.352778,0,0,0.352778,-0.818841,-0.702116)"
         style="fill:#d08770">
        <g
           id="g48"
           transform="translate(1.993,10.959)"
           style="fill:#d08770">
          <path
             d="M 2.46875,-3.5 C 2.484375,-3.578125 2.78125,-4.171875 3.234375,-4.546875 3.53125,-4.84375 3.9375,-5.03125 4.40625,-5.03125 c 0.484375,0 0.65625,0.359375 0.65625,0.828125 0,0.6875 -0.5,2.046875 -0.734375,2.703125 -0.109375,0.28125 -0.171875,0.4375 -0.171875,0.65625 0,0.53125 0.375,0.96875 0.953125,0.96875 1.109375,0 1.53125,-1.765625 1.53125,-1.828125 0,-0.0625 -0.046875,-0.109375 -0.125,-0.109375 -0.109375,0 -0.125,0.03125 -0.1875,0.234375 C 6.0625,-0.59375 5.609375,-0.125 5.140625,-0.125 c -0.125,0 -0.3125,0 -0.3125,-0.390625 0,-0.296875 0.125,-0.65625 0.203125,-0.828125 C 5.265625,-2 5.765625,-3.328125 5.765625,-4.015625 c 0,-0.71875 -0.40625,-1.25 -1.3125,-1.25 -1.078125,0 -1.625,0.75 -1.84375,1.046875 -0.046875,-0.6875 -0.53125,-1.046875 -1.0625,-1.046875 -0.375,0 -0.640625,0.21875 -0.84375,0.625 -0.21875,0.4375 -0.375,1.15625 -0.375,1.203125 0,0.046875 0.046875,0.109375 0.125,0.109375 0.09375,0 0.109375,-0.015625 0.1875,-0.296875 0.1875,-0.71875 0.40625,-1.40625 0.875,-1.40625 0.28125,0 0.375,0.1875 0.375,0.546875 0,0.265625 -0.125,0.734375 -0.203125,1.109375 l -0.34375,1.28125 c -0.046875,0.234375 -0.171875,0.765625 -0.234375,0.984375 -0.078125,0.3125 -0.21875,0.875 -0.21875,0.9375 0,0.15625 0.140625,0.296875 0.3125,0.296875 0.140625,0 0.3125,-0.078125 0.40625,-0.25 C 1.640625,-0.1875 1.75,-0.609375 1.8125,-0.84375 l 0.25,-1.078125 z m 0,0"
             id="path48"
             style="fill:#d08770" />
        </g>
      </g>
      <g
         fill="#000000"
         fill-opacity="1"
         id="g51"
         transform="matrix(0.352778,0,0,0.352778,-0.818841,-0.702116)"
         style="fill:#d08770">
        <g
           id="g50"
           transform="translate(8.9799995,12.968)"
           style="fill:#d08770">
          <path
             d="M 1.46875,-0.6875 C 1.375,-0.359375 1.359375,-0.28125 0.6875,-0.28125 c -0.171875,0 -0.265625,0 -0.265625,0.171875 C 0.421875,0 0.515625,0 0.671875,0 H 3.9375 c 1.453125,0 2.515625,-1.0625 2.515625,-1.921875 0,-0.640625 -0.53125,-1.1875 -1.40625,-1.28125 C 6.0625,-3.40625 6.9375,-4.078125 6.9375,-4.875 c 0,-0.703125 -0.65625,-1.25 -1.71875,-1.25 h -3.0625 c -0.171875,0 -0.265625,0 -0.265625,0.15625 0,0.125 0.078125,0.125 0.265625,0.125 0.03125,0 0.1875,0 0.34375,0.015625 0.140625,0.015625 0.203125,0.03125 0.203125,0.140625 0,0.03125 0,0.078125 -0.03125,0.171875 z M 2.859375,-3.296875 3.40625,-5.5 C 3.484375,-5.828125 3.5,-5.84375 3.890625,-5.84375 H 5.09375 c 0.9375,0 1.015625,0.703125 1.015625,0.921875 0,0.8125 -0.828125,1.625 -1.84375,1.625 z M 2.4375,-0.28125 c -0.125,0 -0.15625,0 -0.1875,0 C 2.15625,-0.296875 2.140625,-0.3125 2.140625,-0.375 c 0,-0.015625 0,-0.03125 0.03125,-0.203125 l 0.625,-2.5 h 1.6875 c 0.5625,0 1.125,0.25 1.125,1.0625 0,0.890625 -0.8125,1.734375 -1.890625,1.734375 z m 0,0"
             id="path49"
             style="fill:#d08770" />
        </g>
      </g>
      <g
         fill="#000000"
         fill-opacity="1"
         id="g53"
         transform="matrix(0.352778,0,0,0.352778,-0.818841,-0.702116)"
         style="fill:#d08770">
        <g
           id="g52"
           transform="translate(16.898001,10.959)"
           style="fill:#d08770">
          <path
             d="m 3.890625,2.90625 c 0,-0.03125 0,-0.0625 -0.203125,-0.265625 C 2.484375,1.4375 1.8125,-0.53125 1.8125,-2.96875 c 0,-2.328125 0.5625,-4.328125 1.953125,-5.734375 0.125,-0.109375 0.125,-0.125 0.125,-0.171875 0,-0.0625 -0.0625,-0.09375 -0.109375,-0.09375 -0.15625,0 -1.140625,0.859375 -1.71875,2.03125 -0.609375,1.21875 -0.890625,2.484375 -0.890625,3.96875 0,1.0625 0.171875,2.484375 0.78125,3.75 C 2.671875,2.21875 3.640625,3 3.78125,3 3.828125,3 3.890625,2.96875 3.890625,2.90625 Z m 0,0"
             id="path51"
             style="fill:#d08770" />
        </g>
      </g>
      <g
         fill="#000000"
         fill-opacity="1"
         id="g55"
         transform="matrix(0.352778,0,0,0.352778,-0.818841,-0.702116)"
         style="fill:#d08770">
        <g
           id="g54"
           transform="translate(21.450001,10.959)"
           style="fill:#d08770">
          <path
             d="m 6.765625,-6.953125 c 0,-0.71875 -0.609375,-1.46875 -1.703125,-1.46875 -1.53125,0 -2.515625,1.890625 -2.828125,3.125 l -1.890625,7.5 C 0.328125,2.296875 0.390625,2.3125 0.453125,2.3125 c 0.078125,0 0.140625,0 0.15625,-0.0625 l 0.84375,-3.34375 C 1.5625,-0.4375 2.21875,0.125 2.921875,0.125 4.640625,0.125 6.25,-1.21875 6.25,-3 6.25,-3.453125 6.140625,-3.90625 5.890625,-4.296875 5.75,-4.515625 5.5625,-4.6875 5.375,-4.828125 c 0.859375,-0.453125 1.390625,-1.1875 1.390625,-2.125 z M 4.6875,-4.84375 C 4.5,-4.765625 4.296875,-4.75 4.078125,-4.75 3.90625,-4.75 3.75,-4.734375 3.53125,-4.8125 c 0.125,-0.078125 0.3125,-0.09375 0.5625,-0.09375 0.203125,0 0.421875,0.015625 0.59375,0.0625 z M 6.140625,-7.0625 c 0,0.65625 -0.3125,1.609375 -1.09375,2.046875 C 4.8125,-5.09375 4.5,-5.15625 4.25,-5.15625 4,-5.15625 3.28125,-5.171875 3.28125,-4.796875 3.28125,-4.46875 3.9375,-4.5 4.140625,-4.5 c 0.3125,0 0.578125,-0.078125 0.875,-0.15625 0.375,0.3125 0.546875,0.71875 0.546875,1.3125 0,0.6875 -0.203125,1.25 -0.421875,1.765625 C 4.75,-0.6875 3.8125,-0.125 2.984375,-0.125 c -0.875,0 -1.328125,-0.6875 -1.328125,-1.5 0,-0.109375 0,-0.265625 0.046875,-0.4375 l 0.78125,-3.15625 c 0.390625,-1.5625 1.40625,-2.96875 2.5625,-2.96875 0.859375,0 1.09375,0.59375 1.09375,1.125 z m 0,0"
             id="path53"
             style="fill:#d08770" />
        </g>
      </g>
      <g
         fill="#000000"
         fill-opacity="1"
         id="g57"
         transform="matrix(0.352778,0,0,0.352778,-0.818841,-0.702116)"
         style="fill:#d08770">
        <g
           id="g56"
           transform="translate(28.722,10.959)"
           style="fill:#d08770">
          <path
             d="m 3.890625,2.90625 c 0,-0.03125 0,-0.0625 -0.203125,-0.265625 C 2.484375,1.4375 1.8125,-0.53125 1.8125,-2.96875 c 0,-2.328125 0.5625,-4.328125 1.953125,-5.734375 0.125,-0.109375 0.125,-0.125 0.125,-0.171875 0,-0.0625 -0.0625,-0.09375 -0.109375,-0.09375 -0.15625,0 -1.140625,0.859375 -1.71875,2.03125 -0.609375,1.21875 -0.890625,2.484375 -0.890625,3.96875 0,1.0625 0.171875,2.484375 0.78125,3.75 C 2.671875,2.21875 3.640625,3 3.78125,3 3.828125,3 3.890625,2.96875 3.890625,2.90625 Z m 0,0"
             id="path55"
             style="fill:#d08770" />
        </g>
      </g>
      <g
         fill="#000000"
         fill-opacity="1"
         id="g59"
         transform="matrix(0.352778,0,0,0.352778,-0.818841,-0.702116)"
         style="fill:#d08770">
        <g
           id="g58"
           transform="translate(33.273998,10.959)"
           style="fill:#d08770">
          <path
             d="m 1.65625,-2.71875 c 0.390625,0.15625 0.796875,0.15625 1.015625,0.15625 0.3125,0 0.9375,0 0.9375,-0.359375 0,-0.203125 -0.234375,-0.296875 -0.84375,-0.296875 -0.296875,0 -0.65625,0.046875 -1.0625,0.21875 -0.375,-0.171875 -0.515625,-0.453125 -0.515625,-0.71875 0,-0.734375 1.171875,-1.171875 2.234375,-1.171875 0.203125,0 0.625,0 1.125,0.375 C 4.625,-4.46875 4.65625,-4.4375 4.75,-4.4375 c 0.140625,0 0.296875,-0.15625 0.296875,-0.296875 0,-0.21875 -0.703125,-0.671875 -1.515625,-0.671875 -1.34375,0 -2.609375,0.796875 -2.609375,1.6875 0,0.4375 0.28125,0.71875 0.484375,0.859375 -0.6875,0.390625 -1.09375,1.046875 -1.09375,1.625 0,0.828125 0.734375,1.484375 1.890625,1.484375 1.578125,0 2.203125,-1.046875 2.203125,-1.21875 0,-0.0625 -0.046875,-0.109375 -0.109375,-0.109375 -0.046875,0 -0.078125,0.03125 -0.125,0.109375 -0.125,0.234375 -0.4375,0.703125 -1.859375,0.703125 -0.75,0 -1.734375,-0.1875 -1.734375,-1.03125 0,-0.40625 0.3125,-1.015625 1.078125,-1.421875 z M 2.03125,-2.875 C 2.359375,-2.96875 2.671875,-2.96875 2.75,-2.96875 c 0.328125,0 0.390625,0.015625 0.578125,0.0625 -0.203125,0.09375 -0.21875,0.09375 -0.65625,0.09375 -0.203125,0 -0.40625,0 -0.640625,-0.0625 z m 0,0"
             id="path57"
             style="fill:#d08770" />
        </g>
      </g>
      <g
         fill="#000000"
         fill-opacity="1"
         id="g61"
         transform="matrix(0.352778,0,0,0.352778,-0.818841,-0.702116)"
         style="fill:#d08770">
        <g
           id="g60"
           transform="translate(41.409,10.959)"
           style="fill:#d08770">
          <path
             d="m 7.875,-2.75 c 0.203125,0 0.421875,0 0.421875,-0.234375 0,-0.25 -0.21875,-0.25 -0.421875,-0.25 H 1.40625 c -0.203125,0 -0.421875,0 -0.421875,0.25 0,0.234375 0.21875,0.234375 0.421875,0.234375 z m 0,0"
             id="path59"
             style="fill:#d08770" />
        </g>
      </g>
      <g
         fill="#000000"
         fill-opacity="1"
         id="g63"
         transform="matrix(0.352778,0,0,0.352778,-0.818841,-0.702116)"
         style="fill:#d08770">
        <g
           id="g62"
           transform="translate(53.363998,10.959)"
           style="fill:#d08770">
          <path
             d="M 1.71875,-0.265625 C 2.015625,0.015625 2.46875,0.125 2.875,0.125 3.640625,0.125 4.15625,-0.390625 4.4375,-0.765625 4.546875,-0.125 5.0625,0.125 5.46875,0.125 5.828125,0.125 6.125,-0.09375 6.328125,-0.53125 6.53125,-0.9375 6.6875,-1.65625 6.6875,-1.703125 c 0,-0.0625 -0.046875,-0.109375 -0.109375,-0.109375 -0.109375,0 -0.125,0.0625 -0.171875,0.234375 C 6.234375,-0.875 6,-0.125 5.515625,-0.125 c -0.359375,0 -0.375,-0.3125 -0.375,-0.546875 0,-0.265625 0.109375,-0.703125 0.1875,-1.0625 L 5.671875,-3.03125 C 5.71875,-3.25 5.84375,-3.796875 5.90625,-4 c 0.0625,-0.296875 0.203125,-0.8125 0.203125,-0.859375 0,-0.171875 -0.140625,-0.296875 -0.328125,-0.296875 -0.109375,0 -0.359375,0.046875 -0.453125,0.40625 L 4.5,-1.421875 C 4.4375,-1.1875 4.4375,-1.15625 4.28125,-0.96875 4.140625,-0.765625 3.671875,-0.125 2.921875,-0.125 2.25,-0.125 2.03125,-0.609375 2.03125,-1.171875 c 0,-0.34375 0.109375,-0.765625 0.15625,-0.96875 l 0.53125,-2.15625 C 2.78125,-4.515625 2.875,-4.90625 2.875,-4.96875 c 0,-0.1875 -0.15625,-0.296875 -0.3125,-0.296875 -0.09375,0 -0.359375,0.03125 -0.453125,0.40625 L 0.375,2.0625 C 0.359375,2.125 0.328125,2.203125 0.328125,2.265625 c 0,0.1875 0.15625,0.296875 0.328125,0.296875 0.34375,0 0.421875,-0.265625 0.5,-0.609375 z m 0,0"
             id="path61"
             style="fill:#d08770" />
        </g>
      </g>
      <g
         fill="#000000"
         fill-opacity="1"
         id="g66"
         transform="matrix(0.352778,0,0,0.352778,-0.818841,-0.702116)"
         style="fill:#d08770">
        <g
           id="g64"
           transform="translate(60.407001,10.959)"
           style="fill:#d08770">
          <path
             d="M 3.375,-2.96875 C 3.375,-3.890625 3.25,-5.359375 2.578125,-6.75 1.875,-8.1875 0.890625,-8.96875 0.765625,-8.96875 c -0.046875,0 -0.109375,0.03125 -0.109375,0.09375 0,0.046875 0,0.0625 0.203125,0.265625 1.203125,1.203125 1.859375,3.1875 1.859375,5.625 0,2.3125 -0.5625,4.3125 -1.9375,5.71875 C 0.65625,2.84375 0.65625,2.875 0.65625,2.90625 0.65625,2.96875 0.71875,3 0.765625,3 0.921875,3 1.90625,2.140625 2.484375,0.96875 3.09375,-0.25 3.375,-1.546875 3.375,-2.96875 Z m 0,0"
             id="path63"
             style="fill:#d08770" />
        </g>
        <g
           id="g65"
           transform="translate(64.959541,10.959)"
           style="fill:#d08770">
          <path
             d="M 3.375,-2.96875 C 3.375,-3.890625 3.25,-5.359375 2.578125,-6.75 1.875,-8.1875 0.890625,-8.96875 0.765625,-8.96875 c -0.046875,0 -0.109375,0.03125 -0.109375,0.09375 0,0.046875 0,0.0625 0.203125,0.265625 1.203125,1.203125 1.859375,3.1875 1.859375,5.625 0,2.3125 -0.5625,4.3125 -1.9375,5.71875 C 0.65625,2.84375 0.65625,2.875 0.65625,2.90625 0.65625,2.96875 0.71875,3 0.765625,3 0.921875,3 1.90625,2.140625 2.484375,0.96875 3.09375,-0.25 3.375,-1.546875 3.375,-2.96875 Z m 0,0"
             id="path64"
             style="fill:#d08770" />
        </g>
      </g>
    </g>
    <g
       inkscape:label=""
       transform="matrix(0.50687618,0,0,0.50687618,21.157441,52.242215)"
       id="g70">
      <g
         fill="#000000"
         fill-opacity="1"
         id="g69"
         transform="matrix(0.352778,0,0,0.352778,-1.08894,-0.614848)">
        <g
           id="g68"
           transform="translate(1.993,9.6960001)">
          <path
             d="m 3.4375,-7.65625 c 0,-0.28125 0,-0.296875 -0.234375,-0.296875 C 2.921875,-7.625 2.3125,-7.1875 1.09375,-7.1875 v 0.34375 c 0.265625,0 0.859375,0 1.53125,-0.296875 v 6.21875 c 0,0.4375 -0.046875,0.578125 -1.09375,0.578125 h -0.375 V 0 c 0.328125,-0.03125 1.484375,-0.03125 1.875,-0.03125 0.40625,0 1.546875,0 1.875,0.03125 v -0.34375 h -0.375 c -1.046875,0 -1.09375,-0.140625 -1.09375,-0.578125 z m 0,0"
             id="path68" />
        </g>
      </g>
    </g>
  </g>
</svg>
