<?xml version="1.0" encoding="UTF-8" standalone="no"?>
<!-- Created with Inkscape (http://www.inkscape.org/) -->

<svg
   width="129.27827mm"
   height="72.993698mm"
   viewBox="0 0 129.27827 72.993698"
   version="1.1"
   id="svg1"
   inkscape:version="1.3.1 (91b66b0783, 2023-11-16, custom)"
   sodipodi:docname="fermisufraces.svg"
   xmlns:inkscape="http://www.inkscape.org/namespaces/inkscape"
   xmlns:sodipodi="http://sodipodi.sourceforge.net/DTD/sodipodi-0.dtd"
   xmlns="http://www.w3.org/2000/svg"
   xmlns:svg="http://www.w3.org/2000/svg">
  <sodipodi:namedview
     id="namedview1"
     pagecolor="#505050"
     bordercolor="#eeeeee"
     borderopacity="1"
     inkscape:showpageshadow="0"
     inkscape:pageopacity="0"
     inkscape:pagecheckerboard="0"
     inkscape:deskcolor="#d1d1d1"
     inkscape:document-units="mm"
     inkscape:zoom="1.0305625"
     inkscape:cx="137.78883"
     inkscape:cy="176.60258"
     inkscape:window-width="1908"
     inkscape:window-height="1066"
     inkscape:window-x="1924"
     inkscape:window-y="5"
     inkscape:window-maximized="1"
     inkscape:current-layer="layer1" />
  <defs
     id="defs1" />
  <g
     inkscape:label="Layer 1"
     inkscape:groupmode="layer"
     id="layer1"
     transform="translate(-28.028027,-51.204591)">
    <rect
       style="font-variation-settings:normal;opacity:1;vector-effect:none;fill:none;fill-opacity:1;fill-rule:evenodd;stroke:#000000;stroke-width:0.4;stroke-linecap:round;stroke-linejoin:miter;stroke-miterlimit:2;stroke-dasharray:none;stroke-dashoffset:0;stroke-opacity:1;-inkscape-stroke:none;paint-order:stroke fill markers;stop-color:#000000;stop-opacity:1"
       id="rect1"
       width="28.699429"
       height="28.699429"
       x="44.966358"
       y="51.404591" />
    <rect
       style="font-variation-settings:normal;vector-effect:none;fill:none;fill-opacity:1;fill-rule:evenodd;stroke:#000000;stroke-width:0.4;stroke-linecap:round;stroke-linejoin:miter;stroke-miterlimit:2;stroke-dasharray:none;stroke-dashoffset:0;stroke-opacity:1;-inkscape-stroke:none;paint-order:stroke fill markers;stop-color:#000000"
       id="rect1-2"
       width="28.699429"
       height="28.699429"
       x="86.686615"
       y="51.404591" />
    <rect
       style="font-variation-settings:normal;vector-effect:none;fill:none;fill-opacity:1;fill-rule:evenodd;stroke:#000000;stroke-width:0.4;stroke-linecap:round;stroke-linejoin:miter;stroke-miterlimit:2;stroke-dasharray:none;stroke-dashoffset:0;stroke-opacity:1;-inkscape-stroke:none;paint-order:stroke fill markers;stop-color:#000000"
       id="rect1-9"
       width="28.699429"
       height="28.699429"
       x="128.40688"
       y="51.404591" />
    <rect
       style="font-variation-settings:normal;vector-effect:none;fill:none;fill-opacity:1;fill-rule:evenodd;stroke:#000000;stroke-width:0.4;stroke-linecap:round;stroke-linejoin:miter;stroke-miterlimit:2;stroke-dasharray:none;stroke-dashoffset:0;stroke-opacity:1;-inkscape-stroke:none;paint-order:stroke fill markers;stop-color:#000000"
       id="rect1-97"
       width="28.699429"
       height="28.699429"
       x="44.966358"
       y="92.590668" />
    <rect
       style="font-variation-settings:normal;vector-effect:none;fill:none;fill-opacity:1;fill-rule:evenodd;stroke:#000000;stroke-width:0.4;stroke-linecap:round;stroke-linejoin:miter;stroke-miterlimit:2;stroke-dasharray:none;stroke-dashoffset:0;stroke-opacity:1;-inkscape-stroke:none;paint-order:stroke fill markers;stop-color:#000000"
       id="rect1-29"
       width="28.699429"
       height="28.699429"
       x="86.686615"
       y="92.590668" />
    <rect
       style="font-variation-settings:normal;vector-effect:none;fill:#5e81ac;fill-opacity:1;fill-rule:evenodd;stroke:#000000;stroke-width:0.4;stroke-linecap:round;stroke-linejoin:miter;stroke-miterlimit:2;stroke-dasharray:none;stroke-dashoffset:0;stroke-opacity:1;-inkscape-stroke:none;paint-order:normal;stop-color:#000000"
       id="rect1-4"
       width="28.699429"
       height="28.699429"
       x="128.40688"
       y="92.590668" />
    <circle
       style="opacity:1;fill:#5e81ac;fill-rule:evenodd;stroke:#000000;stroke-width:0.333;stroke-linecap:round;stroke-miterlimit:2;stroke-dasharray:none;stroke-opacity:1;paint-order:normal"
       id="path1"
       cx="59.316071"
       cy="65.754303"
       r="11.289211" />
    <circle
       style="fill:#5e81ac;fill-rule:evenodd;stroke:#000000;stroke-width:0.501661;stroke-linecap:round;stroke-miterlimit:2;stroke-dasharray:none;stroke-opacity:1;paint-order:normal"
       id="path1-1"
       cx="59.316071"
       cy="106.94038"
       r="17.007078" />
    <path
       style="fill:#5e81ac;stroke:#000000;stroke-width:0.33;stroke-linecap:butt;stroke-linejoin:miter;stroke-dasharray:none;stroke-opacity:1"
       d="m 100.99602,52.603343 c 2.82238,-0.05718 2.80765,5.92544 5.22584,7.865179 3.18147,2.552023 7.64412,1.598124 7.41726,4.827964 -0.22685,3.229843 -4.60938,3.2863 -7.47888,5.807702 -3.07737,2.704064 -2.30378,7.801472 -5.42353,7.801472 -3.119776,0 -2.86382,-5.557695 -4.812261,-7.450505 -2.590917,-2.516942 -7.716919,-2.718815 -7.491833,-6.779397 0.225081,-4.060586 5.226373,-2.469346 7.553809,-4.546652 1.808761,-1.614373 2.144534,-7.467717 5.009595,-7.525763 z"
       id="path2"
       sodipodi:nodetypes="sssssssss" />
    <path
       style="fill:#5e81ac;stroke:#000000;stroke-width:0.33;stroke-linecap:butt;stroke-linejoin:miter;stroke-dasharray:none;stroke-opacity:1"
       d="m 145.29821,51.404591 c 0.0209,3.579404 8.32769,11.654182 11.80809,11.754146 v 5.682876 c -3.79799,0.08576 -11.51256,7.135897 -11.91864,11.262406 h -4.83493 c -0.0715,-3.98536 -7.09844,-11.156156 -11.94585,-11.184298 0,-3.729402 0,-1.658336 0,-5.170585 3.53094,0.06342 11.82366,-9.01578 11.88937,-12.344545 3.72991,0 3.87514,-6.44e-4 5.00196,0 z"
       id="path2-5"
       sodipodi:nodetypes="ccccccccc" />
    <path
       style="fill:#5e81ac;stroke:#000000;stroke-width:0.264583px;stroke-linecap:butt;stroke-linejoin:miter;stroke-opacity:1"
       d="m 86.686615,96.252503 c 3.96862,0.04891 3.825663,-3.661835 3.825663,-3.661835 h 9.094496 c 0.0151,-1.400746 0.546306,-2.325121 2.402996,-2.325121 1.85669,0 1.83056,2.325121 1.83056,2.325121 l 8.55434,-2e-6 c 0.0331,2.368829 0.53254,2.960681 2.99137,2.936757 v 8.213327 c 0,0 2.18527,0.22234 2.14014,1.61602 -0.0451,1.39368 -2.14013,1.58361 -2.14013,1.58361 0,0 -1e-5,9.43683 -1e-5,11.9317 -2.1817,-0.12514 -2.52365,0.5654 -2.57286,2.41802 -1.74664,1e-5 -9.36466,0 -9.36466,0 0,0 -0.33002,1.93155 -1.70091,1.87069 -1.48031,-0.0657 -1.49399,-1.87069 -1.49399,-1.87069 0,0 -7.50769,0 -10.402476,-10e-6 0.02892,-2.2699 -0.726897,-3.87392 -3.16453,-3.81779 l 10e-7,-7.67849 c 0,0 -2.547849,-0.20041 -2.399867,-2.04713 0.147979,-1.84672 2.399866,-1.8173 2.399866,-1.8173 z"
       id="path3"
       sodipodi:nodetypes="cccsccccsccccsccccscc" />
    <g
       inkscape:label=""
       transform="translate(29.670645,62.714846)"
       id="g3">
      <g
         fill="#000000"
         fill-opacity="1"
         id="g4"
         transform="matrix(0.352778,0,0,0.352778,-1.46376,-1.64183)">
        <g
           id="use3"
           transform="translate(1.993,21.028999)">
          <path
             d="m 6.59375,-15.828125 c 0,-0.53125 -0.03125,-0.546875 -0.375,-0.546875 -0.96875,1.15625 -2.421875,1.53125 -3.8125,1.578125 -0.078125,0 -0.203125,0 -0.21875,0.04687 -0.03125,0.0625 -0.03125,0.109375 -0.03125,0.625 0.765625,0 2.0625,-0.15625 3.046875,-0.75 v 13.0625 c 0,0.875 -0.046875,1.171875 -2.1875,1.171875 H 2.28125 V 0 c 1.1875,-0.03125 2.421875,-0.046875 3.609375,-0.046875 1.203125,0 2.4375,0.015625 3.625,0.046875 v -0.640625 h -0.75 c -2.125,0 -2.171875,-0.28125 -2.171875,-1.171875 z m 0,0"
             id="path6" />
        </g>
      </g>
      <g
         fill="#000000"
         fill-opacity="1"
         id="g5"
         transform="matrix(0.352778,0,0,0.352778,-1.46376,-1.64183)">
        <g
           id="use4"
           transform="translate(13.36,21.028999)">
          <path
             d="m 4.4375,-5.75 c 0.671875,0 2.359375,-0.046875 3.546875,-0.5 1.875,-0.71875 2.046875,-2.15625 2.046875,-2.59375 0,-1.09375 -0.9375,-2.078125 -2.578125,-2.078125 -2.59375,0 -6.34375,2.34375 -6.34375,6.765625 0,2.59375 1.5,4.40625 3.75,4.40625 3.375,0 5.5,-2.625 5.5,-2.953125 0,-0.140625 -0.15625,-0.265625 -0.25,-0.265625 -0.07813,0 -0.09375,0.015625 -0.328125,0.25 C 8.203125,-0.625 5.84375,-0.25 4.90625,-0.25 3.5,-0.25 2.75,-1.359375 2.75,-3.203125 2.75,-3.546875 2.75,-4.15625 3.125,-5.75 Z M 3.25,-6.25 c 1.0625,-3.8125 3.421875,-4.1875 4.203125,-4.1875 1.09375,0 1.84375,0.65625 1.84375,1.59375 0,2.59375 -3.96875,2.59375 -5.015625,2.59375 z m 0,0"
             id="path7" />
        </g>
      </g>
      <g
         fill="#000000"
         fill-opacity="1"
         id="g6"
         transform="matrix(0.352778,0,0,0.352778,-1.46376,-1.64183)">
        <g
           id="use5"
           transform="translate(24.608999,12.034)">
          <path
             d="m 11.34375,-3.953125 c 0.296875,0 0.609375,0 0.609375,-0.359375 0,-0.34375 -0.3125,-0.34375 -0.609375,-0.34375 h -9.3125 c -0.296875,0 -0.609375,0 -0.609375,0.34375 0,0.359375 0.3125,0.359375 0.609375,0.359375 z m 0,0"
             id="path8" />
        </g>
      </g>
    </g>
    <g
       inkscape:label=""
       transform="translate(28.02803,104.00791)"
       id="g13">
      <g
         fill="#000000"
         fill-opacity="1"
         id="g8"
         transform="matrix(0.352778,0,0,0.352778,-1.06138,-1.64183)">
        <g
           id="g7"
           transform="translate(1.993,21.028999)">
          <path
             d="m 10.328125,-3.84375 h -0.4375 C 9.640625,-2.078125 9.4375,-1.78125 9.34375,-1.640625 9.21875,-1.4375 7.4375,-1.4375 7.09375,-1.4375 H 2.328125 c 0.890625,-0.96875 2.625,-2.71875 4.734375,-4.75 1.515625,-1.4375 3.265625,-3.125 3.265625,-5.578125 C 10.328125,-14.6875 8,-16.375 5.40625,-16.375 c -2.734375,0 -4.390625,2.390625 -4.390625,4.625 0,0.96875 0.71875,1.09375 1.015625,1.09375 0.25,0 0.984375,-0.140625 0.984375,-1.015625 0,-0.765625 -0.640625,-0.984375 -0.984375,-0.984375 -0.140625,0 -0.296875,0.01563 -0.390625,0.0625 0.46875,-2.09375 1.90625,-3.140625 3.421875,-3.140625 2.15625,0 3.5625,1.703125 3.5625,3.96875 0,2.15625 -1.265625,4.015625 -2.671875,5.625 L 1.015625,-0.5625 V 0 h 8.71875 z m 0,0"
             id="path4" />
        </g>
      </g>
      <g
         fill="#000000"
         fill-opacity="1"
         id="g10"
         transform="matrix(0.352778,0,0,0.352778,-1.06138,-1.64183)">
        <g
           id="g9"
           transform="translate(13.36,21.028999)">
          <path
             d="m 4.4375,-5.75 c 0.671875,0 2.359375,-0.046875 3.546875,-0.5 1.875,-0.71875 2.046875,-2.15625 2.046875,-2.59375 0,-1.09375 -0.9375,-2.078125 -2.578125,-2.078125 -2.59375,0 -6.34375,2.34375 -6.34375,6.765625 0,2.59375 1.5,4.40625 3.75,4.40625 3.375,0 5.5,-2.625 5.5,-2.953125 0,-0.140625 -0.15625,-0.265625 -0.25,-0.265625 -0.07813,0 -0.09375,0.015625 -0.328125,0.25 C 8.203125,-0.625 5.84375,-0.25 4.90625,-0.25 3.5,-0.25 2.75,-1.359375 2.75,-3.203125 2.75,-3.546875 2.75,-4.15625 3.125,-5.75 Z M 3.25,-6.25 c 1.0625,-3.8125 3.421875,-4.1875 4.203125,-4.1875 1.09375,0 1.84375,0.65625 1.84375,1.59375 0,2.59375 -3.96875,2.59375 -5.015625,2.59375 z m 0,0"
             id="path9" />
        </g>
      </g>
      <g
         fill="#000000"
         fill-opacity="1"
         id="g12"
         transform="matrix(0.352778,0,0,0.352778,-1.06138,-1.64183)">
        <g
           id="g11"
           transform="translate(24.608999,12.034)">
          <path
             d="m 11.34375,-3.953125 c 0.296875,0 0.609375,0 0.609375,-0.359375 0,-0.34375 -0.3125,-0.34375 -0.609375,-0.34375 h -9.3125 c -0.296875,0 -0.609375,0 -0.609375,0.34375 0,0.359375 0.3125,0.359375 0.609375,0.359375 z m 0,0"
             id="path10" />
        </g>
      </g>
    </g>
    <g
       inkscape:label=""
       transform="matrix(0.61940665,0,0,0.61940665,45.88769,84.125661)"
       id="g43">
      <g
         fill="#000000"
         fill-opacity="1"
         id="g31"
         transform="matrix(0.352778,0,0,0.352778,-1.16611,-0.706217)">
        <g
           id="g29"
           transform="translate(1.993,19.205)">
          <path
             d="M 5.171875,-16.53125 C 5.03125,-16.90625 5,-16.921875 4.484375,-16.921875 H 1.3125 v 0.640625 c 1.703125,0 1.984375,0 1.984375,1.109375 v 12.75 c 0,0.609375 0,1.78125 -1.984375,1.78125 V 0 c 0.578125,-0.046875 1.609375,-0.046875 2.234375,-0.046875 0.609375,0 1.65625,0 2.234375,0.046875 v -0.640625 c -1.984375,0 -1.984375,-1.171875 -1.984375,-1.78125 V -16.1875 H 3.8125 L 9.640625,-0.390625 C 9.734375,-0.15625 9.78125,0 9.984375,0 c 0.203125,0 0.25,-0.15625 0.34375,-0.390625 l 5.875,-15.921875 h 0.03125 v 14.546875 c 0,1.125 -0.28125,1.125 -1.984375,1.125 V 0 c 0.671875,-0.046875 2,-0.046875 2.71875,-0.046875 0.71875,0 2.09375,0 2.75,0.046875 v -0.640625 c -1.703125,0 -1.96875,0 -1.96875,-1.125 v -13.40625 c 0,-1.109375 0.265625,-1.109375 1.96875,-1.109375 v -0.640625 h -3.140625 c -0.515625,0 -0.546875,0.01563 -0.6875,0.390625 L 10.53125,-2 Z m 0,0"
             id="path29" />
        </g>
        <g
           id="g30"
           transform="translate(23.062035,19.205)">
          <path
             d="m 10.6875,-5.296875 c 0,-3.171875 -2.3125,-5.65625 -5.015625,-5.65625 -2.703125,0 -5,2.484375 -5,5.65625 0,3.109375 2.296875,5.5 5,5.5 2.703125,0 5.015625,-2.390625 5.015625,-5.5 z M 5.671875,-0.25 c -1.15625,0 -2.15625,-0.6875 -2.71875,-1.65625 C 2.328125,-3.015625 2.25,-4.40625 2.25,-5.5 c 0,-1.046875 0.046875,-2.328125 0.703125,-3.453125 0.484375,-0.8125 1.453125,-1.609375 2.71875,-1.609375 1.125,0 2.0625,0.625 2.65625,1.5 0.765625,1.15625 0.765625,2.796875 0.765625,3.5625 0,0.96875 -0.046875,2.453125 -0.71875,3.640625 C 7.6875,-0.71875 6.609375,-0.25 5.671875,-0.25 Z m 0,0"
             id="path30" />
        </g>
      </g>
      <g
         fill="#000000"
         fill-opacity="1"
         id="g36"
         transform="matrix(0.352778,0,0,0.352778,-1.16611,-0.706217)">
        <g
           id="g32"
           transform="translate(35.073864,19.205)">
          <path
             d="m 7.234375,-16.921875 v 0.640625 c 1.46875,0 1.6875,0.15625 1.6875,1.34375 v 5.796875 c -0.09375,-0.125 -1.109375,-1.71875 -3.125,-1.71875 -2.53125,0 -4.984375,2.265625 -4.984375,5.53125 0,3.25 2.3125,5.53125 4.734375,5.53125 2.109375,0 3.203125,-1.640625 3.328125,-1.8125 v 1.8125 L 11.875,0 v -0.640625 c -1.46875,0 -1.6875,-0.15625 -1.6875,-1.34375 v -15.21875 z M 8.875,-2.96875 c 0,0.734375 -0.453125,1.40625 -1.015625,1.90625 -0.84375,0.734375 -1.6875,0.859375 -2.15625,0.859375 -0.71875,0 -3.296875,-0.359375 -3.296875,-5.09375 0,-4.859375 2.875,-5.15625 3.515625,-5.15625 1.140625,0 2.0625,0.640625 2.625,1.53125 C 8.875,-8.40625 8.875,-8.328125 8.875,-7.875 Z m 0,0"
             id="path31" />
        </g>
        <g
           id="g33"
           transform="translate(47.737595,19.205)">
          <path
             d="m 9.4375,-5.828125 c 0.109375,-0.09375 0.109375,-0.140625 0.109375,-0.390625 0,-2.53125 -1.34375,-4.734375 -4.171875,-4.734375 -2.625,0 -4.703125,2.5 -4.703125,5.546875 0,3.21875 2.34375,5.609375 4.984375,5.609375 2.765625,0 3.859375,-2.625 3.859375,-3.15625 C 9.515625,-3.125 9.375,-3.125 9.3125,-3.125 9.140625,-3.125 9.125,-3.078125 9.015625,-2.78125 8.46875,-1.09375 7.109375,-0.25 5.828125,-0.25 4.765625,-0.25 3.6875,-0.84375 3.015625,-1.9375 2.25,-3.203125 2.25,-4.65625 2.25,-5.828125 Z M 2.28125,-6.1875 c 0.171875,-3.578125 2.078125,-4.375 3.078125,-4.375 1.671875,0 2.8125,1.59375 2.84375,4.375 z m 0,0"
             id="path32" />
        </g>
        <g
           id="g34"
           transform="translate(57.811069,19.205)">
          <path
             d="m 3.796875,-17.203125 -2.953125,0.28125 v 0.640625 c 1.453125,0 1.6875,0.15625 1.6875,1.34375 v 13.234375 c 0,0.9375 -0.109375,1.0625 -1.6875,1.0625 V 0 c 0.59375,-0.046875 1.6875,-0.046875 2.296875,-0.046875 0.65625,0 1.734375,0 2.34375,0.046875 v -0.640625 c -1.59375,0 -1.6875,-0.109375 -1.6875,-1.0625 z m 0,0"
             id="path33" />
        </g>
        <g
           id="g35"
           transform="translate(63.997932,19.205)">
          <path
             d="m 10.6875,-5.296875 c 0,-3.171875 -2.3125,-5.65625 -5.015625,-5.65625 -2.703125,0 -5,2.484375 -5,5.65625 0,3.109375 2.296875,5.5 5,5.5 2.703125,0 5.015625,-2.390625 5.015625,-5.5 z M 5.671875,-0.25 c -1.15625,0 -2.15625,-0.6875 -2.71875,-1.65625 C 2.328125,-3.015625 2.25,-4.40625 2.25,-5.5 c 0,-1.046875 0.046875,-2.328125 0.703125,-3.453125 0.484375,-0.8125 1.453125,-1.609375 2.71875,-1.609375 1.125,0 2.0625,0.625 2.65625,1.5 0.765625,1.15625 0.765625,2.796875 0.765625,3.5625 0,0.96875 -0.046875,2.453125 -0.71875,3.640625 C 7.6875,-0.71875 6.609375,-0.25 5.671875,-0.25 Z m 0,0"
             id="path34" />
        </g>
      </g>
      <g
         fill="#000000"
         fill-opacity="1"
         id="g42"
         transform="matrix(0.352778,0,0,0.352778,-1.16611,-0.706217)">
        <g
           id="g37"
           transform="translate(82.850998,19.205)">
          <path
             d="m 3.796875,-17.203125 -2.953125,0.28125 v 0.640625 c 1.453125,0 1.6875,0.15625 1.6875,1.34375 v 13.234375 c 0,0.9375 -0.109375,1.0625 -1.6875,1.0625 V 0 c 0.59375,-0.046875 1.6875,-0.046875 2.296875,-0.046875 0.65625,0 1.734375,0 2.34375,0.046875 v -0.640625 c -1.59375,0 -1.6875,-0.109375 -1.6875,-1.0625 z m 0,0"
             id="path36" />
        </g>
        <g
           id="g38"
           transform="translate(89.037857,19.205)">
          <path
             d="m 3.84375,-15.265625 c 0,-0.546875 -0.453125,-1.015625 -1.015625,-1.015625 -0.546875,0 -1.015625,0.453125 -1.015625,1.015625 0,0.546875 0.4375,1.015625 1.015625,1.015625 0.546875,0 1.015625,-0.4375 1.015625,-1.015625 z m -2.90625,4.6875 V -9.9375 c 1.390625,0 1.59375,0.15625 1.59375,1.34375 v 6.890625 c 0,0.9375 -0.109375,1.0625 -1.6875,1.0625 V 0 C 1.4375,-0.046875 2.5,-0.046875 3.125,-0.046875 c 0.59375,0 1.609375,0 2.171875,0.046875 v -0.640625 c -1.453125,0 -1.5,-0.15625 -1.5,-1.046875 v -9.171875 z m 0,0"
             id="path37" />
        </g>
        <g
           id="g39"
           transform="translate(95.224716,19.205)">
          <path
             d="m 3.71875,-17.203125 -2.953125,0.28125 v 0.640625 c 1.46875,0 1.6875,0.15625 1.6875,1.34375 V 0 H 2.90625 L 3.625,-1.765625 c 0.71875,1.171875 1.78125,1.96875 3.21875,1.96875 2.46875,0 4.984375,-2.1875 4.984375,-5.5625 0,-3.171875 -2.234375,-5.5 -4.734375,-5.5 -1.546875,0 -2.640625,0.828125 -3.375,1.796875 z M 3.765625,-7.8125 c 0,-0.4375 0,-0.515625 0.34375,-1.03125 0.96875,-1.484375 2.359375,-1.609375 2.828125,-1.609375 0.75,0 3.296875,0.390625 3.296875,5.078125 0,4.90625 -2.921875,5.171875 -3.515625,5.171875 -0.765625,0 -1.890625,-0.296875 -2.671875,-1.734375 -0.28125,-0.46875 -0.28125,-0.515625 -0.28125,-0.96875 z m 0,0"
             id="path38" />
        </g>
        <g
           id="g40"
           transform="translate(107.88845,19.205)">
          <path
             d="m 3.71875,-5.84375 c 0,-2.390625 1.015625,-4.609375 2.875,-4.609375 0.171875,0 0.34375,0.01563 0.515625,0.09375 0,0 -0.546875,0.171875 -0.546875,0.8125 0,0.59375 0.46875,0.84375 0.84375,0.84375 0.296875,0 0.84375,-0.171875 0.84375,-0.859375 0,-0.796875 -0.796875,-1.296875 -1.640625,-1.296875 -1.875,0 -2.6875,1.84375 -2.9375,2.703125 h -0.03125 v -2.703125 l -2.875,0.28125 V -9.9375 c 1.46875,0 1.6875,0.15625 1.6875,1.34375 v 6.890625 c 0,0.9375 -0.09375,1.0625 -1.6875,1.0625 V 0 c 0.59375,-0.046875 1.734375,-0.046875 2.375,-0.046875 0.71875,0 1.984375,0 2.65625,0.046875 v -0.640625 c -1.78125,0 -2.078125,0 -2.078125,-1.125 z m 0,0"
             id="path39" />
        </g>
        <g
           id="g41"
           transform="translate(116.66556,19.205)">
          <path
             d="m 9.4375,-5.828125 c 0.109375,-0.09375 0.109375,-0.140625 0.109375,-0.390625 0,-2.53125 -1.34375,-4.734375 -4.171875,-4.734375 -2.625,0 -4.703125,2.5 -4.703125,5.546875 0,3.21875 2.34375,5.609375 4.984375,5.609375 2.765625,0 3.859375,-2.625 3.859375,-3.15625 C 9.515625,-3.125 9.375,-3.125 9.3125,-3.125 9.140625,-3.125 9.125,-3.078125 9.015625,-2.78125 8.46875,-1.09375 7.109375,-0.25 5.828125,-0.25 4.765625,-0.25 3.6875,-0.84375 3.015625,-1.9375 2.25,-3.203125 2.25,-4.65625 2.25,-5.828125 Z M 2.28125,-6.1875 c 0.171875,-3.578125 2.078125,-4.375 3.078125,-4.375 1.671875,0 2.8125,1.59375 2.84375,4.375 z m 0,0"
             id="path40" />
        </g>
      </g>
    </g>
    <g
       inkscape:label=""
       transform="matrix(0.61940665,0,0,0.61940665,83.139799,84.479739)"
       id="g57">
      <g
         fill="#000000"
         fill-opacity="1"
         id="g46"
         transform="matrix(0.352778,0,0,0.352778,-1.16611,-0.706217)">
        <g
           id="g44"
           transform="translate(1.993,19.205)">
          <path
             d="M 5.171875,-16.53125 C 5.03125,-16.90625 5,-16.921875 4.484375,-16.921875 H 1.3125 v 0.640625 c 1.703125,0 1.984375,0 1.984375,1.109375 v 12.75 c 0,0.609375 0,1.78125 -1.984375,1.78125 V 0 c 0.578125,-0.046875 1.609375,-0.046875 2.234375,-0.046875 0.609375,0 1.65625,0 2.234375,0.046875 v -0.640625 c -1.984375,0 -1.984375,-1.171875 -1.984375,-1.78125 V -16.1875 H 3.8125 L 9.640625,-0.390625 C 9.734375,-0.15625 9.78125,0 9.984375,0 c 0.203125,0 0.25,-0.15625 0.34375,-0.390625 l 5.875,-15.921875 h 0.03125 v 14.546875 c 0,1.125 -0.28125,1.125 -1.984375,1.125 V 0 c 0.671875,-0.046875 2,-0.046875 2.71875,-0.046875 0.71875,0 2.09375,0 2.75,0.046875 v -0.640625 c -1.703125,0 -1.96875,0 -1.96875,-1.125 v -13.40625 c 0,-1.109375 0.265625,-1.109375 1.96875,-1.109375 v -0.640625 h -3.140625 c -0.515625,0 -0.546875,0.01563 -0.6875,0.390625 L 10.53125,-2 Z m 0,0"
             id="path43" />
        </g>
        <g
           id="g45"
           transform="translate(23.062035,19.205)">
          <path
             d="m 10.6875,-5.296875 c 0,-3.171875 -2.3125,-5.65625 -5.015625,-5.65625 -2.703125,0 -5,2.484375 -5,5.65625 0,3.109375 2.296875,5.5 5,5.5 2.703125,0 5.015625,-2.390625 5.015625,-5.5 z M 5.671875,-0.25 c -1.15625,0 -2.15625,-0.6875 -2.71875,-1.65625 C 2.328125,-3.015625 2.25,-4.40625 2.25,-5.5 c 0,-1.046875 0.046875,-2.328125 0.703125,-3.453125 0.484375,-0.8125 1.453125,-1.609375 2.71875,-1.609375 1.125,0 2.0625,0.625 2.65625,1.5 0.765625,1.15625 0.765625,2.796875 0.765625,3.5625 0,0.96875 -0.046875,2.453125 -0.71875,3.640625 C 7.6875,-0.71875 6.609375,-0.25 5.671875,-0.25 Z m 0,0"
             id="path44" />
        </g>
      </g>
      <g
         fill="#000000"
         fill-opacity="1"
         id="g51"
         transform="matrix(0.352778,0,0,0.352778,-1.16611,-0.706217)">
        <g
           id="g47"
           transform="translate(35.073864,19.205)">
          <path
             d="m 7.234375,-16.921875 v 0.640625 c 1.46875,0 1.6875,0.15625 1.6875,1.34375 v 5.796875 c -0.09375,-0.125 -1.109375,-1.71875 -3.125,-1.71875 -2.53125,0 -4.984375,2.265625 -4.984375,5.53125 0,3.25 2.3125,5.53125 4.734375,5.53125 2.109375,0 3.203125,-1.640625 3.328125,-1.8125 v 1.8125 L 11.875,0 v -0.640625 c -1.46875,0 -1.6875,-0.15625 -1.6875,-1.34375 v -15.21875 z M 8.875,-2.96875 c 0,0.734375 -0.453125,1.40625 -1.015625,1.90625 -0.84375,0.734375 -1.6875,0.859375 -2.15625,0.859375 -0.71875,0 -3.296875,-0.359375 -3.296875,-5.09375 0,-4.859375 2.875,-5.15625 3.515625,-5.15625 1.140625,0 2.0625,0.640625 2.625,1.53125 C 8.875,-8.40625 8.875,-8.328125 8.875,-7.875 Z m 0,0"
             id="path46" />
        </g>
        <g
           id="g48"
           transform="translate(47.737595,19.205)">
          <path
             d="m 9.4375,-5.828125 c 0.109375,-0.09375 0.109375,-0.140625 0.109375,-0.390625 0,-2.53125 -1.34375,-4.734375 -4.171875,-4.734375 -2.625,0 -4.703125,2.5 -4.703125,5.546875 0,3.21875 2.34375,5.609375 4.984375,5.609375 2.765625,0 3.859375,-2.625 3.859375,-3.15625 C 9.515625,-3.125 9.375,-3.125 9.3125,-3.125 9.140625,-3.125 9.125,-3.078125 9.015625,-2.78125 8.46875,-1.09375 7.109375,-0.25 5.828125,-0.25 4.765625,-0.25 3.6875,-0.84375 3.015625,-1.9375 2.25,-3.203125 2.25,-4.65625 2.25,-5.828125 Z M 2.28125,-6.1875 c 0.171875,-3.578125 2.078125,-4.375 3.078125,-4.375 1.671875,0 2.8125,1.59375 2.84375,4.375 z m 0,0"
             id="path47" />
        </g>
        <g
           id="g49"
           transform="translate(57.811069,19.205)">
          <path
             d="m 3.796875,-17.203125 -2.953125,0.28125 v 0.640625 c 1.453125,0 1.6875,0.15625 1.6875,1.34375 v 13.234375 c 0,0.9375 -0.109375,1.0625 -1.6875,1.0625 V 0 c 0.59375,-0.046875 1.6875,-0.046875 2.296875,-0.046875 0.65625,0 1.734375,0 2.34375,0.046875 v -0.640625 c -1.59375,0 -1.6875,-0.109375 -1.6875,-1.0625 z m 0,0"
             id="path48" />
        </g>
        <g
           id="g50"
           transform="translate(63.997932,19.205)">
          <path
             d="m 10.6875,-5.296875 c 0,-3.171875 -2.3125,-5.65625 -5.015625,-5.65625 -2.703125,0 -5,2.484375 -5,5.65625 0,3.109375 2.296875,5.5 5,5.5 2.703125,0 5.015625,-2.390625 5.015625,-5.5 z M 5.671875,-0.25 c -1.15625,0 -2.15625,-0.6875 -2.71875,-1.65625 C 2.328125,-3.015625 2.25,-4.40625 2.25,-5.5 c 0,-1.046875 0.046875,-2.328125 0.703125,-3.453125 0.484375,-0.8125 1.453125,-1.609375 2.71875,-1.609375 1.125,0 2.0625,0.625 2.65625,1.5 0.765625,1.15625 0.765625,2.796875 0.765625,3.5625 0,0.96875 -0.046875,2.453125 -0.71875,3.640625 C 7.6875,-0.71875 6.609375,-0.25 5.671875,-0.25 Z m 0,0"
             id="path49" />
        </g>
      </g>
      <g
         fill="#000000"
         fill-opacity="1"
         id="g27"
         transform="matrix(0.352778,0,0,0.352778,-1.16611,-0.706217)">
        <g
           id="g52"
           transform="translate(82.850998,19.205)">
          <path
             d="m 8.65625,-8.671875 c -0.484375,0 -1.171875,0 -1.171875,0.859375 0,0.703125 0.5625,0.90625 0.890625,0.90625 0.171875,0 0.890625,-0.078125 0.890625,-0.953125 0,-1.75 -1.6875,-3.09375 -3.59375,-3.09375 -2.625,0 -4.859375,2.421875 -4.859375,5.59375 0,3.296875 2.328125,5.5625 4.859375,5.5625 3.078125,0 3.84375,-2.859375 3.84375,-3.125 0,-0.09375 -0.03125,-0.171875 -0.203125,-0.171875 -0.171875,0 -0.1875,0.015625 -0.296875,0.34375 -0.640625,2 -2.046875,2.5 -3.125,2.5 -1.578125,0 -3.484375,-1.453125 -3.484375,-5.125 0,-3.765625 1.828125,-5.125 3.296875,-5.125 0.96875,0 2.40625,0.46875 2.953125,1.828125 z m 0,0"
             id="path51" />
        </g>
        <g
           id="use19"
           transform="translate(92.924477,19.205)">
          <path
             d="m 8.921875,-6.421875 c 0,-1.625 0,-2.5 -1.046875,-3.46875 -0.90625,-0.8125 -1.984375,-1.0625 -2.8125,-1.0625 -1.96875,0 -3.375,1.53125 -3.375,3.171875 0,0.921875 0.734375,0.96875 0.890625,0.96875 0.328125,0 0.890625,-0.203125 0.890625,-0.890625 0,-0.625 -0.46875,-0.890625 -0.890625,-0.890625 -0.09375,0 -0.21875,0.015625 -0.296875,0.046875 C 2.796875,-10.109375 4.140625,-10.5625 5,-10.5625 c 1.25,0 2.609375,1.09375 2.609375,3.171875 v 1.09375 C 6.140625,-6.25 4.390625,-6.046875 3,-5.296875 1.4375,-4.4375 0.984375,-3.203125 0.984375,-2.25 c 0,1.90625 2.234375,2.453125 3.546875,2.453125 1.359375,0 2.625,-0.765625 3.171875,-2.1875 0.046875,1.09375 0.75,2.078125 1.84375,2.078125 C 10.0625,0.09375 11.375,-0.25 11.375,-2.203125 V -3.59375 h -0.453125 v 1.40625 c 0,1.515625 -0.65625,1.71875 -0.984375,1.71875 -1.015625,0 -1.015625,-1.296875 -1.015625,-2.375 z m -1.3125,2.984375 c 0,2.15625 -1.53125,3.234375 -2.90625,3.234375 C 3.46875,-0.203125 2.5,-1.109375 2.5,-2.25 2.5,-3 2.828125,-4.3125 4.265625,-5.109375 5.453125,-5.78125 6.8125,-5.875 7.609375,-5.921875 Z m 0,0"
             id="path52" />
        </g>
        <g
           id="use20"
           transform="translate(104.29184,19.205)">
          <path
             d="m 7.65625,-10.453125 c 0,-0.453125 -0.03125,-0.46875 -0.171875,-0.46875 -0.09375,0 -0.125,0.01563 -0.421875,0.390625 -0.078125,0.09375 -0.296875,0.34375 -0.375,0.4375 -0.796875,-0.828125 -1.90625,-0.859375 -2.328125,-0.859375 -2.75,0 -3.734375,1.4375 -3.734375,2.875 0,2.234375 2.515625,2.75 3.234375,2.90625 1.5625,0.3125 2.109375,0.40625 2.640625,0.859375 0.3125,0.296875 0.859375,0.84375 0.859375,1.734375 0,1.046875 -0.59375,2.375 -2.875,2.375 -2.15625,0 -2.921875,-1.625 -3.375,-3.8125 -0.0625,-0.34375 -0.0625,-0.375 -0.265625,-0.375 -0.203125,0 -0.21875,0.03125 -0.21875,0.53125 v 3.5625 c 0,0.453125 0.015625,0.46875 0.171875,0.46875 0.125,0 0.140625,-0.015625 0.265625,-0.21875 0.15625,-0.21875 0.53125,-0.828125 0.671875,-1.0625 0.5,0.65625 1.359375,1.3125 2.75,1.3125 C 6.9375,0.203125 8.25,-1.140625 8.25,-3.078125 8.25,-4.34375 7.578125,-5 7.265625,-5.296875 6.515625,-6.078125 5.65625,-6.25 4.609375,-6.4375 3.25,-6.734375 1.515625,-7.09375 1.515625,-8.59375 c 0,-0.65625 0.34375,-2.015625 2.84375,-2.015625 2.65625,0 2.796875,2.484375 2.859375,3.28125 0.015625,0.109375 0.140625,0.140625 0.21875,0.140625 0.21875,0 0.21875,-0.078125 0.21875,-0.5 z m 0,0"
             id="path35" />
        </g>
        <g
           id="use21"
           transform="translate(113.20033,19.205)">
          <path
             d="m 3.84375,-15.265625 c 0,-0.546875 -0.453125,-1.015625 -1.015625,-1.015625 -0.546875,0 -1.015625,0.453125 -1.015625,1.015625 0,0.546875 0.4375,1.015625 1.015625,1.015625 0.546875,0 1.015625,-0.4375 1.015625,-1.015625 z m -2.90625,4.6875 V -9.9375 c 1.390625,0 1.59375,0.15625 1.59375,1.34375 v 6.890625 c 0,0.9375 -0.109375,1.0625 -1.6875,1.0625 V 0 C 1.4375,-0.046875 2.5,-0.046875 3.125,-0.046875 c 0.59375,0 1.609375,0 2.171875,0.046875 v -0.640625 c -1.453125,0 -1.5,-0.15625 -1.5,-1.046875 v -9.171875 z m 0,0"
             id="path53" />
        </g>
        <g
           id="use22"
           transform="translate(119.38718,19.205)">
          <path
             d="M 6.3125,-4.78125 V -5.875 H 0.09375 v 1.09375 z m 0,0"
             id="path54" />
        </g>
        <g
           id="use23"
           transform="translate(126.87041,19.205)">
          <path
             d="m 3.796875,-17.203125 -2.953125,0.28125 v 0.640625 c 1.453125,0 1.6875,0.15625 1.6875,1.34375 v 13.234375 c 0,0.9375 -0.109375,1.0625 -1.6875,1.0625 V 0 c 0.59375,-0.046875 1.6875,-0.046875 2.296875,-0.046875 0.65625,0 1.734375,0 2.34375,0.046875 v -0.640625 c -1.59375,0 -1.6875,-0.109375 -1.6875,-1.0625 z m 0,0"
             id="path55" />
        </g>
        <g
           id="use24"
           transform="translate(133.05727,19.205)">
          <path
             d="m 3.84375,-15.265625 c 0,-0.546875 -0.453125,-1.015625 -1.015625,-1.015625 -0.546875,0 -1.015625,0.453125 -1.015625,1.015625 0,0.546875 0.4375,1.015625 1.015625,1.015625 0.546875,0 1.015625,-0.4375 1.015625,-1.015625 z m -2.90625,4.6875 V -9.9375 c 1.390625,0 1.59375,0.15625 1.59375,1.34375 v 6.890625 c 0,0.9375 -0.109375,1.0625 -1.6875,1.0625 V 0 C 1.4375,-0.046875 2.5,-0.046875 3.125,-0.046875 c 0.59375,0 1.609375,0 2.171875,0.046875 v -0.640625 c -1.453125,0 -1.5,-0.15625 -1.5,-1.046875 v -9.171875 z m 0,0"
             id="path56" />
        </g>
        <g
           id="use25"
           transform="translate(139.24413,19.205)">
          <path
             d="m 3.71875,-17.203125 -2.953125,0.28125 v 0.640625 c 1.46875,0 1.6875,0.15625 1.6875,1.34375 V 0 H 2.90625 L 3.625,-1.765625 c 0.71875,1.171875 1.78125,1.96875 3.21875,1.96875 2.46875,0 4.984375,-2.1875 4.984375,-5.5625 0,-3.171875 -2.234375,-5.5 -4.734375,-5.5 -1.546875,0 -2.640625,0.828125 -3.375,1.796875 z M 3.765625,-7.8125 c 0,-0.4375 0,-0.515625 0.34375,-1.03125 0.96875,-1.484375 2.359375,-1.609375 2.828125,-1.609375 0.75,0 3.296875,0.390625 3.296875,5.078125 0,4.90625 -2.921875,5.171875 -3.515625,5.171875 -0.765625,0 -1.890625,-0.296875 -2.671875,-1.734375 -0.28125,-0.46875 -0.28125,-0.515625 -0.28125,-0.96875 z m 0,0"
             id="path57" />
        </g>
        <g
           id="use26"
           transform="translate(151.90787,19.205)">
          <path
             d="m 3.71875,-5.84375 c 0,-2.390625 1.015625,-4.609375 2.875,-4.609375 0.171875,0 0.34375,0.01563 0.515625,0.09375 0,0 -0.546875,0.171875 -0.546875,0.8125 0,0.59375 0.46875,0.84375 0.84375,0.84375 0.296875,0 0.84375,-0.171875 0.84375,-0.859375 0,-0.796875 -0.796875,-1.296875 -1.640625,-1.296875 -1.875,0 -2.6875,1.84375 -2.9375,2.703125 h -0.03125 v -2.703125 l -2.875,0.28125 V -9.9375 c 1.46875,0 1.6875,0.15625 1.6875,1.34375 v 6.890625 c 0,0.9375 -0.09375,1.0625 -1.6875,1.0625 V 0 c 0.59375,-0.046875 1.734375,-0.046875 2.375,-0.046875 0.71875,0 1.984375,0 2.65625,0.046875 v -0.640625 c -1.78125,0 -2.078125,0 -2.078125,-1.125 z m 0,0"
             id="path41" />
        </g>
        <g
           id="use27"
           transform="translate(160.68497,19.205)">
          <path
             d="m 9.4375,-5.828125 c 0.109375,-0.09375 0.109375,-0.140625 0.109375,-0.390625 0,-2.53125 -1.34375,-4.734375 -4.171875,-4.734375 -2.625,0 -4.703125,2.5 -4.703125,5.546875 0,3.21875 2.34375,5.609375 4.984375,5.609375 2.765625,0 3.859375,-2.625 3.859375,-3.15625 C 9.515625,-3.125 9.375,-3.125 9.3125,-3.125 9.140625,-3.125 9.125,-3.078125 9.015625,-2.78125 8.46875,-1.09375 7.109375,-0.25 5.828125,-0.25 4.765625,-0.25 3.6875,-0.84375 3.015625,-1.9375 2.25,-3.203125 2.25,-4.65625 2.25,-5.828125 Z M 2.28125,-6.1875 c 0.171875,-3.578125 2.078125,-4.375 3.078125,-4.375 1.671875,0 2.8125,1.59375 2.84375,4.375 z m 0,0"
             id="path42" />
        </g>
      </g>
    </g>
    <g
       inkscape:label=""
       transform="matrix(0.61940665,0,0,0.61940665,128.98077,84.425111)"
       id="g71">
      <g
         fill="#000000"
         fill-opacity="1"
         id="g64"
         transform="matrix(0.352778,0,0,0.352778,-1.14957,-0.640071)">
        <g
           id="g58"
           transform="translate(1.993,19.205)">
          <path
             d="M 15.046875,-6.265625 H 14.59375 c -0.546875,3.640625 -0.859375,5.625 -5.21875,5.625 H 5.921875 c -0.984375,0 -1.046875,-0.125 -1.046875,-0.96875 v -6.84375 h 2.34375 c 2.328125,0 2.546875,0.84375 2.546875,2.90625 h 0.4375 V -12 h -0.4375 c 0,2.0625 -0.21875,2.90625 -2.546875,2.90625 H 4.875 v -6.171875 c 0,-0.84375 0.0625,-0.96875 1.046875,-0.96875 H 9.3125 c 3.84375,0 4.296875,1.546875 4.640625,4.828125 h 0.4375 L 13.796875,-16.875 H 1.265625 v 0.640625 c 1.703125,0 1.984375,0 1.984375,1.125 v 13.34375 c 0,1.125 -0.28125,1.125 -1.984375,1.125 V 0 H 14.15625 Z m 0,0"
             id="path58" />
        </g>
        <g
           id="g59"
           transform="translate(17.564257,19.205)">
          <path
             d="m 10.28125,-7.53125 c 0,-1.265625 -0.25,-3.328125 -3.171875,-3.328125 -1.953125,0 -2.96875,1.515625 -3.34375,2.515625 h -0.03125 v -2.515625 L 0.8125,-10.578125 V -9.9375 c 1.46875,0 1.6875,0.15625 1.6875,1.34375 v 6.890625 c 0,0.9375 -0.09375,1.0625 -1.6875,1.0625 V 0 C 1.40625,-0.046875 2.5,-0.046875 3.140625,-0.046875 c 0.65625,0 1.765625,0 2.359375,0.046875 v -0.640625 c -1.578125,0 -1.6875,-0.109375 -1.6875,-1.0625 V -6.46875 c 0,-2.28125 1.390625,-3.984375 3.125,-3.984375 1.828125,0 2.03125,1.625 2.03125,2.828125 v 5.921875 c 0,0.9375 -0.09375,1.0625 -1.6875,1.0625 V 0 c 0.59375,-0.046875 1.6875,-0.046875 2.328125,-0.046875 0.65625,0 1.765625,0 2.359375,0.046875 v -0.640625 c -1.578125,0 -1.6875,-0.109375 -1.6875,-1.0625 z m 0,0"
             id="path59" />
        </g>
        <g
           id="g60"
           transform="translate(30.227985,19.205)">
          <path
             d="m 3.796875,-17.203125 -2.953125,0.28125 v 0.640625 c 1.453125,0 1.6875,0.15625 1.6875,1.34375 v 13.234375 c 0,0.9375 -0.109375,1.0625 -1.6875,1.0625 V 0 c 0.59375,-0.046875 1.6875,-0.046875 2.296875,-0.046875 0.65625,0 1.734375,0 2.34375,0.046875 v -0.640625 c -1.59375,0 -1.6875,-0.109375 -1.6875,-1.0625 z m 0,0"
             id="path60" />
        </g>
        <g
           id="g61"
           transform="translate(36.414845,19.205)">
          <path
             d="m 8.921875,-6.421875 c 0,-1.625 0,-2.5 -1.046875,-3.46875 -0.90625,-0.8125 -1.984375,-1.0625 -2.8125,-1.0625 -1.96875,0 -3.375,1.53125 -3.375,3.171875 0,0.921875 0.734375,0.96875 0.890625,0.96875 0.328125,0 0.890625,-0.203125 0.890625,-0.890625 0,-0.625 -0.46875,-0.890625 -0.890625,-0.890625 -0.09375,0 -0.21875,0.015625 -0.296875,0.046875 C 2.796875,-10.109375 4.140625,-10.5625 5,-10.5625 c 1.25,0 2.609375,1.09375 2.609375,3.171875 v 1.09375 C 6.140625,-6.25 4.390625,-6.046875 3,-5.296875 1.4375,-4.4375 0.984375,-3.203125 0.984375,-2.25 c 0,1.90625 2.234375,2.453125 3.546875,2.453125 1.359375,0 2.625,-0.765625 3.171875,-2.1875 0.046875,1.09375 0.75,2.078125 1.84375,2.078125 C 10.0625,0.09375 11.375,-0.25 11.375,-2.203125 V -3.59375 h -0.453125 v 1.40625 c 0,1.515625 -0.65625,1.71875 -0.984375,1.71875 -1.015625,0 -1.015625,-1.296875 -1.015625,-2.375 z m -1.3125,2.984375 c 0,2.15625 -1.53125,3.234375 -2.90625,3.234375 C 3.46875,-0.203125 2.5,-1.109375 2.5,-2.25 2.5,-3 2.828125,-4.3125 4.265625,-5.109375 5.453125,-5.78125 6.8125,-5.875 7.609375,-5.921875 Z m 0,0"
             id="path61" />
        </g>
        <g
           id="g62"
           transform="translate(47.782211,19.205)">
          <path
             d="m 8.65625,-8.671875 c -0.484375,0 -1.171875,0 -1.171875,0.859375 0,0.703125 0.5625,0.90625 0.890625,0.90625 0.171875,0 0.890625,-0.078125 0.890625,-0.953125 0,-1.75 -1.6875,-3.09375 -3.59375,-3.09375 -2.625,0 -4.859375,2.421875 -4.859375,5.59375 0,3.296875 2.328125,5.5625 4.859375,5.5625 3.078125,0 3.84375,-2.859375 3.84375,-3.125 0,-0.09375 -0.03125,-0.171875 -0.203125,-0.171875 -0.171875,0 -0.1875,0.015625 -0.296875,0.34375 -0.640625,2 -2.046875,2.5 -3.125,2.5 -1.578125,0 -3.484375,-1.453125 -3.484375,-5.125 0,-3.765625 1.828125,-5.125 3.296875,-5.125 0.96875,0 2.40625,0.46875 2.953125,1.828125 z m 0,0"
             id="path62" />
        </g>
        <g
           id="g63"
           transform="translate(57.855686,19.205)">
          <path
             d="m 9.4375,-5.828125 c 0.109375,-0.09375 0.109375,-0.140625 0.109375,-0.390625 0,-2.53125 -1.34375,-4.734375 -4.171875,-4.734375 -2.625,0 -4.703125,2.5 -4.703125,5.546875 0,3.21875 2.34375,5.609375 4.984375,5.609375 2.765625,0 3.859375,-2.625 3.859375,-3.15625 C 9.515625,-3.125 9.375,-3.125 9.3125,-3.125 9.140625,-3.125 9.125,-3.078125 9.015625,-2.78125 8.46875,-1.09375 7.109375,-0.25 5.828125,-0.25 4.765625,-0.25 3.6875,-0.84375 3.015625,-1.9375 2.25,-3.203125 2.25,-4.65625 2.25,-5.828125 Z M 2.28125,-6.1875 c 0.171875,-3.578125 2.078125,-4.375 3.078125,-4.375 1.671875,0 2.8125,1.59375 2.84375,4.375 z m 0,0"
             id="path63" />
        </g>
      </g>
      <g
         fill="#000000"
         fill-opacity="1"
         id="g21"
         transform="matrix(0.352778,0,0,0.352778,-1.14957,-0.640071)">
        <g
           id="g65"
           transform="translate(75.414871,19.205)">
          <path
             d="m 3.796875,-10.015625 h 2.8125 v -0.640625 h -2.875 v -3 C 3.734375,-15.71875 4.78125,-17 5.84375,-17 c 0.328125,0 0.703125,0.09375 0.953125,0.265625 -0.203125,0.0625 -0.71875,0.234375 -0.71875,0.84375 0,0.65625 0.484375,0.84375 0.828125,0.84375 0.359375,0 0.84375,-0.1875 0.84375,-0.84375 0,-0.9375 -0.890625,-1.5 -1.875,-1.5 -1.421875,0 -3.34375,1.15625 -3.34375,3.78125 v 2.953125 H 0.546875 v 0.640625 H 2.53125 v 8.3125 c 0,0.9375 -0.109375,1.0625 -1.6875,1.0625 V 0 c 0.59375,-0.046875 1.734375,-0.046875 2.375,-0.046875 0.71875,0 1.984375,0 2.65625,0.046875 v -0.640625 c -1.78125,0 -2.078125,0 -2.078125,-1.125 z m 0,0"
             id="path64" />
        </g>
        <g
           id="g66"
           transform="translate(82.251152,19.205)">
          <path
             d="M 7.28125,-10.578125 V -9.9375 c 1.46875,0 1.6875,0.15625 1.6875,1.34375 v 4.5 c 0,2.09375 -1.109375,3.890625 -2.953125,3.890625 -2.03125,0 -2.203125,-1.203125 -2.203125,-2.5 v -8.15625 l -3,0.28125 V -9.9375 c 1,0 1.671875,0 1.6875,0.984375 V -4.1875 c 0,1.65625 0,2.71875 0.640625,3.421875 0.328125,0.3125 0.953125,0.96875 2.734375,0.96875 2.109375,0 2.921875,-1.796875 3.125,-2.3125 h 0.015625 v 2.3125 L 11.96875,0 v -0.640625 c -1.46875,0 -1.6875,-0.15625 -1.6875,-1.34375 v -8.875 z m 0,0"
             id="path65" />
        </g>
        <g
           id="g67"
           transform="translate(94.914879,19.205)">
          <path
             d="m 9.4375,-5.828125 c 0.109375,-0.09375 0.109375,-0.140625 0.109375,-0.390625 0,-2.53125 -1.34375,-4.734375 -4.171875,-4.734375 -2.625,0 -4.703125,2.5 -4.703125,5.546875 0,3.21875 2.34375,5.609375 4.984375,5.609375 2.765625,0 3.859375,-2.625 3.859375,-3.15625 C 9.515625,-3.125 9.375,-3.125 9.3125,-3.125 9.140625,-3.125 9.125,-3.078125 9.015625,-2.78125 8.46875,-1.09375 7.109375,-0.25 5.828125,-0.25 4.765625,-0.25 3.6875,-0.84375 3.015625,-1.9375 2.25,-3.203125 2.25,-4.65625 2.25,-5.828125 Z M 2.28125,-6.1875 c 0.171875,-3.578125 2.078125,-4.375 3.078125,-4.375 1.671875,0 2.8125,1.59375 2.84375,4.375 z m 0,0"
             id="path66" />
        </g>
        <g
           id="g68"
           transform="translate(104.98836,19.205)">
          <path
             d="m 3.71875,-5.84375 c 0,-2.390625 1.015625,-4.609375 2.875,-4.609375 0.171875,0 0.34375,0.01563 0.515625,0.09375 0,0 -0.546875,0.171875 -0.546875,0.8125 0,0.59375 0.46875,0.84375 0.84375,0.84375 0.296875,0 0.84375,-0.171875 0.84375,-0.859375 0,-0.796875 -0.796875,-1.296875 -1.640625,-1.296875 -1.875,0 -2.6875,1.84375 -2.9375,2.703125 h -0.03125 v -2.703125 l -2.875,0.28125 V -9.9375 c 1.46875,0 1.6875,0.15625 1.6875,1.34375 v 6.890625 c 0,0.9375 -0.09375,1.0625 -1.6875,1.0625 V 0 c 0.59375,-0.046875 1.734375,-0.046875 2.375,-0.046875 0.71875,0 1.984375,0 2.65625,0.046875 v -0.640625 c -1.78125,0 -2.078125,0 -2.078125,-1.125 z m 0,0"
             id="path67" />
        </g>
        <g
           id="g69"
           transform="translate(113.76547,19.205)">
          <path
             d="M 3.734375,-10.015625 H 7.21875 V -10.65625 H 3.734375 v -4.578125 h -0.4375 C 3.25,-12.6875 2.375,-10.453125 0.265625,-10.40625 v 0.390625 h 2.15625 v 6.96875 c 0,0.46875 0,3.25 2.875,3.25 1.46875,0 2.3125,-1.4375 2.3125,-3.28125 v -1.40625 H 7.15625 V -3.09375 C 7.15625,-1.390625 6.5,-0.25 5.453125,-0.25 c -0.71875,0 -1.71875,-0.5 -1.71875,-2.75 z m 0,0"
             id="path68" />
        </g>
        <g
           id="g70"
           transform="translate(122.54258,19.205)">
          <path
             d="m 9.4375,-5.828125 c 0.109375,-0.09375 0.109375,-0.140625 0.109375,-0.390625 0,-2.53125 -1.34375,-4.734375 -4.171875,-4.734375 -2.625,0 -4.703125,2.5 -4.703125,5.546875 0,3.21875 2.34375,5.609375 4.984375,5.609375 2.765625,0 3.859375,-2.625 3.859375,-3.15625 C 9.515625,-3.125 9.375,-3.125 9.3125,-3.125 9.140625,-3.125 9.125,-3.078125 9.015625,-2.78125 8.46875,-1.09375 7.109375,-0.25 5.828125,-0.25 4.765625,-0.25 3.6875,-0.84375 3.015625,-1.9375 2.25,-3.203125 2.25,-4.65625 2.25,-5.828125 Z M 2.28125,-6.1875 c 0.171875,-3.578125 2.078125,-4.375 3.078125,-4.375 1.671875,0 2.8125,1.59375 2.84375,4.375 z m 0,0"
             id="path69" />
        </g>
      </g>
    </g>
  </g>
</svg>
