<?xml version="1.0" encoding="UTF-8" standalone="no"?>
<!-- Created with Inkscape (http://www.inkscape.org/) -->

<svg
   width="65.265457mm"
   height="51.143036mm"
   viewBox="0 0 65.265457 51.143035"
   version="1.1"
   id="svg1"
   inkscape:version="1.3 (0e150ed6c4, 2023-07-21)"
   sodipodi:docname="Dispersion2.svg"
   xmlns:inkscape="http://www.inkscape.org/namespaces/inkscape"
   xmlns:sodipodi="http://sodipodi.sourceforge.net/DTD/sodipodi-0.dtd"
   xmlns="http://www.w3.org/2000/svg"
   xmlns:svg="http://www.w3.org/2000/svg">
  <sodipodi:namedview
     id="namedview1"
     pagecolor="#505050"
     bordercolor="#eeeeee"
     borderopacity="1"
     inkscape:showpageshadow="0"
     inkscape:pageopacity="0"
     inkscape:pagecheckerboard="0"
     inkscape:deskcolor="#d1d1d1"
     inkscape:document-units="mm"
     inkscape:zoom="3.2052381"
     inkscape:cx="129.47556"
     inkscape:cy="96.404694"
     inkscape:window-width="1908"
     inkscape:window-height="1066"
     inkscape:window-x="1924"
     inkscape:window-y="5"
     inkscape:window-maximized="1"
     inkscape:current-layer="layer1" />
  <defs
     id="defs1" />
  <g
     inkscape:label="Layer 1"
     inkscape:groupmode="layer"
     id="layer1"
     transform="translate(-40.60026,-52.564436)">
    <rect
       style="font-variation-settings:normal;opacity:1;vector-effect:none;fill:none;fill-opacity:1;fill-rule:evenodd;stroke:#000000;stroke-width:0.30981;stroke-linecap:round;stroke-linejoin:miter;stroke-miterlimit:2;stroke-dasharray:none;stroke-dashoffset:0;stroke-opacity:1;-inkscape-stroke:none;paint-order:stroke fill markers;stop-color:#000000;stop-opacity:1"
       id="rect1"
       width="58.084953"
       height="40.32967"
       x="46.763966"
       y="52.719341" />
    <path
       style="fill:none;stroke:#000000;stroke-width:0.332212;stroke-linecap:butt;stroke-linejoin:miter;stroke-dasharray:none;stroke-opacity:1"
       d="m 75.806443,93.078172 c 0,0 2.990908,-12.609573 10.58419,-18.425463 10.605838,-8.123286 17.204887,-8.060599 18.601947,-8.029275"
       id="path1"
       sodipodi:nodetypes="csc" />
    <path
       style="fill:none;stroke:#000000;stroke-width:0.332212;stroke-linecap:butt;stroke-linejoin:miter;stroke-dasharray:none;stroke-opacity:1"
       d="m 76.061149,93.066368 c 0,0 -2.990905,-12.609572 -10.584189,-18.425462 C 54.871121,66.51762 48.272063,66.580307 46.87502,66.61163"
       id="path1-4"
       sodipodi:nodetypes="csc" />
    <g
       inkscape:label=""
       transform="translate(102.27455,94.570257)"
       id="g1">
      <g
         fill="#000000"
         fill-opacity="1"
         id="g3"
         transform="matrix(0.352778,0,0,0.352778,-1.12448,-0.69925)">
        <g
           id="use2"
           transform="translate(3.188,9.4040003)">
          <path
             d="M 4.453125,-6.484375 H 6.40625 C 5.9375,-4.5625 5.640625,-3.3125 5.640625,-1.921875 c 0,0.234375 0,2.09375 0.71875,2.09375 0.359375,0 0.671875,-0.328125 0.671875,-0.625 0,-0.078125 0,-0.109375 -0.125,-0.375 C 6.4375,-2.015625 6.4375,-3.5 6.4375,-3.609375 c 0,-0.109375 0,-1.328125 0.359375,-2.875 h 1.9375 c 0.21875,0 0.78125,0 0.78125,-0.5625 0,-0.375 -0.328125,-0.375 -0.625,-0.375 H 3.21875 c -0.390625,0 -0.984375,0 -1.765625,0.84375 -0.453125,0.5 -1,1.40625 -1,1.515625 0,0.109375 0.078125,0.140625 0.1875,0.140625 0.109375,0 0.140625,-0.046875 0.21875,-0.15625 0.890625,-1.40625 1.796875,-1.40625 2.21875,-1.40625 H 4.0625 c -0.375,1.28125 -0.8125,2.78125 -2.21875,5.796875 -0.140625,0.28125 -0.140625,0.3125 -0.140625,0.40625 0,0.375 0.3125,0.453125 0.46875,0.453125 0.5,0 0.640625,-0.453125 0.84375,-1.171875 C 3.28125,-1.875 3.28125,-1.90625 3.46875,-2.59375 Z m 0,0"
             id="path4" />
        </g>
      </g>
      <path
         fill="none"
         stroke-width="0.996"
         stroke-linecap="butt"
         stroke-linejoin="miter"
         stroke="#000000"
         stroke-opacity="1"
         stroke-miterlimit="10"
         d="M 0,10.986625 H 10.179687"
         id="path3"
         transform="scale(0.352778)" />
      <g
         fill="#000000"
         fill-opacity="1"
         id="g4"
         transform="matrix(0.352778,0,0,0.352778,-1.12448,-0.69925)">
        <g
           id="use3"
           transform="translate(3.8540001,27.711)">
          <path
             d="M 5.1875,-2.046875 C 5.09375,-1.75 5.09375,-1.71875 4.859375,-1.390625 c -0.375,0.484375 -1.140625,1.21875 -1.953125,1.21875 -0.703125,0 -1.09375,-0.640625 -1.09375,-1.65625 0,-0.9375 0.53125,-2.875 0.859375,-3.59375 C 3.25,-6.625 4.0625,-7.25 4.734375,-7.25 c 1.140625,0 1.359375,1.40625 1.359375,1.546875 0,0.015625 -0.046875,0.25 -0.0625,0.28125 z m 1.09375,-4.40625 C 6.09375,-6.90625 5.625,-7.59375 4.734375,-7.59375 c -1.9375,0 -4.046875,2.515625 -4.046875,5.0625 0,1.703125 1,2.703125 2.171875,2.703125 0.953125,0 1.75,-0.734375 2.234375,-1.3125 0.171875,1.015625 0.984375,1.3125 1.5,1.3125 0.515625,0 0.9375,-0.3125 1.234375,-0.921875 C 8.109375,-1.34375 8.34375,-2.390625 8.34375,-2.46875 8.34375,-2.546875 8.28125,-2.625 8.171875,-2.625 8.03125,-2.625 8,-2.53125 7.9375,-2.265625 7.671875,-1.25 7.359375,-0.171875 6.640625,-0.171875 c -0.5,0 -0.53125,-0.453125 -0.53125,-0.796875 0,-0.390625 0.0625,-0.578125 0.203125,-1.25 0.125,-0.4375 0.21875,-0.8125 0.34375,-1.3125 0.640625,-2.578125 0.796875,-3.203125 0.796875,-3.296875 0,-0.25 -0.1875,-0.4375 -0.4375,-0.4375 -0.5625,0 -0.703125,0.609375 -0.734375,0.8125 z m 0,0"
             id="path5" />
        </g>
      </g>
    </g>
    <g
       inkscape:label=""
       transform="translate(41.56014,94.570257)"
       id="g10">
      <g
         fill="#000000"
         fill-opacity="1"
         id="g5"
         transform="matrix(0.352778,0,0,0.352778,-1.43069,-0.69925)">
        <g
           id="g2"
           transform="translate(1.993,19.164)">
          <path
             d="m 16.328125,-5.703125 c 0.421875,0 0.875,0 0.875,-0.484375 0,-0.5 -0.453125,-0.5 -0.875,-0.5 H 2.921875 c -0.421875,0 -0.859375,0 -0.859375,0.5 0,0.484375 0.4375,0.484375 0.859375,0.484375 z m 0,0"
             id="path6" />
        </g>
      </g>
      <g
         fill="#000000"
         fill-opacity="1"
         id="g6"
         transform="matrix(0.352778,0,0,0.352778,-1.43069,-0.69925)">
        <g
           id="use4"
           transform="translate(22.466999,9.4040003)">
          <path
             d="M 4.453125,-6.484375 H 6.40625 C 5.9375,-4.5625 5.640625,-3.3125 5.640625,-1.921875 c 0,0.234375 0,2.09375 0.71875,2.09375 0.359375,0 0.671875,-0.328125 0.671875,-0.625 0,-0.078125 0,-0.109375 -0.125,-0.375 C 6.4375,-2.015625 6.4375,-3.5 6.4375,-3.609375 c 0,-0.109375 0,-1.328125 0.359375,-2.875 h 1.9375 c 0.21875,0 0.78125,0 0.78125,-0.5625 0,-0.375 -0.328125,-0.375 -0.625,-0.375 H 3.21875 c -0.390625,0 -0.984375,0 -1.765625,0.84375 -0.453125,0.5 -1,1.40625 -1,1.515625 0,0.109375 0.078125,0.140625 0.1875,0.140625 0.109375,0 0.140625,-0.046875 0.21875,-0.15625 0.890625,-1.40625 1.796875,-1.40625 2.21875,-1.40625 H 4.0625 c -0.375,1.28125 -0.8125,2.78125 -2.21875,5.796875 -0.140625,0.28125 -0.140625,0.3125 -0.140625,0.40625 0,0.375 0.3125,0.453125 0.46875,0.453125 0.5,0 0.640625,-0.453125 0.84375,-1.171875 C 3.28125,-1.875 3.28125,-1.90625 3.46875,-2.59375 Z m 0,0"
             id="path7" />
        </g>
      </g>
      <path
         fill="none"
         stroke-width="0.996"
         stroke-linecap="butt"
         stroke-linejoin="miter"
         stroke="#000000"
         stroke-opacity="1"
         stroke-miterlimit="10"
         d="M 18.41325,10.986625 H 28.592938"
         id="path8"
         transform="scale(0.352778)" />
      <g
         fill="#000000"
         fill-opacity="1"
         id="g9"
         transform="matrix(0.352778,0,0,0.352778,-1.43069,-0.69925)">
        <g
           id="use5"
           transform="translate(23.132,27.711)">
          <path
             d="M 5.1875,-2.046875 C 5.09375,-1.75 5.09375,-1.71875 4.859375,-1.390625 c -0.375,0.484375 -1.140625,1.21875 -1.953125,1.21875 -0.703125,0 -1.09375,-0.640625 -1.09375,-1.65625 0,-0.9375 0.53125,-2.875 0.859375,-3.59375 C 3.25,-6.625 4.0625,-7.25 4.734375,-7.25 c 1.140625,0 1.359375,1.40625 1.359375,1.546875 0,0.015625 -0.046875,0.25 -0.0625,0.28125 z m 1.09375,-4.40625 C 6.09375,-6.90625 5.625,-7.59375 4.734375,-7.59375 c -1.9375,0 -4.046875,2.515625 -4.046875,5.0625 0,1.703125 1,2.703125 2.171875,2.703125 0.953125,0 1.75,-0.734375 2.234375,-1.3125 0.171875,1.015625 0.984375,1.3125 1.5,1.3125 0.515625,0 0.9375,-0.3125 1.234375,-0.921875 C 8.109375,-1.34375 8.34375,-2.390625 8.34375,-2.46875 8.34375,-2.546875 8.28125,-2.625 8.171875,-2.625 8.03125,-2.625 8,-2.53125 7.9375,-2.265625 7.671875,-1.25 7.359375,-0.171875 6.640625,-0.171875 c -0.5,0 -0.53125,-0.453125 -0.53125,-0.796875 0,-0.390625 0.0625,-0.578125 0.203125,-1.25 0.125,-0.4375 0.21875,-0.8125 0.34375,-1.3125 0.640625,-2.578125 0.796875,-3.203125 0.796875,-3.296875 0,-0.25 -0.1875,-0.4375 -0.4375,-0.4375 -0.5625,0 -0.703125,0.609375 -0.734375,0.8125 z m 0,0"
             id="path9" />
        </g>
      </g>
    </g>
    <g
       inkscape:label=""
       transform="translate(74.882683,95.191873)"
       id="g12">
      <g
         fill="#000000"
         fill-opacity="1"
         id="g11"
         transform="matrix(0.352778,0,0,0.352778,-1.18264,-0.706217)">
        <g
           id="use1"
           transform="translate(1.993,19.205)">
          <path
             d="m 6.96875,-16.578125 c 0.015625,-0.09375 0.0625,-0.25 0.0625,-0.375 0,-0.25 -0.234375,-0.25 -0.296875,-0.25 -0.015625,0 -0.90625,0.07813 -1.359375,0.125 -0.421875,0.03125 -0.796875,0.07813 -1.234375,0.109375 -0.59375,0.04687 -0.765625,0.0625 -0.765625,0.515625 0,0.25 0.25,0.25 0.484375,0.25 1.265625,0 1.265625,0.21875 1.265625,0.46875 0,0.09375 0,0.140625 -0.125,0.59375 L 1.46875,-0.96875 c -0.109375,0.375 -0.109375,0.421875 -0.109375,0.578125 0,0.546875 0.421875,0.640625 0.671875,0.640625 0.6875,0 0.84375,-0.546875 1.046875,-1.3125 l 1.15625,-4.640625 C 6.015625,-5.5 7.09375,-4.765625 7.09375,-3.5625 c 0,0.140625 0,0.234375 -0.078125,0.609375 -0.109375,0.375 -0.109375,0.671875 -0.109375,0.796875 0,1.4375 0.953125,2.40625 2.21875,2.40625 1.140625,0 1.734375,-1.046875 1.921875,-1.390625 0.53125,-0.921875 0.84375,-2.296875 0.84375,-2.40625 0,-0.125 -0.09375,-0.21875 -0.25,-0.21875 -0.21875,0 -0.234375,0.09375 -0.34375,0.5 -0.34375,1.28125 -0.859375,3.015625 -2.125,3.015625 -0.5,0 -0.828125,-0.25 -0.828125,-1.1875 0,-0.46875 0.109375,-1.015625 0.203125,-1.390625 0.109375,-0.4375 0.109375,-0.46875 0.109375,-0.765625 0,-1.46875 -1.328125,-2.28125 -3.59375,-2.578125 0.890625,-0.546875 1.78125,-1.515625 2.125,-1.875 1.40625,-1.59375 2.375,-2.390625 3.515625,-2.390625 0.578125,0 0.71875,0.15625 0.890625,0.296875 -0.90625,0.109375 -1.265625,0.75 -1.265625,1.25 0,0.59375 0.46875,0.78125 0.828125,0.78125 0.671875,0 1.265625,-0.5625 1.265625,-1.359375 0,-0.71875 -0.578125,-1.453125 -1.6875,-1.453125 -1.359375,0 -2.484375,0.953125 -4.234375,2.9375 -0.25,0.296875 -1.171875,1.25 -2.09375,1.59375 z m 0,0"
             id="path2" />
        </g>
      </g>
    </g>
    <g
       inkscape:label=""
       transform="translate(40.600259,74.242272)"
       id="g15">
      <g
         fill="#000000"
         fill-opacity="1"
         id="g14"
         transform="matrix(0.352778,0,0,0.352778,-0.807817,-0.603559)">
        <g
           id="g13"
           transform="translate(1.993,12.664)">
          <path
             d="m 14.71875,-9.3125 c 0,-0.71875 -0.203125,-1.640625 -1.0625,-1.640625 -0.5,0 -1.0625,0.625 -1.0625,1.109375 0,0.234375 0.09375,0.375 0.296875,0.59375 0.375,0.421875 0.84375,1.09375 0.84375,2.265625 0,0.890625 -0.546875,2.296875 -0.953125,3.0625 -0.6875,1.375 -1.828125,2.53125 -3.109375,2.53125 -1.5625,0 -2.15625,-0.984375 -2.4375,-2.375 0.28125,-0.640625 0.84375,-2.25 0.84375,-2.90625 0,-0.265625 -0.09375,-0.484375 -0.421875,-0.484375 -0.171875,0 -0.375,0.09375 -0.5,0.296875 -0.34375,0.546875 -0.65625,2.5 -0.640625,3.015625 -0.46875,0.921875 -1.8125,2.453125 -3.390625,2.453125 -1.65625,0 -2.109375,-1.453125 -2.109375,-2.875 0,-2.578125 1.609375,-4.828125 2.0625,-5.453125 0.25,-0.375 0.421875,-0.609375 0.421875,-0.671875 0,-0.171875 -0.109375,-0.4375 -0.328125,-0.4375 -0.390625,0 -0.515625,0.328125 -0.71875,0.625 C 1.1875,-8.25 0.296875,-5.5 0.296875,-3.125 c 0,1.53125 0.578125,3.375 2.421875,3.375 2.0625,0 3.359375,-1.765625 3.875,-2.703125 C 6.796875,-1.0625 7.53125,0.25 9.34375,0.25 c 1.875,0 3.078125,-1.65625 3.96875,-3.671875 0.640625,-1.4375 1.40625,-4.53125 1.40625,-5.890625 z m 0,0"
             id="path12" />
        </g>
      </g>
    </g>
    <path
       style="fill:none;stroke:#000000;stroke-width:0.264583px;stroke-linecap:butt;stroke-linejoin:miter;stroke-opacity:1"
       d="m 46.871297,59.583986 c 0,0 4.748658,0.0057 10.738016,-1.715429 5.954664,-1.711162 13.135397,-5.149216 18.19713,-5.149216 5.718947,0 13.348449,3.666397 19.67402,5.473139 4.904337,1.400802 9.368457,1.288591 9.368457,1.288591"
       id="path10"
       sodipodi:nodetypes="csssc" />
  </g>
</svg>
