<?xml version="1.0" encoding="UTF-8" standalone="no"?>
<!-- Created with Inkscape (http://www.inkscape.org/) -->

<svg
   width="111.25172mm"
   height="64.897652mm"
   viewBox="0 0 111.25172 64.897652"
   version="1.1"
   id="svg1"
   inkscape:version="1.3.1 (91b66b0783, 2023-11-16, custom)"
   sodipodi:docname="freemodel.svg"
   xmlns:inkscape="http://www.inkscape.org/namespaces/inkscape"
   xmlns:sodipodi="http://sodipodi.sourceforge.net/DTD/sodipodi-0.dtd"
   xmlns="http://www.w3.org/2000/svg"
   xmlns:svg="http://www.w3.org/2000/svg">
  <sodipodi:namedview
     id="namedview1"
     pagecolor="#505050"
     bordercolor="#eeeeee"
     borderopacity="1"
     inkscape:showpageshadow="0"
     inkscape:pageopacity="0"
     inkscape:pagecheckerboard="0"
     inkscape:deskcolor="#d1d1d1"
     inkscape:document-units="mm"
     showgrid="false"
     inkscape:zoom="1.4574355"
     inkscape:cx="154.38076"
     inkscape:cy="112.52642"
     inkscape:window-width="950"
     inkscape:window-height="1066"
     inkscape:window-x="2882"
     inkscape:window-y="5"
     inkscape:window-maximized="1"
     inkscape:current-layer="layer1">
    <inkscape:grid
       id="grid1"
       units="px"
       originx="-37.041666"
       originy="-54.724337"
       spacingx="0.26458333"
       spacingy="0.26458334"
       empcolor="#0099e5"
       empopacity="0.30196078"
       color="#0099e5"
       opacity="0.14901961"
       empspacing="5"
       dotted="false"
       gridanglex="30"
       gridanglez="30"
       visible="false" />
  </sodipodi:namedview>
  <defs
     id="defs1">
    <marker
       style="overflow:visible"
       id="marker10"
       refX="0"
       refY="0"
       orient="auto-start-reverse"
       inkscape:stockid="Concave triangle arrow"
       markerWidth="1"
       markerHeight="1"
       viewBox="0 0 1 1"
       inkscape:isstock="true"
       inkscape:collect="always"
       preserveAspectRatio="xMidYMid">
      <path
         transform="scale(0.7)"
         d="M -2,-4 9,0 -2,4 c 2,-2.33 2,-5.66 0,-8 z"
         style="fill:context-stroke;fill-rule:evenodd;stroke:none"
         id="path10" />
    </marker>
    <marker
       style="overflow:visible"
       id="ConcaveTriangle"
       refX="0"
       refY="0"
       orient="auto-start-reverse"
       inkscape:stockid="Concave triangle arrow"
       markerWidth="1"
       markerHeight="1"
       viewBox="0 0 1 1"
       inkscape:isstock="true"
       inkscape:collect="always"
       preserveAspectRatio="xMidYMid">
      <path
         transform="scale(0.7)"
         d="M -2,-4 9,0 -2,4 c 2,-2.33 2,-5.66 0,-8 z"
         style="fill:context-stroke;fill-rule:evenodd;stroke:none"
         id="path9" />
    </marker>
  </defs>
  <g
     inkscape:label="Layer 1"
     inkscape:groupmode="layer"
     id="layer1"
     transform="translate(-37.041666,-54.724335)">
    <path
       style="fill:none;stroke:#000000;stroke-width:0.264583px;stroke-linecap:butt;stroke-linejoin:miter;stroke-opacity:1;marker-end:url(#marker10)"
       d="M 37.041666,111.125 H 142.87499"
       id="path1" />
    <path
       style="fill:none;stroke:#000000;stroke-width:0.202101px;stroke-linecap:butt;stroke-linejoin:miter;stroke-opacity:1;marker-end:url(#ConcaveTriangle)"
       d="M 95.249996,111.125 V 58.637598"
       id="path2" />
    <path
       style="fill:none;stroke:#000000;stroke-width:0.264583px;stroke-linecap:butt;stroke-linejoin:miter;stroke-opacity:1"
       d="m 63.499998,63.500002 c 0,0 7.83239,20.956449 10.583333,26.458334 3.96875,7.9375 6.614583,11.906254 10.583333,15.875004 3.968748,3.96875 7.213147,5.29166 10.583333,5.29166 3.80412,0 7.342863,-2.05119 10.583333,-5.29166 3.96875,-3.96875 7.9375,-10.583337 10.58333,-15.875004 C 118.5498,85.692058 123.03125,76.729169 127,63.500002"
       id="path3"
       sodipodi:nodetypes="csssssc" />
    <path
       style="fill:none;stroke:#000000;stroke-width:0.264583px;stroke-linecap:butt;stroke-linejoin:miter;stroke-opacity:1"
       d="m 42.333332,63.500002 c 0,0 7.83239,20.956449 10.583333,26.458334 3.96875,7.937504 6.614583,11.906254 10.583333,15.875004 3.968748,3.96875 7.213147,5.29166 10.583333,5.29166 3.80412,0 7.342863,-2.05119 10.583333,-5.29166 3.96875,-3.96875 7.9375,-10.58334 10.58333,-15.875004 2.13314,-4.266278 6.614596,-13.229167 10.583346,-26.458334"
       id="path3-1"
       sodipodi:nodetypes="csssssc" />
    <path
       style="fill:none;stroke:#000000;stroke-width:0.264583px;stroke-linecap:butt;stroke-linejoin:miter;stroke-opacity:1"
       d="m 84.66666,63.499999 c 0,0 7.83239,20.956449 10.58334,26.458338 3.96875,7.9375 6.61458,11.906253 10.58333,15.875003 3.96875,3.96875 7.21315,5.29166 10.58333,5.29166 3.80412,0 7.34287,-2.05119 10.58334,-5.29166 3.96875,-3.96875 7.9375,-10.583343 10.58333,-15.875003 2.13314,-4.266282 6.61459,-13.229171 10.58334,-26.458338"
       id="path3-9"
       sodipodi:nodetypes="csssssc" />
    <path
       style="fill:none;stroke:#000000;stroke-width:0.264583px;stroke-linecap:butt;stroke-linejoin:miter;stroke-opacity:1"
       d="m 105.83333,109.80208 v 2.64584"
       id="path4" />
    <path
       style="fill:none;stroke:#000000;stroke-width:0.264583px;stroke-linecap:butt;stroke-linejoin:miter;stroke-opacity:1"
       d="m 116.41666,109.80208 v 2.64584"
       id="path5" />
    <path
       style="fill:none;stroke:#000000;stroke-width:0.216031px;stroke-linecap:butt;stroke-linejoin:miter;stroke-opacity:1"
       d="m 127,109.80209 v 2.64583"
       id="path6" />
    <path
       style="fill:none;stroke:#000000;stroke-width:0.264583px;stroke-linecap:butt;stroke-linejoin:miter;stroke-opacity:1"
       d="m 63.499994,109.80208 v 2.64584"
       id="path4-5" />
    <path
       style="fill:none;stroke:#000000;stroke-width:0.264583px;stroke-linecap:butt;stroke-linejoin:miter;stroke-opacity:1"
       d="m 74.083324,109.80208 v 2.64584"
       id="path5-3" />
    <path
       style="fill:none;stroke:#000000;stroke-width:0.216031px;stroke-linecap:butt;stroke-linejoin:miter;stroke-opacity:1"
       d="m 84.666664,109.80209 v 2.64583"
       id="path6-5" />
    <path
       style="fill:#5e81ac;stroke:#5e81ac;stroke-width:0.264583px;stroke-linecap:butt;stroke-linejoin:miter;stroke-opacity:1"
       d="M 84.666663,111.125 V 60.854169"
       id="path7" />
    <path
       style="fill:#5e81ac;stroke:#5e81ac;stroke-width:0.264583px;stroke-linecap:butt;stroke-linejoin:miter;stroke-opacity:1"
       d="M 105.83333,60.854169 V 111.125"
       id="path8" />
    <rect
       style="font-variation-settings:normal;opacity:0.422493;vector-effect:none;fill:#81a1c1;fill-opacity:1;fill-rule:evenodd;stroke:#5e81ac;stroke-width:0.4;stroke-linecap:round;stroke-linejoin:miter;stroke-miterlimit:2;stroke-dasharray:none;stroke-dashoffset:0;stroke-opacity:1;-inkscape-stroke:none;paint-order:stroke fill markers;stop-color:#000000;stop-opacity:1"
       id="rect8"
       width="21.166666"
       height="50.270832"
       x="84.666664"
       y="60.854164" />
    <g
       inkscape:label=""
       transform="matrix(0.67914954,0,0,0.67914954,104.48157,113.29407)"
       id="g13">
      <g
         fill="#000000"
         fill-opacity="1"
         id="g3"
         transform="matrix(0.352778,0,0,0.352778,-1.12448,-0.69925)">
        <g
           id="use2"
           transform="translate(3.188,9.4040003)">
          <path
             d="M 4.453125,-6.484375 H 6.40625 C 5.9375,-4.5625 5.640625,-3.3125 5.640625,-1.921875 c 0,0.234375 0,2.09375 0.71875,2.09375 0.359375,0 0.671875,-0.328125 0.671875,-0.625 0,-0.078125 0,-0.109375 -0.125,-0.375 C 6.4375,-2.015625 6.4375,-3.5 6.4375,-3.609375 c 0,-0.109375 0,-1.328125 0.359375,-2.875 h 1.9375 c 0.21875,0 0.78125,0 0.78125,-0.5625 0,-0.375 -0.328125,-0.375 -0.625,-0.375 H 3.21875 c -0.390625,0 -0.984375,0 -1.765625,0.84375 -0.453125,0.5 -1,1.40625 -1,1.515625 0,0.109375 0.078125,0.140625 0.1875,0.140625 0.109375,0 0.140625,-0.046875 0.21875,-0.15625 0.890625,-1.40625 1.796875,-1.40625 2.21875,-1.40625 H 4.0625 c -0.375,1.28125 -0.8125,2.78125 -2.21875,5.796875 -0.140625,0.28125 -0.140625,0.3125 -0.140625,0.40625 0,0.375 0.3125,0.453125 0.46875,0.453125 0.5,0 0.640625,-0.453125 0.84375,-1.171875 C 3.28125,-1.875 3.28125,-1.90625 3.46875,-2.59375 Z m 0,0"
             id="path11" />
        </g>
      </g>
      <path
         fill="none"
         stroke-width="0.996"
         stroke-linecap="butt"
         stroke-linejoin="miter"
         stroke="#000000"
         stroke-opacity="1"
         stroke-miterlimit="10"
         d="M 0,10.986625 H 10.179687"
         id="path12"
         transform="scale(0.352778)" />
      <g
         fill="#000000"
         fill-opacity="1"
         id="g4"
         transform="matrix(0.352778,0,0,0.352778,-1.12448,-0.69925)">
        <g
           id="use3"
           transform="translate(3.8540001,27.711)">
          <path
             d="M 5.1875,-2.046875 C 5.09375,-1.75 5.09375,-1.71875 4.859375,-1.390625 c -0.375,0.484375 -1.140625,1.21875 -1.953125,1.21875 -0.703125,0 -1.09375,-0.640625 -1.09375,-1.65625 0,-0.9375 0.53125,-2.875 0.859375,-3.59375 C 3.25,-6.625 4.0625,-7.25 4.734375,-7.25 c 1.140625,0 1.359375,1.40625 1.359375,1.546875 0,0.015625 -0.046875,0.25 -0.0625,0.28125 z m 1.09375,-4.40625 C 6.09375,-6.90625 5.625,-7.59375 4.734375,-7.59375 c -1.9375,0 -4.046875,2.515625 -4.046875,5.0625 0,1.703125 1,2.703125 2.171875,2.703125 0.953125,0 1.75,-0.734375 2.234375,-1.3125 0.171875,1.015625 0.984375,1.3125 1.5,1.3125 0.515625,0 0.9375,-0.3125 1.234375,-0.921875 C 8.109375,-1.34375 8.34375,-2.390625 8.34375,-2.46875 8.34375,-2.546875 8.28125,-2.625 8.171875,-2.625 8.03125,-2.625 8,-2.53125 7.9375,-2.265625 7.671875,-1.25 7.359375,-0.171875 6.640625,-0.171875 c -0.5,0 -0.53125,-0.453125 -0.53125,-0.796875 0,-0.390625 0.0625,-0.578125 0.203125,-1.25 0.125,-0.4375 0.21875,-0.8125 0.34375,-1.3125 0.640625,-2.578125 0.796875,-3.203125 0.796875,-3.296875 0,-0.25 -0.1875,-0.4375 -0.4375,-0.4375 -0.5625,0 -0.703125,0.609375 -0.734375,0.8125 z m 0,0"
             id="path13" />
        </g>
      </g>
    </g>
    <g
       inkscape:label=""
       transform="matrix(0.67914954,0,0,0.67914954,78.961208,113.3919)"
       id="g17">
      <g
         fill="#000000"
         fill-opacity="1"
         id="g15"
         transform="matrix(0.352778,0,0,0.352778,-1.43069,-0.69925)">
        <g
           id="g14"
           transform="translate(1.993,19.164)">
          <path
             d="m 16.328125,-5.703125 c 0.421875,0 0.875,0 0.875,-0.484375 0,-0.5 -0.453125,-0.5 -0.875,-0.5 H 2.921875 c -0.421875,0 -0.859375,0 -0.859375,0.5 0,0.484375 0.4375,0.484375 0.859375,0.484375 z m 0,0"
             id="path14" />
        </g>
      </g>
      <g
         fill="#000000"
         fill-opacity="1"
         id="g5"
         transform="matrix(0.352778,0,0,0.352778,-1.43069,-0.69925)">
        <g
           id="use4"
           transform="translate(22.466999,9.4040003)">
          <path
             d="M 4.453125,-6.484375 H 6.40625 C 5.9375,-4.5625 5.640625,-3.3125 5.640625,-1.921875 c 0,0.234375 0,2.09375 0.71875,2.09375 0.359375,0 0.671875,-0.328125 0.671875,-0.625 0,-0.078125 0,-0.109375 -0.125,-0.375 C 6.4375,-2.015625 6.4375,-3.5 6.4375,-3.609375 c 0,-0.109375 0,-1.328125 0.359375,-2.875 h 1.9375 c 0.21875,0 0.78125,0 0.78125,-0.5625 0,-0.375 -0.328125,-0.375 -0.625,-0.375 H 3.21875 c -0.390625,0 -0.984375,0 -1.765625,0.84375 -0.453125,0.5 -1,1.40625 -1,1.515625 0,0.109375 0.078125,0.140625 0.1875,0.140625 0.109375,0 0.140625,-0.046875 0.21875,-0.15625 0.890625,-1.40625 1.796875,-1.40625 2.21875,-1.40625 H 4.0625 c -0.375,1.28125 -0.8125,2.78125 -2.21875,5.796875 -0.140625,0.28125 -0.140625,0.3125 -0.140625,0.40625 0,0.375 0.3125,0.453125 0.46875,0.453125 0.5,0 0.640625,-0.453125 0.84375,-1.171875 C 3.28125,-1.875 3.28125,-1.90625 3.46875,-2.59375 Z m 0,0"
             id="path15" />
        </g>
      </g>
      <path
         fill="none"
         stroke-width="0.996"
         stroke-linecap="butt"
         stroke-linejoin="miter"
         stroke="#000000"
         stroke-opacity="1"
         stroke-miterlimit="10"
         d="M 18.41325,10.986625 H 28.592938"
         id="path16"
         transform="scale(0.352778)" />
      <g
         fill="#000000"
         fill-opacity="1"
         id="g6"
         transform="matrix(0.352778,0,0,0.352778,-1.43069,-0.69925)">
        <g
           id="use5"
           transform="translate(23.132,27.711)">
          <path
             d="M 5.1875,-2.046875 C 5.09375,-1.75 5.09375,-1.71875 4.859375,-1.390625 c -0.375,0.484375 -1.140625,1.21875 -1.953125,1.21875 -0.703125,0 -1.09375,-0.640625 -1.09375,-1.65625 0,-0.9375 0.53125,-2.875 0.859375,-3.59375 C 3.25,-6.625 4.0625,-7.25 4.734375,-7.25 c 1.140625,0 1.359375,1.40625 1.359375,1.546875 0,0.015625 -0.046875,0.25 -0.0625,0.28125 z m 1.09375,-4.40625 C 6.09375,-6.90625 5.625,-7.59375 4.734375,-7.59375 c -1.9375,0 -4.046875,2.515625 -4.046875,5.0625 0,1.703125 1,2.703125 2.171875,2.703125 0.953125,0 1.75,-0.734375 2.234375,-1.3125 0.171875,1.015625 0.984375,1.3125 1.5,1.3125 0.515625,0 0.9375,-0.3125 1.234375,-0.921875 C 8.109375,-1.34375 8.34375,-2.390625 8.34375,-2.46875 8.34375,-2.546875 8.28125,-2.625 8.171875,-2.625 8.03125,-2.625 8,-2.53125 7.9375,-2.265625 7.671875,-1.25 7.359375,-0.171875 6.640625,-0.171875 c -0.5,0 -0.53125,-0.453125 -0.53125,-0.796875 0,-0.390625 0.0625,-0.578125 0.203125,-1.25 0.125,-0.4375 0.21875,-0.8125 0.34375,-1.3125 0.640625,-2.578125 0.796875,-3.203125 0.796875,-3.296875 0,-0.25 -0.1875,-0.4375 -0.4375,-0.4375 -0.5625,0 -0.703125,0.609375 -0.734375,0.8125 z m 0,0"
             id="path17" />
        </g>
      </g>
    </g>
    <g
       inkscape:label=""
       transform="matrix(0.67914954,0,0,0.67914954,67.653306,112.3299)"
       id="g23">
      <g
         fill="#000000"
         fill-opacity="1"
         id="g19"
         transform="matrix(0.352778,0,0,0.352778,-1.43069,-0.604661)">
        <g
           id="g18"
           transform="translate(1.993,22.849001)">
          <path
             d="m 16.328125,-5.703125 c 0.421875,0 0.875,0 0.875,-0.484375 0,-0.5 -0.453125,-0.5 -0.875,-0.5 H 2.921875 c -0.421875,0 -0.859375,0 -0.859375,0.5 0,0.484375 0.4375,0.484375 0.859375,0.484375 z m 0,0"
             id="path18" />
        </g>
      </g>
      <g
         fill="#000000"
         fill-opacity="1"
         id="g21"
         transform="matrix(0.352778,0,0,0.352778,-1.43069,-0.604661)">
        <g
           id="g20"
           transform="translate(22.466999,13.089)">
          <path
             d="M 7.1875,-2.671875 H 6.875 c -0.171875,1.21875 -0.3125,1.4375 -0.390625,1.53125 C 6.40625,-1 5.171875,-1 4.921875,-1 H 1.625 c 0.609375,-0.671875 1.8125,-1.890625 3.28125,-3.3125 1.046875,-0.984375 2.28125,-2.15625 2.28125,-3.859375 0,-2.03125 -1.625,-3.203125 -3.4375,-3.203125 -1.890625,0 -3.046875,1.65625 -3.046875,3.21875 0,0.671875 0.5,0.75 0.703125,0.75 0.171875,0 0.6875,-0.09375 0.6875,-0.703125 0,-0.53125 -0.4375,-0.6875 -0.6875,-0.6875 -0.09375,0 -0.203125,0.015625 -0.265625,0.046875 0.328125,-1.453125 1.328125,-2.1875 2.375,-2.1875 1.5,0 2.46875,1.1875 2.46875,2.765625 0,1.484375 -0.875,2.78125 -1.859375,3.90625 l -3.421875,3.875 V 0 h 6.0625 z m 0,0"
             id="path19" />
        </g>
      </g>
      <g
         fill="#000000"
         fill-opacity="1"
         id="g7"
         transform="matrix(0.352778,0,0,0.352778,-1.43069,-0.604661)">
        <g
           id="use6"
           transform="translate(30.362,13.089)">
          <path
             d="M 4.453125,-6.484375 H 6.40625 C 5.9375,-4.5625 5.640625,-3.3125 5.640625,-1.921875 c 0,0.234375 0,2.09375 0.71875,2.09375 0.359375,0 0.671875,-0.328125 0.671875,-0.625 0,-0.078125 0,-0.109375 -0.125,-0.375 C 6.4375,-2.015625 6.4375,-3.5 6.4375,-3.609375 c 0,-0.109375 0,-1.328125 0.359375,-2.875 h 1.9375 c 0.21875,0 0.78125,0 0.78125,-0.5625 0,-0.375 -0.328125,-0.375 -0.625,-0.375 H 3.21875 c -0.390625,0 -0.984375,0 -1.765625,0.84375 -0.453125,0.5 -1,1.40625 -1,1.515625 0,0.109375 0.078125,0.140625 0.1875,0.140625 0.109375,0 0.140625,-0.046875 0.21875,-0.15625 0.890625,-1.40625 1.796875,-1.40625 2.21875,-1.40625 H 4.0625 c -0.375,1.28125 -0.8125,2.78125 -2.21875,5.796875 -0.140625,0.28125 -0.140625,0.3125 -0.140625,0.40625 0,0.375 0.3125,0.453125 0.46875,0.453125 0.5,0 0.640625,-0.453125 0.84375,-1.171875 C 3.28125,-1.875 3.28125,-1.90625 3.46875,-2.59375 Z m 0,0"
             id="path21" />
        </g>
      </g>
      <path
         fill="none"
         stroke-width="0.996"
         stroke-linecap="butt"
         stroke-linejoin="miter"
         stroke="#000000"
         stroke-opacity="1"
         stroke-miterlimit="10"
         d="M 18.41325,14.938344 H 36.487469"
         id="path22"
         transform="scale(0.352778)" />
      <g
         fill="#000000"
         fill-opacity="1"
         id="g8"
         transform="matrix(0.352778,0,0,0.352778,-1.43069,-0.604661)">
        <g
           id="use7"
           transform="translate(27.08,31.396)">
          <path
             d="M 5.1875,-2.046875 C 5.09375,-1.75 5.09375,-1.71875 4.859375,-1.390625 c -0.375,0.484375 -1.140625,1.21875 -1.953125,1.21875 -0.703125,0 -1.09375,-0.640625 -1.09375,-1.65625 0,-0.9375 0.53125,-2.875 0.859375,-3.59375 C 3.25,-6.625 4.0625,-7.25 4.734375,-7.25 c 1.140625,0 1.359375,1.40625 1.359375,1.546875 0,0.015625 -0.046875,0.25 -0.0625,0.28125 z m 1.09375,-4.40625 C 6.09375,-6.90625 5.625,-7.59375 4.734375,-7.59375 c -1.9375,0 -4.046875,2.515625 -4.046875,5.0625 0,1.703125 1,2.703125 2.171875,2.703125 0.953125,0 1.75,-0.734375 2.234375,-1.3125 0.171875,1.015625 0.984375,1.3125 1.5,1.3125 0.515625,0 0.9375,-0.3125 1.234375,-0.921875 C 8.109375,-1.34375 8.34375,-2.390625 8.34375,-2.46875 8.34375,-2.546875 8.28125,-2.625 8.171875,-2.625 8.03125,-2.625 8,-2.53125 7.9375,-2.265625 7.671875,-1.25 7.359375,-0.171875 6.640625,-0.171875 c -0.5,0 -0.53125,-0.453125 -0.53125,-0.796875 0,-0.390625 0.0625,-0.578125 0.203125,-1.25 0.125,-0.4375 0.21875,-0.8125 0.34375,-1.3125 0.640625,-2.578125 0.796875,-3.203125 0.796875,-3.296875 0,-0.25 -0.1875,-0.4375 -0.4375,-0.4375 -0.5625,0 -0.703125,0.609375 -0.734375,0.8125 z m 0,0"
             id="path23" />
        </g>
      </g>
    </g>
    <g
       inkscape:label=""
       transform="matrix(0.67914954,0,0,0.67914954,113.65468,112.46933)"
       id="g30">
      <g
         fill="#000000"
         fill-opacity="1"
         id="g25"
         transform="matrix(0.352778,0,0,0.352778,-1.12448,-0.604661)">
        <g
           id="g24"
           transform="translate(3.188,13.089)">
          <path
             d="M 7.1875,-2.671875 H 6.875 c -0.171875,1.21875 -0.3125,1.4375 -0.390625,1.53125 C 6.40625,-1 5.171875,-1 4.921875,-1 H 1.625 c 0.609375,-0.671875 1.8125,-1.890625 3.28125,-3.3125 1.046875,-0.984375 2.28125,-2.15625 2.28125,-3.859375 0,-2.03125 -1.625,-3.203125 -3.4375,-3.203125 -1.890625,0 -3.046875,1.65625 -3.046875,3.21875 0,0.671875 0.5,0.75 0.703125,0.75 0.171875,0 0.6875,-0.09375 0.6875,-0.703125 0,-0.53125 -0.4375,-0.6875 -0.6875,-0.6875 -0.09375,0 -0.203125,0.015625 -0.265625,0.046875 0.328125,-1.453125 1.328125,-2.1875 2.375,-2.1875 1.5,0 2.46875,1.1875 2.46875,2.765625 0,1.484375 -0.875,2.78125 -1.859375,3.90625 l -3.421875,3.875 V 0 h 6.0625 z m 0,0"
             id="path24" />
        </g>
      </g>
      <g
         fill="#000000"
         fill-opacity="1"
         id="g27"
         transform="matrix(0.352778,0,0,0.352778,-1.12448,-0.604661)">
        <g
           id="g26"
           transform="translate(11.083,13.089)">
          <path
             d="M 4.453125,-6.484375 H 6.40625 C 5.9375,-4.5625 5.640625,-3.3125 5.640625,-1.921875 c 0,0.234375 0,2.09375 0.71875,2.09375 0.359375,0 0.671875,-0.328125 0.671875,-0.625 0,-0.078125 0,-0.109375 -0.125,-0.375 C 6.4375,-2.015625 6.4375,-3.5 6.4375,-3.609375 c 0,-0.109375 0,-1.328125 0.359375,-2.875 h 1.9375 c 0.21875,0 0.78125,0 0.78125,-0.5625 0,-0.375 -0.328125,-0.375 -0.625,-0.375 H 3.21875 c -0.390625,0 -0.984375,0 -1.765625,0.84375 -0.453125,0.5 -1,1.40625 -1,1.515625 0,0.109375 0.078125,0.140625 0.1875,0.140625 0.109375,0 0.140625,-0.046875 0.21875,-0.15625 0.890625,-1.40625 1.796875,-1.40625 2.21875,-1.40625 H 4.0625 c -0.375,1.28125 -0.8125,2.78125 -2.21875,5.796875 -0.140625,0.28125 -0.140625,0.3125 -0.140625,0.40625 0,0.375 0.3125,0.453125 0.46875,0.453125 0.5,0 0.640625,-0.453125 0.84375,-1.171875 C 3.28125,-1.875 3.28125,-1.90625 3.46875,-2.59375 Z m 0,0"
             id="path25" />
        </g>
      </g>
      <path
         fill="none"
         stroke-width="0.996"
         stroke-linecap="butt"
         stroke-linejoin="miter"
         stroke="#000000"
         stroke-opacity="1"
         stroke-miterlimit="10"
         d="M 0,14.938344 H 18.074219"
         id="path27"
         transform="scale(0.352778)" />
      <g
         fill="#000000"
         fill-opacity="1"
         id="g29"
         transform="matrix(0.352778,0,0,0.352778,-1.12448,-0.604661)">
        <g
           id="g28"
           transform="translate(7.8010001,31.396)">
          <path
             d="M 5.1875,-2.046875 C 5.09375,-1.75 5.09375,-1.71875 4.859375,-1.390625 c -0.375,0.484375 -1.140625,1.21875 -1.953125,1.21875 -0.703125,0 -1.09375,-0.640625 -1.09375,-1.65625 0,-0.9375 0.53125,-2.875 0.859375,-3.59375 C 3.25,-6.625 4.0625,-7.25 4.734375,-7.25 c 1.140625,0 1.359375,1.40625 1.359375,1.546875 0,0.015625 -0.046875,0.25 -0.0625,0.28125 z m 1.09375,-4.40625 C 6.09375,-6.90625 5.625,-7.59375 4.734375,-7.59375 c -1.9375,0 -4.046875,2.515625 -4.046875,5.0625 0,1.703125 1,2.703125 2.171875,2.703125 0.953125,0 1.75,-0.734375 2.234375,-1.3125 0.171875,1.015625 0.984375,1.3125 1.5,1.3125 0.515625,0 0.9375,-0.3125 1.234375,-0.921875 C 8.109375,-1.34375 8.34375,-2.390625 8.34375,-2.46875 8.34375,-2.546875 8.28125,-2.625 8.171875,-2.625 8.03125,-2.625 8,-2.53125 7.9375,-2.265625 7.671875,-1.25 7.359375,-0.171875 6.640625,-0.171875 c -0.5,0 -0.53125,-0.453125 -0.53125,-0.796875 0,-0.390625 0.0625,-0.578125 0.203125,-1.25 0.125,-0.4375 0.21875,-0.8125 0.34375,-1.3125 0.640625,-2.578125 0.796875,-3.203125 0.796875,-3.296875 0,-0.25 -0.1875,-0.4375 -0.4375,-0.4375 -0.5625,0 -0.703125,0.609375 -0.734375,0.8125 z m 0,0"
             id="path28" />
        </g>
      </g>
    </g>
    <g
       inkscape:label=""
       transform="matrix(0.67914954,0,0,0.67914954,94.066706,112.84564)"
       id="g31">
      <g
         fill="#000000"
         fill-opacity="1"
         id="g2"
         transform="matrix(0.352778,0,0,0.352778,-1.03382,-0.56268)">
        <g
           id="use1"
           transform="translate(1.993,17.969999)">
          <path
             d="m 10.40625,-7.953125 c 0,-1.515625 -0.01563,-4.09375 -1.0625,-6.078125 -0.921875,-1.734375 -2.375,-2.34375 -3.671875,-2.34375 -1.1875,0 -2.703125,0.546875 -3.640625,2.328125 -0.984375,1.859375 -1.09375,4.15625 -1.09375,6.09375 0,1.40625 0.03125,3.5625 0.796875,5.453125 1.0625,2.546875 2.96875,2.890625 3.9375,2.890625 1.140625,0 2.875,-0.46875 3.890625,-2.8125 0.75,-1.71875 0.84375,-3.71875 0.84375,-5.53125 z M 5.671875,0 C 4.09375,0 3.140625,-1.359375 2.796875,-3.25 2.53125,-4.703125 2.53125,-6.84375 2.53125,-8.234375 c 0,-1.90625 0,-3.484375 0.3125,-5 0.484375,-2.109375 1.859375,-2.75 2.828125,-2.75 1.015625,0 2.328125,0.671875 2.796875,2.703125 0.328125,1.40625 0.359375,3.078125 0.359375,5.046875 0,1.625 0,3.59375 -0.296875,5.0625 C 8,-0.46875 6.546875,0 5.671875,0 Z m 0,0"
             id="path30" />
        </g>
      </g>
    </g>
    <g
       inkscape:label=""
       transform="matrix(0.67914954,0,0,0.67914954,143.21663,112.68092)"
       id="g34">
      <g
         fill="#000000"
         fill-opacity="1"
         id="g33"
         transform="matrix(0.352778,0,0,0.352778,-1.18264,-0.706217)">
        <g
           id="g32"
           transform="translate(1.993,19.205)">
          <path
             d="m 6.96875,-16.578125 c 0.015625,-0.09375 0.0625,-0.25 0.0625,-0.375 0,-0.25 -0.234375,-0.25 -0.296875,-0.25 -0.015625,0 -0.90625,0.07813 -1.359375,0.125 -0.421875,0.03125 -0.796875,0.07813 -1.234375,0.109375 -0.59375,0.04687 -0.765625,0.0625 -0.765625,0.515625 0,0.25 0.25,0.25 0.484375,0.25 1.265625,0 1.265625,0.21875 1.265625,0.46875 0,0.09375 0,0.140625 -0.125,0.59375 L 1.46875,-0.96875 c -0.109375,0.375 -0.109375,0.421875 -0.109375,0.578125 0,0.546875 0.421875,0.640625 0.671875,0.640625 0.6875,0 0.84375,-0.546875 1.046875,-1.3125 l 1.15625,-4.640625 C 6.015625,-5.5 7.09375,-4.765625 7.09375,-3.5625 c 0,0.140625 0,0.234375 -0.078125,0.609375 -0.109375,0.375 -0.109375,0.671875 -0.109375,0.796875 0,1.4375 0.953125,2.40625 2.21875,2.40625 1.140625,0 1.734375,-1.046875 1.921875,-1.390625 0.53125,-0.921875 0.84375,-2.296875 0.84375,-2.40625 0,-0.125 -0.09375,-0.21875 -0.25,-0.21875 -0.21875,0 -0.234375,0.09375 -0.34375,0.5 -0.34375,1.28125 -0.859375,3.015625 -2.125,3.015625 -0.5,0 -0.828125,-0.25 -0.828125,-1.1875 0,-0.46875 0.109375,-1.015625 0.203125,-1.390625 0.109375,-0.4375 0.109375,-0.46875 0.109375,-0.765625 0,-1.46875 -1.328125,-2.28125 -3.59375,-2.578125 0.890625,-0.546875 1.78125,-1.515625 2.125,-1.875 1.40625,-1.59375 2.375,-2.390625 3.515625,-2.390625 0.578125,0 0.71875,0.15625 0.890625,0.296875 -0.90625,0.109375 -1.265625,0.75 -1.265625,1.25 0,0.59375 0.46875,0.78125 0.828125,0.78125 0.671875,0 1.265625,-0.5625 1.265625,-1.359375 0,-0.71875 -0.578125,-1.453125 -1.6875,-1.453125 -1.359375,0 -2.484375,0.953125 -4.234375,2.9375 -0.25,0.296875 -1.171875,1.25 -2.09375,1.59375 z m 0,0"
             id="path31" />
        </g>
      </g>
    </g>
    <g
       inkscape:label=""
       transform="matrix(0.67914954,0,0,0.67914954,96.321128,54.724335)"
       id="g43">
      <g
         fill="#000000"
         fill-opacity="1"
         id="g36"
         transform="matrix(0.352778,0,0,0.352778,-1.10547,-0.704673)">
        <g
           id="g35"
           transform="translate(1.993,20.559999)">
          <path
             d="M 17.21875,-5.75 C 17.25,-5.828125 17.328125,-6 17.328125,-6.09375 c 0,-0.125 -0.109375,-0.25 -0.25,-0.25 -0.109375,0 -0.15625,0.03125 -0.234375,0.09375 -0.04687,0.03125 -0.04687,0.078125 -0.265625,0.578125 -1.46875,3.46875 -2.53125,4.953125 -6.484375,4.953125 h -3.625 c -0.34375,0 -0.390625,0 -0.546875,-0.03125 C 5.65625,-0.765625 5.625,-0.8125 5.625,-1.015625 5.625,-1.1875 5.671875,-1.34375 5.71875,-1.5625 L 7.4375,-8.40625 h 2.453125 c 1.9375,0 2.078125,0.421875 2.078125,1.171875 0,0.25 0,0.46875 -0.171875,1.21875 -0.04687,0.09375 -0.07813,0.1875 -0.07813,0.265625 0,0.171875 0.125,0.25 0.28125,0.25 0.21875,0 0.234375,-0.171875 0.34375,-0.515625 l 1.40625,-5.75 c 0,-0.125 -0.09375,-0.25 -0.25,-0.25 -0.21875,0 -0.234375,0.09375 -0.34375,0.4375 -0.5,1.90625 -0.984375,2.453125 -3.1875,2.453125 h -2.35937 l 1.53125,-6.09375 c 0.234375,-0.859375 0.28125,-0.9375 1.296875,-0.9375 h 3.546875 c 3.046875,0 3.65625,0.8125 3.65625,2.703125 0,0.01563 0,0.71875 -0.09375,1.53125 -0.03125,0.09375 -0.04687,0.25 -0.04687,0.296875 0,0.203125 0.125,0.28125 0.265625,0.28125 0.171875,0 0.28125,-0.109375 0.328125,-0.546875 l 0.515625,-4.34375 c 0,-0.07813 0.04687,-0.3125 0.04687,-0.375 0,-0.265625 -0.21875,-0.265625 -0.671875,-0.265625 H 5.890625 c -0.46875,0 -0.71875,0 -0.71875,0.4375 0,0.28125 0.1875,0.28125 0.609375,0.28125 1.53125,0 1.53125,0.171875 1.53125,0.4375 0,0.125 -0.03125,0.234375 -0.09375,0.5 L 3.859375,-1.828125 c -0.21875,0.859375 -0.265625,1.109375 -2,1.109375 -0.46875,0 -0.71875,0 -0.71875,0.453125 C 1.140625,0 1.28125,0 1.78125,0 h 12.4375 c 0.546875,0 0.578125,-0.03125 0.75,-0.421875 z m 0,0"
             id="path34" />
        </g>
      </g>
      <g
         fill="#000000"
         fill-opacity="1"
         id="g38"
         transform="matrix(0.352778,0,0,0.352778,-1.10547,-0.704673)">
        <g
           id="g37"
           transform="translate(21.412001,20.559999)">
          <path
             d="m 7.578125,6.046875 c 0,-0.03125 0,-0.078125 -0.0625,-0.15625 -1.140625,-1.15625 -4.1875,-4.328125 -4.1875,-12.0625 0,-7.734375 2.984375,-10.875 4.203125,-12.109375 0,-0.03125 0.046875,-0.07813 0.046875,-0.15625 0,-0.07813 -0.0625,-0.125 -0.171875,-0.125 -0.265625,0 -2.375,1.828125 -3.59375,4.5625 -1.234375,2.75 -1.578125,5.421875 -1.578125,7.8125 0,1.78125 0.171875,4.796875 1.65625,8 1.1875,2.578125 3.21875,4.375 3.515625,4.375 0.125,0 0.171875,-0.046875 0.171875,-0.140625 z m 0,0"
             id="path36" />
        </g>
      </g>
      <g
         fill="#000000"
         fill-opacity="1"
         id="g40"
         transform="matrix(0.352778,0,0,0.352778,-1.10547,-0.704673)">
        <g
           id="g39"
           transform="translate(30.190001,20.559999)">
          <path
             d="m 6.96875,-16.578125 c 0.015625,-0.09375 0.0625,-0.25 0.0625,-0.375 0,-0.25 -0.234375,-0.25 -0.296875,-0.25 -0.015625,0 -0.90625,0.07813 -1.359375,0.125 -0.421875,0.03125 -0.796875,0.07813 -1.234375,0.109375 -0.59375,0.04687 -0.765625,0.0625 -0.765625,0.515625 0,0.25 0.25,0.25 0.484375,0.25 1.265625,0 1.265625,0.21875 1.265625,0.46875 0,0.09375 0,0.140625 -0.125,0.59375 L 1.46875,-0.96875 c -0.109375,0.375 -0.109375,0.421875 -0.109375,0.578125 0,0.546875 0.421875,0.640625 0.671875,0.640625 0.6875,0 0.84375,-0.546875 1.046875,-1.3125 l 1.15625,-4.640625 C 6.015625,-5.5 7.09375,-4.765625 7.09375,-3.5625 c 0,0.140625 0,0.234375 -0.078125,0.609375 -0.109375,0.375 -0.109375,0.671875 -0.109375,0.796875 0,1.4375 0.953125,2.40625 2.21875,2.40625 1.140625,0 1.734375,-1.046875 1.921875,-1.390625 0.53125,-0.921875 0.84375,-2.296875 0.84375,-2.40625 0,-0.125 -0.09375,-0.21875 -0.25,-0.21875 -0.21875,0 -0.234375,0.09375 -0.34375,0.5 -0.34375,1.28125 -0.859375,3.015625 -2.125,3.015625 -0.5,0 -0.828125,-0.25 -0.828125,-1.1875 0,-0.46875 0.109375,-1.015625 0.203125,-1.390625 0.109375,-0.4375 0.109375,-0.46875 0.109375,-0.765625 0,-1.46875 -1.328125,-2.28125 -3.59375,-2.578125 0.890625,-0.546875 1.78125,-1.515625 2.125,-1.875 1.40625,-1.59375 2.375,-2.390625 3.515625,-2.390625 0.578125,0 0.71875,0.15625 0.890625,0.296875 -0.90625,0.109375 -1.265625,0.75 -1.265625,1.25 0,0.59375 0.46875,0.78125 0.828125,0.78125 0.671875,0 1.265625,-0.5625 1.265625,-1.359375 0,-0.71875 -0.578125,-1.453125 -1.6875,-1.453125 -1.359375,0 -2.484375,0.953125 -4.234375,2.9375 -0.25,0.296875 -1.171875,1.25 -2.09375,1.59375 z m 0,0"
             id="path38" />
        </g>
      </g>
      <g
         fill="#000000"
         fill-opacity="1"
         id="g42"
         transform="matrix(0.352778,0,0,0.352778,-1.10547,-0.704673)">
        <g
           id="g41"
           transform="translate(43.645,20.559999)">
          <path
             d="m 6.515625,-6.171875 c 0,-1.78125 -0.171875,-4.8125 -1.65625,-8 C 3.671875,-16.75 1.640625,-18.5625 1.34375,-18.5625 c -0.078125,0 -0.171875,0.03125 -0.171875,0.15625 0,0.04687 0.015625,0.0625 0.046875,0.125 1.1875,1.234375 4.203125,4.375 4.203125,12.09375 0,7.71875 -3,10.875 -4.203125,12.109375 C 1.1875,5.96875 1.171875,6 1.171875,6.046875 c 0,0.125 0.09375,0.140625 0.171875,0.140625 0.265625,0 2.375,-1.828125 3.59375,-4.546875 1.234375,-2.75 1.578125,-5.4375 1.578125,-7.8125 z m 0,0"
             id="path40" />
        </g>
      </g>
    </g>
  </g>
</svg>
