<?xml version="1.0" encoding="UTF-8" standalone="no"?>
<!-- Created with Inkscape (http://www.inkscape.org/) -->

<svg
   width="210mm"
   height="297mm"
   viewBox="0 0 210 297"
   version="1.1"
   id="svg2376"
   sodipodi:docname="schemesZ.svg"
   inkscape:version="1.2.2 (b0a8486541, 2022-12-01)"
   xmlns:inkscape="http://www.inkscape.org/namespaces/inkscape"
   xmlns:sodipodi="http://sodipodi.sourceforge.net/DTD/sodipodi-0.dtd"
   xmlns="http://www.w3.org/2000/svg"
   xmlns:svg="http://www.w3.org/2000/svg">
  <sodipodi:namedview
     id="namedview2378"
     pagecolor="#505050"
     bordercolor="#eeeeee"
     borderopacity="1"
     inkscape:showpageshadow="0"
     inkscape:pageopacity="0"
     inkscape:pagecheckerboard="0"
     inkscape:deskcolor="#d1d1d1"
     inkscape:document-units="mm"
     showgrid="false"
     inkscape:zoom="3.3638608"
     inkscape:cx="354.05745"
     inkscape:cy="255.2127"
     inkscape:window-width="1920"
     inkscape:window-height="1043"
     inkscape:window-x="0"
     inkscape:window-y="0"
     inkscape:window-maximized="1"
     inkscape:current-layer="layer1" />
  <defs
     id="defs2373">
    <clipPath
       id="clipPath2614">
      <path
         clip-rule="nonzero"
         d="M 1,0 H 14 V 11.953125 H 1 Z m 0,0"
         id="path4068" />
    </clipPath>
    <clipPath
       id="clipPath9167">
      <path
         clip-rule="nonzero"
         d="M 1,0 H 14 V 11.953125 H 1 Z m 0,0"
         id="path4439" />
    </clipPath>
    <clipPath
       id="clipPath5528">
      <path
         clip-rule="nonzero"
         d="M 1,0 H 14 V 11.953125 H 1 Z m 0,0"
         id="path5056" />
    </clipPath>
    <clipPath
       id="clipPath1887">
      <path
         clip-rule="nonzero"
         d="M 1,0 H 14 V 11.953125 H 1 Z m 0,0"
         id="path6099" />
    </clipPath>
    <clipPath
       id="clipPath7029">
      <path
         clip-rule="nonzero"
         d="M 1,0 H 3 V 1.160156 H 1 Z m 0,0"
         id="path1510" />
    </clipPath>
    <clipPath
       id="clipPath4385">
      <path
         clip-rule="nonzero"
         d="M 6,0 H 8 V 1.160156 H 6 Z m 0,0"
         id="path4808" />
    </clipPath>
    <clipPath
       id="clipPath280">
      <path
         clip-rule="nonzero"
         d="m 11,0 h 2 v 1.160156 h -2 z m 0,0"
         id="path1439" />
    </clipPath>
  </defs>
  <g
     inkscape:label="Layer 1"
     inkscape:groupmode="layer"
     id="layer1">
    <circle
       style="fill:#d08770;stroke:#bf616a;stroke-width:0.3;stroke-linecap:round;stroke-linejoin:round;stroke-miterlimit:2"
       id="path3638"
       cx="59.070389"
       cy="62.001926"
       r="1.6885047" />
    <circle
       style="fill:#d08770;stroke:#bf616a;stroke-width:0.3;stroke-linecap:round;stroke-linejoin:round;stroke-miterlimit:2"
       id="path3638-3"
       cx="72.800865"
       cy="62.001926"
       r="1.6885047" />
    <circle
       style="fill:#d08770;stroke:#bf616a;stroke-width:0.3;stroke-linecap:round;stroke-linejoin:round;stroke-miterlimit:2"
       id="path3638-6"
       cx="86.531342"
       cy="62.001926"
       r="1.6885047" />
    <circle
       style="fill:#d08770;stroke:#bf616a;stroke-width:0.3;stroke-linecap:round;stroke-linejoin:round;stroke-miterlimit:2"
       id="path3638-7"
       cx="100.26182"
       cy="62.001926"
       r="1.6885047" />
    <path
       style="fill:#d8dee9;fill-opacity:0.384246;stroke:#bf616a;stroke-width:0.3;stroke-linecap:round;stroke-linejoin:round;stroke-miterlimit:2"
       d="m 113.90147,53.308441 c 0,0 -13.7137,-0.79754 -17.706821,1.178288 -4.307194,2.131233 -1.004689,9.696644 -8.759854,9.901884 -7.755165,0.20524 -7.096435,-12.908889 -13.330737,-13.000448 -6.234303,-0.09156 -9.632309,14.625112 0.461266,15.152698 10.878775,0.568629 6.389984,0.975501 20.636925,0.79515 14.246931,-0.180353 19.203711,0.323215 19.203711,0.323215"
       id="path3693"
       sodipodi:nodetypes="csssssc" />
    <path
       style="fill:#5e81ac;fill-opacity:0.384246;stroke:#bf616a;stroke-width:0.3;stroke-linecap:round;stroke-linejoin:round;stroke-miterlimit:2"
       d="m 117.13061,50.86767 c 0,0 -24.537038,0.04134 -31.654195,0.137646 -7.863978,0.106414 -15.355953,15.156696 4.092502,14.907822 23.843493,-0.305116 29.867263,-0.396346 29.867263,-0.396346"
       id="path5855"
       sodipodi:nodetypes="cssc" />
    <g
       inkscape:label=""
       transform="translate(56.846311,55.32322)"
       id="g5998">
      <g
         clip-path="url(#clipPath2614)"
         id="g26"
         transform="matrix(0.352778,0,0,0.352778,-0.413411,9.7028e-4)">
        <g
           fill="#000000"
           fill-opacity="1"
           id="g24">
          <g
             id="use18"
             transform="translate(0,8.9659996)">
            <path
               d="m 3.890625,2.90625 c 0,-0.03125 0,-0.0625 -0.203125,-0.265625 C 2.484375,1.4375 1.8125,-0.53125 1.8125,-2.96875 c 0,-2.328125 0.5625,-4.328125 1.953125,-5.734375 0.125,-0.109375 0.125,-0.125 0.125,-0.171875 0,-0.0625 -0.0625,-0.09375 -0.109375,-0.09375 -0.15625,0 -1.140625,0.859375 -1.71875,2.03125 -0.609375,1.21875 -0.890625,2.484375 -0.890625,3.96875 0,1.0625 0.171875,2.484375 0.78125,3.75 C 2.671875,2.21875 3.640625,3 3.78125,3 3.828125,3 3.890625,2.96875 3.890625,2.90625 Z m 0,0"
               id="path32" />
          </g>
          <g
             id="use20"
             transform="translate(4.5525398,8.9659996)">
            <path
               d="M 5.265625,-2.015625 H 5 c -0.046875,0.203125 -0.140625,0.875 -0.25,1.0625 C 4.65625,-0.84375 3.984375,-0.84375 3.625,-0.84375 H 1.40625 c 0.328125,-0.28125 1.0625,-1.046875 1.359375,-1.328125 1.828125,-1.671875 2.5,-2.296875 2.5,-3.484375 0,-1.375 -1.09375,-2.296875 -2.484375,-2.296875 -1.375,0 -2.203125,1.1875 -2.203125,2.21875 0,0.609375 0.53125,0.609375 0.5625,0.609375 0.265625,0 0.5625,-0.1875 0.5625,-0.5625 0,-0.34375 -0.21875,-0.5625 -0.5625,-0.5625 -0.09375,0 -0.125,0 -0.15625,0.015625 0.21875,-0.8125 0.875,-1.375 1.640625,-1.375 1.015625,0 1.640625,0.859375 1.640625,1.953125 C 4.265625,-4.640625 3.6875,-3.75 3,-2.984375 L 0.578125,-0.28125 V 0 h 4.375 z m 0,0"
               id="path36" />
          </g>
          <g
             id="use22"
             transform="translate(10.405806,8.9659996)">
            <path
               d="M 3.375,-2.96875 C 3.375,-3.890625 3.25,-5.359375 2.578125,-6.75 1.875,-8.1875 0.890625,-8.96875 0.765625,-8.96875 c -0.046875,0 -0.109375,0.03125 -0.109375,0.09375 0,0.046875 0,0.0625 0.203125,0.265625 1.203125,1.203125 1.859375,3.1875 1.859375,5.625 0,2.3125 -0.5625,4.3125 -1.9375,5.71875 C 0.65625,2.84375 0.65625,2.875 0.65625,2.90625 0.65625,2.96875 0.71875,3 0.765625,3 0.921875,3 1.90625,2.140625 2.484375,0.96875 3.09375,-0.25 3.375,-1.546875 3.375,-2.96875 Z m 0,0"
               id="path40" />
          </g>
        </g>
      </g>
    </g>
    <g
       inkscape:label=""
       transform="translate(70.96236,55.627359)"
       id="g6071">
      <g
         clip-path="url(#clipPath9167)"
         id="g6069"
         transform="matrix(0.352778,0,0,0.352778,-0.413411,9.7028e-4)">
        <g
           fill="#000000"
           fill-opacity="1"
           id="g6067">
          <g
             id="g6057"
             transform="translate(0,8.9659996)">
            <path
               d="m 3.890625,2.90625 c 0,-0.03125 0,-0.0625 -0.203125,-0.265625 C 2.484375,1.4375 1.8125,-0.53125 1.8125,-2.96875 c 0,-2.328125 0.5625,-4.328125 1.953125,-5.734375 0.125,-0.109375 0.125,-0.125 0.125,-0.171875 0,-0.0625 -0.0625,-0.09375 -0.109375,-0.09375 -0.15625,0 -1.140625,0.859375 -1.71875,2.03125 -0.609375,1.21875 -0.890625,2.484375 -0.890625,3.96875 0,1.0625 0.171875,2.484375 0.78125,3.75 C 2.671875,2.21875 3.640625,3 3.78125,3 3.828125,3 3.890625,2.96875 3.890625,2.90625 Z m 0,0"
               id="path6055" />
          </g>
          <g
             id="g6061"
             transform="translate(4.5525398,8.9659996)">
            <path
               d="m 2.203125,-4.296875 c -0.203125,0.015625 -0.25,0.03125 -0.25,0.140625 0,0.109375 0.0625,0.109375 0.265625,0.109375 h 0.546875 c 1.03125,0 1.484375,0.84375 1.484375,1.984375 0,1.578125 -0.8125,1.984375 -1.40625,1.984375 -0.578125,0 -1.546875,-0.265625 -1.90625,-1.0625 0.390625,0.0625 0.734375,-0.15625 0.734375,-0.578125 0,-0.34375 -0.25,-0.59375 -0.578125,-0.59375 -0.296875,0 -0.609375,0.171875 -0.609375,0.625 0,1.0625 1.0625,1.9375 2.390625,1.9375 1.421875,0 2.484375,-1.09375 2.484375,-2.296875 C 5.359375,-3.140625 4.46875,-4 3.328125,-4.203125 4.359375,-4.5 5.03125,-5.375 5.03125,-6.3125 c 0,-0.9375 -0.984375,-1.640625 -2.140625,-1.640625 -1.1875,0 -2.078125,0.734375 -2.078125,1.609375 0,0.46875 0.375,0.578125 0.546875,0.578125 0.25,0 0.546875,-0.1875 0.546875,-0.546875 0,-0.375 -0.296875,-0.546875 -0.5625,-0.546875 -0.0625,0 -0.09375,0 -0.125,0.015625 0.453125,-0.8125 1.578125,-0.8125 1.640625,-0.8125 0.390625,0 1.171875,0.171875 1.171875,1.34375 0,0.234375 -0.03125,0.890625 -0.390625,1.40625 C 3.28125,-4.375 2.875,-4.34375 2.5625,-4.328125 Z m 0,0"
               id="path6059" />
          </g>
          <g
             id="g6065"
             transform="translate(10.405806,8.9659996)">
            <path
               d="M 3.375,-2.96875 C 3.375,-3.890625 3.25,-5.359375 2.578125,-6.75 1.875,-8.1875 0.890625,-8.96875 0.765625,-8.96875 c -0.046875,0 -0.109375,0.03125 -0.109375,0.09375 0,0.046875 0,0.0625 0.203125,0.265625 1.203125,1.203125 1.859375,3.1875 1.859375,5.625 0,2.3125 -0.5625,4.3125 -1.9375,5.71875 C 0.65625,2.84375 0.65625,2.875 0.65625,2.90625 0.65625,2.96875 0.71875,3 0.765625,3 0.921875,3 1.90625,2.140625 2.484375,0.96875 3.09375,-0.25 3.375,-1.546875 3.375,-2.96875 Z m 0,0"
               id="path6063" />
          </g>
        </g>
      </g>
    </g>
    <g
       inkscape:label=""
       transform="translate(84.307264,55.301172)"
       id="g6166">
      <g
         clip-path="url(#clipPath5528)"
         id="g6164"
         transform="matrix(0.352778,0,0,0.352778,-0.413411,9.7028e-4)">
        <g
           fill="#000000"
           fill-opacity="1"
           id="g6162">
          <g
             id="g6152"
             transform="translate(0,8.9659996)">
            <path
               d="m 3.890625,2.90625 c 0,-0.03125 0,-0.0625 -0.203125,-0.265625 C 2.484375,1.4375 1.8125,-0.53125 1.8125,-2.96875 c 0,-2.328125 0.5625,-4.328125 1.953125,-5.734375 0.125,-0.109375 0.125,-0.125 0.125,-0.171875 0,-0.0625 -0.0625,-0.09375 -0.109375,-0.09375 -0.15625,0 -1.140625,0.859375 -1.71875,2.03125 -0.609375,1.21875 -0.890625,2.484375 -0.890625,3.96875 0,1.0625 0.171875,2.484375 0.78125,3.75 C 2.671875,2.21875 3.640625,3 3.78125,3 3.828125,3 3.890625,2.96875 3.890625,2.90625 Z m 0,0"
               id="path6150" />
          </g>
          <g
             id="g6156"
             transform="translate(4.5525398,8.9659996)">
            <path
               d="m 1.53125,-6.84375 c 0.515625,0.15625 0.9375,0.171875 1.0625,0.171875 1.34375,0 2.21875,-0.984375 2.21875,-1.15625 0,-0.046875 -0.03125,-0.109375 -0.109375,-0.109375 -0.015625,0 -0.046875,0 -0.15625,0.046875 C 3.890625,-7.609375 3.3125,-7.5625 3,-7.5625 c -0.78125,0 -1.34375,-0.25 -1.578125,-0.34375 C 1.34375,-7.9375 1.3125,-7.9375 1.296875,-7.9375 c -0.09375,0 -0.09375,0.078125 -0.09375,0.265625 V -4.125 c 0,0.21875 0,0.28125 0.140625,0.28125 0.0625,0 0.078125,0 0.203125,-0.15625 C 1.875,-4.484375 2.4375,-4.765625 3.03125,-4.765625 c 0.640625,0 0.953125,0.578125 1.046875,0.78125 0.203125,0.46875 0.21875,1.0625 0.21875,1.515625 0,0.453125 0,1.125 -0.34375,1.671875 -0.265625,0.421875 -0.71875,0.71875 -1.25,0.71875 -0.796875,0 -1.5625,-0.53125 -1.78125,-1.40625 0.0625,0.03125 0.125,0.03125 0.1875,0.03125 0.203125,0 0.53125,-0.109375 0.53125,-0.515625 0,-0.34375 -0.234375,-0.53125 -0.53125,-0.53125 -0.21875,0 -0.53125,0.109375 -0.53125,0.578125 0,1.015625 0.828125,2.171875 2.140625,2.171875 1.359375,0 2.546875,-1.140625 2.546875,-2.65625 0,-1.421875 -0.96875,-2.609375 -2.21875,-2.609375 -0.6875,0 -1.203125,0.3125 -1.515625,0.640625 z m 0,0"
               id="path6154" />
          </g>
          <g
             id="g6160"
             transform="translate(10.405806,8.9659996)">
            <path
               d="M 3.375,-2.96875 C 3.375,-3.890625 3.25,-5.359375 2.578125,-6.75 1.875,-8.1875 0.890625,-8.96875 0.765625,-8.96875 c -0.046875,0 -0.109375,0.03125 -0.109375,0.09375 0,0.046875 0,0.0625 0.203125,0.265625 1.203125,1.203125 1.859375,3.1875 1.859375,5.625 0,2.3125 -0.5625,4.3125 -1.9375,5.71875 C 0.65625,2.84375 0.65625,2.875 0.65625,2.90625 0.65625,2.96875 0.71875,3 0.765625,3 0.921875,3 1.90625,2.140625 2.484375,0.96875 3.09375,-0.25 3.375,-1.546875 3.375,-2.96875 Z m 0,0"
               id="path6158" />
          </g>
        </g>
      </g>
    </g>
    <g
       inkscape:label=""
       transform="translate(98.325084,55.627359)"
       id="g6283">
      <g
         clip-path="url(#clipPath1887)"
         id="g6281"
         transform="matrix(0.352778,0,0,0.352778,-0.413411,9.7028e-4)">
        <g
           fill="#000000"
           fill-opacity="1"
           id="g6279">
          <g
             id="g6269"
             transform="translate(0,8.9659996)">
            <path
               d="m 3.890625,2.90625 c 0,-0.03125 0,-0.0625 -0.203125,-0.265625 C 2.484375,1.4375 1.8125,-0.53125 1.8125,-2.96875 c 0,-2.328125 0.5625,-4.328125 1.953125,-5.734375 0.125,-0.109375 0.125,-0.125 0.125,-0.171875 0,-0.0625 -0.0625,-0.09375 -0.109375,-0.09375 -0.15625,0 -1.140625,0.859375 -1.71875,2.03125 -0.609375,1.21875 -0.890625,2.484375 -0.890625,3.96875 0,1.0625 0.171875,2.484375 0.78125,3.75 C 2.671875,2.21875 3.640625,3 3.78125,3 3.828125,3 3.890625,2.96875 3.890625,2.90625 Z m 0,0"
               id="path6267" />
          </g>
          <g
             id="g6273"
             transform="translate(4.5525398,8.9659996)">
            <path
               d="m 5.671875,-7.421875 v -0.28125 h -2.875 c -1.453125,0 -1.46875,-0.15625 -1.515625,-0.375 H 1.015625 l -0.375,2.390625 H 0.90625 c 0.03125,-0.21875 0.140625,-0.953125 0.296875,-1.09375 0.09375,-0.0625 1,-0.0625 1.15625,-0.0625 H 4.90625 l -1.265625,1.8125 c -0.328125,0.46875 -1.53125,2.421875 -1.53125,4.671875 0,0.125 0,0.609375 0.484375,0.609375 0.5,0 0.5,-0.46875 0.5,-0.625 V -0.96875 C 3.09375,-2.75 3.375,-4.140625 3.9375,-4.9375 Z m 0,0"
               id="path6271" />
          </g>
          <g
             id="g6277"
             transform="translate(10.405806,8.9659996)">
            <path
               d="M 3.375,-2.96875 C 3.375,-3.890625 3.25,-5.359375 2.578125,-6.75 1.875,-8.1875 0.890625,-8.96875 0.765625,-8.96875 c -0.046875,0 -0.109375,0.03125 -0.109375,0.09375 0,0.046875 0,0.0625 0.203125,0.265625 1.203125,1.203125 1.859375,3.1875 1.859375,5.625 0,2.3125 -0.5625,4.3125 -1.9375,5.71875 C 0.65625,2.84375 0.65625,2.875 0.65625,2.90625 0.65625,2.96875 0.71875,3 0.765625,3 0.921875,3 1.90625,2.140625 2.484375,0.96875 3.09375,-0.25 3.375,-1.546875 3.375,-2.96875 Z m 0,0"
               id="path6275" />
          </g>
        </g>
      </g>
    </g>
    <g
       inkscape:label=""
       transform="translate(122.57967,61.798302)"
       id="g6425">
      <g
         clip-path="url(#clipPath7029)"
         id="g22"
         transform="matrix(0.352778,0,0,0.352778,-0.369314,-0.00202845)">
        <g
           fill="#000000"
           fill-opacity="1"
           id="g20">
          <g
             id="g6412"
             transform="translate(0,1.1619999)">
            <path
               d="m 2.203125,-0.578125 c 0,-0.34375 -0.296875,-0.578125 -0.578125,-0.578125 -0.34375,0 -0.578125,0.28125 -0.578125,0.578125 0,0.34375 0.28125,0.578125 0.5625,0.578125 0.34375,0 0.59375,-0.28125 0.59375,-0.578125 z m 0,0"
               id="path6410" />
          </g>
        </g>
      </g>
      <g
         clip-path="url(#clipPath4385)"
         id="g28"
         transform="matrix(0.352778,0,0,0.352778,-0.369314,-0.00202845)">
        <g
           fill="#000000"
           fill-opacity="1"
           id="g6418">
          <g
             id="use24"
             transform="translate(5.248333,1.1619999)">
            <path
               d="m 2.203125,-0.578125 c 0,-0.34375 -0.296875,-0.578125 -0.578125,-0.578125 -0.34375,0 -0.578125,0.28125 -0.578125,0.578125 0,0.34375 0.28125,0.578125 0.5625,0.578125 0.34375,0 0.59375,-0.28125 0.59375,-0.578125 z m 0,0"
               id="path44" />
          </g>
        </g>
      </g>
      <g
         clip-path="url(#clipPath280)"
         id="g34"
         transform="matrix(0.352778,0,0,0.352778,-0.369314,-0.00202845)">
        <g
           fill="#000000"
           fill-opacity="1"
           id="g32">
          <g
             id="use30"
             transform="translate(10.48471,1.1619999)">
            <path
               d="m 2.203125,-0.578125 c 0,-0.34375 -0.296875,-0.578125 -0.578125,-0.578125 -0.34375,0 -0.578125,0.28125 -0.578125,0.578125 0,0.34375 0.28125,0.578125 0.5625,0.578125 0.34375,0 0.59375,-0.28125 0.59375,-0.578125 z m 0,0"
               id="path48" />
          </g>
        </g>
      </g>
    </g>
  </g>
</svg>
