<?xml version="1.0" encoding="UTF-8" standalone="no"?>
<!-- Created with Inkscape (http://www.inkscape.org/) -->

<svg
   width="210mm"
   height="297mm"
   viewBox="0 0 210 297"
   version="1.1"
   id="svg5"
   inkscape:version="1.2.2 (b0a8486541, 2022-12-01)"
   sodipodi:docname="schemeC.svg"
   xmlns:inkscape="http://www.inkscape.org/namespaces/inkscape"
   xmlns:sodipodi="http://sodipodi.sourceforge.net/DTD/sodipodi-0.dtd"
   xmlns="http://www.w3.org/2000/svg"
   xmlns:svg="http://www.w3.org/2000/svg">
  <sodipodi:namedview
     id="namedview7"
     pagecolor="#505050"
     bordercolor="#eeeeee"
     borderopacity="1"
     inkscape:showpageshadow="0"
     inkscape:pageopacity="0"
     inkscape:pagecheckerboard="0"
     inkscape:deskcolor="#d1d1d1"
     inkscape:document-units="mm"
     showgrid="false"
     inkscape:zoom="1.6819304"
     inkscape:cx="250.01034"
     inkscape:cy="351.08468"
     inkscape:window-width="1920"
     inkscape:window-height="1043"
     inkscape:window-x="0"
     inkscape:window-y="0"
     inkscape:window-maximized="1"
     inkscape:current-layer="layer1" />
  <defs
     id="defs2">
    <clipPath
       id="clipPath3876">
      <path
         clip-rule="nonzero"
         d="M 0,0 H 9 V 8.167969 H 0 Z m 0,0"
         id="path9629" />
    </clipPath>
    <clipPath
       id="clipPath6897">
      <path
         clip-rule="nonzero"
         d="M 0,0 H 10.65625 V 8.167969 H 0 Z m 0,0"
         id="path4370" />
    </clipPath>
  </defs>
  <g
     inkscape:label="Layer 1"
     inkscape:groupmode="layer"
     id="layer1">
    <path
       style="fill:#d8dee9;stroke:#000000;stroke-width:0.220587;stroke-linecap:round;stroke-linejoin:round;stroke-miterlimit:2"
       d="M 88.436767,49.986577 V 86.402302"
       id="path1103"
       sodipodi:nodetypes="cc" />
    <path
       style="fill:#d8dee9;stroke:#000000;stroke-width:0.254408;stroke-linecap:round;stroke-linejoin:round;stroke-miterlimit:2"
       d="M 46.927718,84.17328 H 132.69861"
       id="path1105"
       sodipodi:nodetypes="cc" />
    <path
       style="fill:none;stroke:#5e81ac;stroke-width:0.254408;stroke-linecap:round;stroke-linejoin:round;stroke-miterlimit:2"
       d="m 64.409513,52.914159 c 0,0 11.094908,31.259121 24.027252,31.259121 12.932345,0 25.144175,-31.165637 25.144175,-31.165637"
       id="path1211"
       sodipodi:nodetypes="csc" />
    <path
       style="fill:#d08770;stroke:#bf616a;stroke-width:0.254408;stroke-linecap:round;stroke-linejoin:round;stroke-miterlimit:2"
       d="M 71.358847,57.338256 78.15011,52.459533"
       id="path1417" />
    <path
       style="fill:#d08770;stroke:#bf616a;stroke-width:0.254408;stroke-linecap:round;stroke-linejoin:round;stroke-miterlimit:2"
       d="M 73.288143,62.540504 85.795812,53.555213"
       id="path1581" />
    <path
       style="fill:#d08770;stroke:#bf616a;stroke-width:0.254408;stroke-linecap:round;stroke-linejoin:round;stroke-miterlimit:2"
       d="M 75.363455,67.136335 93.818089,53.87885"
       id="path1583" />
    <path
       style="fill:#d08770;stroke:#bf616a;stroke-width:0.254408;stroke-linecap:round;stroke-linejoin:round;stroke-miterlimit:2"
       d="M 79.541976,73.223916 104.79791,55.080504"
       id="path1585" />
    <path
       style="fill:#d08770;stroke:#bf616a;stroke-width:0.254408;stroke-linecap:round;stroke-linejoin:round;stroke-miterlimit:2"
       d="M 82.788898,77.967929 107.24491,60.39916"
       id="path1587" />
    <path
       style="fill:#d08770;stroke:#bf616a;stroke-width:0.254408;stroke-linecap:round;stroke-linejoin:round;stroke-miterlimit:2"
       d="M 89.283644,80.368643 103.42943,70.206564"
       id="path1589" />
    <path
       style="fill:#d08770;stroke:#bf616a;stroke-width:0.254408;stroke-linecap:round;stroke-linejoin:round;stroke-miterlimit:2"
       d="m 49.980453,65.634865 11.02919,-7.923176"
       id="path1591" />
    <path
       style="fill:#d08770;stroke:#bf616a;stroke-width:0.254408;stroke-linecap:round;stroke-linejoin:round;stroke-miterlimit:2"
       d="m 55.495047,69.183544 9.612077,-6.905146"
       id="path1593" />
    <path
       style="fill:#d08770;stroke:#bf616a;stroke-width:0.254408;stroke-linecap:round;stroke-linejoin:round;stroke-miterlimit:2"
       d="m 59.73882,73.727645 8.207799,-5.896338"
       id="path1595" />
    <path
       style="fill:#d08770;stroke:#bf616a;stroke-width:0.254408;stroke-linecap:round;stroke-linejoin:round;stroke-miterlimit:2"
       d="M 58.333803,81.89489 71.058688,72.753557"
       id="path1597" />
    <path
       style="fill:#d08770;stroke:#bf616a;stroke-width:0.254408;stroke-linecap:round;stroke-linejoin:round;stroke-miterlimit:2"
       d="m 65.015787,84.17328 9.793011,-7.113192"
       id="path1599"
       sodipodi:nodetypes="cc" />
    <path
       style="fill:#d08770;stroke:#bf616a;stroke-width:0.254408;stroke-linecap:round;stroke-linejoin:round;stroke-miterlimit:2"
       d="m 114.44056,58.352116 5.50861,-3.957281"
       id="path1601" />
    <path
       style="fill:#d08770;stroke:#bf616a;stroke-width:0.254408;stroke-linecap:round;stroke-linejoin:round;stroke-miterlimit:2"
       d="m 111.13623,65.30582 13.40915,-9.632895"
       id="path1603" />
    <path
       style="fill:#d08770;stroke:#bf616a;stroke-width:0.254408;stroke-linecap:round;stroke-linejoin:round;stroke-miterlimit:2"
       d="M 107.39499,73.331729 127.81788,58.660282"
       id="path1605" />
    <path
       style="fill:#d08770;stroke:#bf616a;stroke-width:0.254408;stroke-linecap:round;stroke-linejoin:round;stroke-miterlimit:2"
       d="M 103.0625,83.368331 128.4724,63.954718"
       id="path1607"
       sodipodi:nodetypes="cc" />
    <g
       inkscape:label=""
       transform="translate(89.440789,49.909973)"
       id="g13389">
      <g
         clip-path="url(#clipPath3876)"
         id="g16"
         transform="matrix(0.352778,0,0,0.352778,-0.137804,-0.0044978)">
        <g
           fill="#000000"
           fill-opacity="1"
           id="g14">
          <g
             id="use12"
             transform="translate(0,8.1689997)">
            <path
               d="M 7.03125,-6.84375 7.296875,-7.109375 C 7.828125,-7.65625 8.265625,-7.78125 8.6875,-7.8125 8.828125,-7.828125 8.921875,-7.84375 8.921875,-8.046875 8.921875,-8.15625 8.8125,-8.15625 8.78125,-8.15625 c -0.140625,0 -0.296875,0.015625 -0.4375,0.015625 H 7.859375 c -0.359375,0 -0.71875,-0.015625 -1.0625,-0.015625 -0.078125,0 -0.203125,0 -0.203125,0.21875 0,0.109375 0.109375,0.125 0.140625,0.125 0.359375,0.015625 0.359375,0.203125 0.359375,0.265625 0,0.140625 -0.09375,0.3125 -0.328125,0.59375 L 3.921875,-3.6875 2.5625,-7.328125 C 2.5,-7.5 2.5,-7.515625 2.5,-7.546875 c 0,-0.25 0.484375,-0.265625 0.625,-0.265625 0.15625,0 0.28125,0 0.28125,-0.21875 0,-0.125 -0.109375,-0.125 -0.171875,-0.125 -0.203125,0 -0.453125,0.015625 -0.65625,0.015625 H 1.25 c -0.203125,0 -0.4375,-0.015625 -0.640625,-0.015625 -0.078125,0 -0.21875,0 -0.21875,0.21875 0,0.125 0.109375,0.125 0.296875,0.125 0.578125,0 0.6875,0.109375 0.796875,0.375 l 1.484375,3.984375 c 0,0.03125 0.046875,0.171875 0.046875,0.203125 0,0.03125 -0.59375,2.390625 -0.625,2.515625 -0.09375,0.3125 -0.21875,0.375 -0.984375,0.390625 -0.203125,0 -0.296875,0 -0.296875,0.21875 C 1.109375,0 1.25,0 1.28125,0 1.5,0 1.75,-0.03125 1.96875,-0.03125 H 3.375 C 3.59375,-0.03125 3.84375,0 4.0625,0 c 0.078125,0 0.234375,0 0.234375,-0.21875 0,-0.125 -0.09375,-0.125 -0.296875,-0.125 -0.734375,0 -0.734375,-0.09375 -0.734375,-0.21875 0,-0.078125 0.09375,-0.46875 0.15625,-0.703125 l 0.421875,-1.71875 c 0.078125,-0.25 0.078125,-0.28125 0.1875,-0.390625 z m 0,0"
               id="path22" />
          </g>
        </g>
      </g>
    </g>
    <g
       inkscape:label=""
       transform="translate(128.5996,80.618553)"
       id="g13466">
      <g
         clip-path="url(#clipPath6897)"
         id="g13464"
         transform="matrix(0.352778,0,0,0.352778,-0.104731,-0.0044978)">
        <g
           fill="#000000"
           fill-opacity="1"
           id="g13462">
          <g
             id="g13460"
             transform="translate(0,8.1689997)">
            <path
               d="m 5.671875,-4.859375 -1.125,-2.609375 C 4.703125,-7.75 5.0625,-7.8125 5.21875,-7.8125 c 0.0625,0 0.203125,-0.015625 0.203125,-0.21875 0,-0.125 -0.109375,-0.125 -0.1875,-0.125 -0.203125,0 -0.4375,0.015625 -0.640625,0.015625 H 3.890625 c -0.71875,0 -1.25,-0.015625 -1.265625,-0.015625 -0.09375,0 -0.203125,0 -0.203125,0.21875 0,0.125 0.09375,0.125 0.25,0.125 0.703125,0 0.75,0.109375 0.859375,0.40625 l 1.421875,3.3125 -2.59375,2.78125 C 1.9375,-0.84375 1.421875,-0.390625 0.53125,-0.34375 0.390625,-0.328125 0.296875,-0.328125 0.296875,-0.125 0.296875,-0.078125 0.3125,0 0.4375,0 0.609375,0 0.78125,-0.03125 0.953125,-0.03125 h 0.5625 C 1.90625,-0.03125 2.3125,0 2.6875,0 c 0.078125,0 0.234375,0 0.234375,-0.21875 0,-0.109375 -0.09375,-0.125 -0.15625,-0.125 -0.25,-0.03125 -0.40625,-0.15625 -0.40625,-0.34375 0,-0.203125 0.15625,-0.359375 0.5,-0.71875 l 1.0625,-1.15625 C 4.1875,-2.828125 4.8125,-3.53125 5.078125,-3.796875 l 1.25,2.953125 c 0.015625,0.015625 0.0625,0.140625 0.0625,0.15625 0,0.109375 -0.265625,0.3125 -0.640625,0.34375 -0.078125,0 -0.203125,0.015625 -0.203125,0.21875 C 5.546875,0 5.671875,0 5.71875,0 5.921875,0 6.171875,-0.03125 6.375,-0.03125 H 7.6875 C 7.90625,-0.03125 8.125,0 8.328125,0 c 0.09375,0 0.21875,0 0.21875,-0.234375 0,-0.109375 -0.125,-0.109375 -0.234375,-0.109375 C 7.609375,-0.359375 7.578125,-0.421875 7.375,-0.859375 L 5.796875,-4.5625 7.3125,-6.1875 c 0.125,-0.125 0.390625,-0.421875 0.5,-0.546875 0.515625,-0.53125 1,-1.015625 1.96875,-1.078125 0.109375,-0.015625 0.234375,-0.015625 0.234375,-0.21875 0,-0.125 -0.109375,-0.125 -0.15625,-0.125 -0.171875,0 -0.34375,0.015625 -0.515625,0.015625 H 8.796875 C 8.421875,-8.140625 8,-8.15625 7.625,-8.15625 c -0.078125,0 -0.21875,0 -0.21875,0.203125 0,0.125 0.078125,0.140625 0.140625,0.140625 0.203125,0.015625 0.40625,0.109375 0.40625,0.34375 L 7.9375,-7.453125 C 7.921875,-7.359375 7.90625,-7.25 7.765625,-7.09375 Z m 0,0"
               id="path13458" />
          </g>
        </g>
      </g>
    </g>
  </g>
</svg>
