<?xml version="1.0" encoding="UTF-8" standalone="no"?>
<!-- Created with Inkscape (http://www.inkscape.org/) -->

<svg
   width="210mm"
   height="297mm"
   viewBox="0 0 210 297"
   version="1.1"
   id="svg1"
   inkscape:version="1.3.2 (091e20ef0f, 2023-11-25, custom)"
   sodipodi:docname="dual.svg"
   inkscape:export-filename="../images/dual.png"
   inkscape:export-xdpi="500"
   inkscape:export-ydpi="500"
   xmlns:inkscape="http://www.inkscape.org/namespaces/inkscape"
   xmlns:sodipodi="http://sodipodi.sourceforge.net/DTD/sodipodi-0.dtd"
   xmlns="http://www.w3.org/2000/svg"
   xmlns:svg="http://www.w3.org/2000/svg">
  <sodipodi:namedview
     id="namedview1"
     pagecolor="#505050"
     bordercolor="#eeeeee"
     borderopacity="1"
     inkscape:showpageshadow="0"
     inkscape:pageopacity="0"
     inkscape:pagecheckerboard="0"
     inkscape:deskcolor="#d1d1d1"
     inkscape:document-units="mm"
     inkscape:zoom="3.0003928"
     inkscape:cx="438.60924"
     inkscape:cy="474.60452"
     inkscape:window-width="1908"
     inkscape:window-height="1066"
     inkscape:window-x="1924"
     inkscape:window-y="5"
     inkscape:window-maximized="1"
     inkscape:current-layer="layer1"
     showgrid="false" />
  <defs
     id="defs1" />
  <g
     inkscape:label="Layer 1"
     inkscape:groupmode="layer"
     id="layer1">
    <path
       style="fill:#000001;fill-rule:evenodd;stroke:#000001;stroke-width:0.499999;stroke-linecap:round;stroke-linejoin:round;stroke-miterlimit:2;fill-opacity:1;stroke-opacity:1"
       d="m 47.393484,115.1447 48.992059,6.55841"
       id="path1" />
    <path
       style="fill:none;fill-opacity:1;fill-rule:evenodd;stroke:#000001;stroke-width:0.499999;stroke-linecap:round;stroke-linejoin:round;stroke-miterlimit:2;stroke-opacity:1"
       d="m 51.906098,102.19367 c 0,0 -0.388668,13.50309 5.516938,14.29365 5.905608,0.79057 7.450233,-16.07596 13.595133,-12.6765 6.1449,3.39946 2.993871,14.89722 8.556969,15.64193 5.563094,0.74472 14.229074,-8.11369 14.229074,-8.11369"
       id="path2" />
    <path
       style="fill:none;fill-opacity:1;fill-rule:evenodd;stroke:#000001;stroke-width:0.499999;stroke-linecap:round;stroke-linejoin:round;stroke-miterlimit:2;stroke-opacity:1"
       d="m 120.26817,105.52253 36.49681,15.59873"
       id="path3" />
    <path
       style="fill:none;fill-opacity:1;fill-rule:evenodd;stroke:#000001;stroke-width:0.499999;stroke-linecap:round;stroke-linejoin:round;stroke-miterlimit:2;stroke-opacity:1"
       d="m 152.80561,106.54502 -24.65182,16.52892"
       id="path4" />
    <g
       inkscape:label=""
       transform="matrix(0.59303562,0,0,0.59303562,94.054211,122.39585)"
       id="g1">
      <g
         fill="#000000"
         fill-opacity="1"
         id="g8"
         transform="matrix(0.352778,0,0,0.352778,-0.802305,-0.702116)">
        <g
           id="use7"
           transform="translate(1.993,10.959)">
          <path
             d="M 4.984375,-7.296875 C 5.0625,-7.578125 5.078125,-7.6875 5.265625,-7.734375 5.359375,-7.75 5.75,-7.75 6,-7.75 c 1.203125,0 1.75,0.046875 1.75,0.96875 0,0.1875 -0.046875,0.640625 -0.109375,1.078125 L 7.625,-5.5625 c 0,0.046875 0.046875,0.125 0.125,0.125 0.109375,0 0.109375,-0.0625 0.15625,-0.25 L 8.25,-7.8125 c 0.015625,-0.09375 0.015625,-0.125 0.015625,-0.15625 0,-0.140625 -0.0625,-0.140625 -0.3125,-0.140625 h -6.53125 c -0.28125,0 -0.28125,0.015625 -0.359375,0.234375 l -0.734375,2.15625 c 0,0.015625 -0.046875,0.15625 -0.046875,0.15625 0,0.0625 0.046875,0.125 0.125,0.125 0.09375,0 0.125,-0.046875 0.171875,-0.203125 0.5,-1.453125 0.75,-2.109375 2.34375,-2.109375 H 3.71875 c 0.28125,0 0.40625,0 0.40625,0.125 0,0.03125 0,0.0625 -0.0625,0.28125 L 2.46875,-0.9375 c -0.125,0.46875 -0.15625,0.59375 -1.421875,0.59375 -0.296875,0 -0.375,0 -0.375,0.21875 0,0.125 0.125,0.125 0.1875,0.125 0.296875,0 0.609375,-0.03125 0.90625,-0.03125 h 1.875 C 3.9375,-0.03125 4.25,0 4.546875,0 4.6875,0 4.8125,0 4.8125,-0.234375 c 0,-0.109375 -0.09375,-0.109375 -0.40625,-0.109375 -1.078125,0 -1.078125,-0.109375 -1.078125,-0.296875 0,0 0,-0.09375 0.046875,-0.28125 z m 0,0"
             id="path18" />
        </g>
      </g>
      <g
         fill="#000000"
         fill-opacity="1"
         id="g9"
         transform="matrix(0.352778,0,0,0.352778,-0.802305,-0.702116)">
        <g
           id="use8"
           transform="translate(8.8540001,12.752)">
          <path
             d="m 0.40625,1.125 c -0.0625,0.25 -0.078125,0.34375 -0.453125,0.34375 -0.109375,0 -0.21875,0 -0.21875,0.15625 0,0.03125 0.03125,0.109375 0.125,0.109375 l 0.375,-0.015625 c 0.0625,0 0.265625,0 0.390625,0 0.15625,0 0.3125,0 0.453125,0 0.15625,0 0.296875,0.015625 0.4375,0.015625 0.046875,0 0.171875,0 0.171875,-0.15625 0,-0.109375 -0.09375,-0.109375 -0.25,-0.109375 -0.421875,0 -0.421875,-0.0625 -0.421875,-0.15625 0,-0.046875 0.0625,-0.296875 0.109375,-0.4375 l 0.328125,-1.328125 c 0.09375,0.1875 0.34375,0.546875 0.859375,0.546875 1.046875,0 2.1875,-1.265625 2.1875,-2.609375 0,-0.90625 -0.5625,-1.453125 -1.234375,-1.453125 -0.1875,0 -0.640625,0.046875 -1.1875,0.65625 -0.125,-0.5 -0.546875,-0.65625 -0.84375,-0.65625 -0.375,0 -0.578125,0.28125 -0.703125,0.53125 -0.140625,0.3125 -0.265625,0.8125 -0.265625,0.859375 0,0.078125 0.0625,0.109375 0.125,0.109375 0.09375,0 0.109375,-0.046875 0.15625,-0.234375 0.171875,-0.703125 0.359375,-1.03125 0.65625,-1.03125 0.28125,0 0.28125,0.28125 0.28125,0.421875 0,0.0625 -0.015625,0.203125 -0.03125,0.265625 z m 1.625,-3.890625 C 2.078125,-2.9375 2.078125,-2.953125 2.203125,-3.09375 2.4375,-3.40625 2.84375,-3.734375 3.25,-3.734375 c 0.421875,0 0.59375,0.421875 0.59375,0.84375 C 3.84375,-2.5 3.59375,-1.375 3.3125,-0.90625 3,-0.390625 2.625,-0.125 2.296875,-0.125 1.71875,-0.125 1.5625,-0.828125 1.5625,-0.890625 1.5625,-0.953125 1.59375,-1 1.59375,-1.046875 Z m 0,0"
             id="path19" />
        </g>
      </g>
      <g
         fill="#000000"
         fill-opacity="1"
         id="g10"
         transform="matrix(0.352778,0,0,0.352778,-0.802305,-0.702116)">
        <g
           id="use9"
           transform="translate(13.978,10.959)">
          <path
             d="m 3.890625,2.90625 c 0,-0.03125 0,-0.0625 -0.203125,-0.265625 C 2.484375,1.4375 1.8125,-0.53125 1.8125,-2.96875 c 0,-2.328125 0.5625,-4.328125 1.953125,-5.734375 0.125,-0.109375 0.125,-0.125 0.125,-0.171875 0,-0.0625 -0.0625,-0.09375 -0.109375,-0.09375 -0.15625,0 -1.140625,0.859375 -1.71875,2.03125 -0.609375,1.21875 -0.890625,2.484375 -0.890625,3.96875 0,1.0625 0.171875,2.484375 0.78125,3.75 C 2.671875,2.21875 3.640625,3 3.78125,3 3.828125,3 3.890625,2.96875 3.890625,2.90625 Z m 0,0"
             id="path20" />
        </g>
      </g>
      <g
         fill="#000000"
         fill-opacity="1"
         id="g11"
         transform="matrix(0.352778,0,0,0.352778,-0.802305,-0.702116)">
        <g
           id="use10"
           transform="translate(18.530001,10.959)">
          <path
             d="m 3.546875,-3.890625 h 1.15625 c 0.90625,0 0.96875,0.203125 0.96875,0.546875 0,0.15625 -0.015625,0.3125 -0.078125,0.578125 C 5.5625,-2.71875 5.5625,-2.65625 5.5625,-2.625 c 0,0.078125 0.046875,0.125 0.125,0.125 0.09375,0 0.109375,-0.046875 0.15625,-0.234375 l 0.6875,-2.78125 c 0,-0.046875 -0.03125,-0.125 -0.109375,-0.125 -0.109375,0 -0.125,0.046875 -0.171875,0.25 C 6,-4.5 5.765625,-4.25 4.71875,-4.25 H 3.640625 L 4.40625,-7.34375 C 4.515625,-7.75 4.546875,-7.796875 5.03125,-7.796875 h 1.609375 c 1.484375,0 1.703125,0.453125 1.703125,1.296875 0,0.0625 0,0.328125 -0.03125,0.640625 -0.015625,0.046875 -0.046875,0.203125 -0.046875,0.25 0,0.09375 0.0625,0.140625 0.140625,0.140625 0.078125,0 0.125,-0.046875 0.15625,-0.265625 l 0.25,-2.09375 c 0,-0.03125 0.015625,-0.15625 0.015625,-0.1875 0,-0.125 -0.109375,-0.125 -0.3125,-0.125 H 2.84375 c -0.21875,0 -0.34375,0 -0.34375,0.21875 0,0.125 0.078125,0.125 0.28125,0.125 0.75,0 0.75,0.09375 0.75,0.21875 0,0.0625 -0.015625,0.109375 -0.046875,0.234375 l -1.625,6.453125 C 1.75,-0.46875 1.734375,-0.34375 0.890625,-0.34375 c -0.21875,0 -0.34375,0 -0.34375,0.21875 C 0.546875,0 0.65625,0 0.734375,0 0.953125,0 1.1875,-0.03125 1.421875,-0.03125 H 2.96875 C 3.234375,-0.03125 3.53125,0 3.796875,0 c 0.09375,0 0.25,0 0.25,-0.21875 0,-0.125 -0.078125,-0.125 -0.34375,-0.125 -0.9375,0 -0.96875,-0.09375 -0.96875,-0.265625 0,-0.0625 0.03125,-0.15625 0.046875,-0.234375 z m 0,0"
             id="path21" />
        </g>
      </g>
      <g
         fill="#000000"
         fill-opacity="1"
         id="g12"
         transform="matrix(0.352778,0,0,0.352778,-0.802305,-0.702116)">
        <g
           id="use11"
           transform="translate(27.733999,10.959)">
          <path
             d="M 3.375,-2.96875 C 3.375,-3.890625 3.25,-5.359375 2.578125,-6.75 1.875,-8.1875 0.890625,-8.96875 0.765625,-8.96875 c -0.046875,0 -0.109375,0.03125 -0.109375,0.09375 0,0.046875 0,0.0625 0.203125,0.265625 1.203125,1.203125 1.859375,3.1875 1.859375,5.625 0,2.3125 -0.5625,4.3125 -1.9375,5.71875 C 0.65625,2.84375 0.65625,2.875 0.65625,2.90625 0.65625,2.96875 0.71875,3 0.765625,3 0.921875,3 1.90625,2.140625 2.484375,0.96875 3.09375,-0.25 3.375,-1.546875 3.375,-2.96875 Z m 0,0"
             id="path22" />
        </g>
      </g>
      <g
         fill="#000000"
         fill-opacity="1"
         id="g13"
         transform="matrix(0.352778,0,0,0.352778,-0.802305,-0.702116)">
        <g
           id="use12"
           transform="translate(35.610085,10.959)">
          <path
             d="m 8.0625,-3.875 c 0.171875,0 0.390625,0 0.390625,-0.21875 C 8.453125,-4.3125 8.25,-4.3125 8.0625,-4.3125 H 1.03125 c -0.171875,0 -0.390625,0 -0.390625,0.21875 0,0.21875 0.203125,0.21875 0.390625,0.21875 z m 0,2.21875 c 0.171875,0 0.390625,0 0.390625,-0.203125 C 8.453125,-2.09375 8.25,-2.09375 8.0625,-2.09375 H 1.03125 c -0.171875,0 -0.390625,0 -0.390625,0.21875 0,0.21875 0.203125,0.21875 0.390625,0.21875 z m 0,0"
             id="path23" />
        </g>
      </g>
      <g
         fill="#000000"
         fill-opacity="1"
         id="g14"
         transform="matrix(0.352778,0,0,0.352778,-0.802305,-0.702116)">
        <g
           id="use13"
           transform="translate(48.032001,10.959)">
          <path
             d="M 4.984375,-7.296875 C 5.0625,-7.578125 5.078125,-7.6875 5.265625,-7.734375 5.359375,-7.75 5.75,-7.75 6,-7.75 c 1.203125,0 1.75,0.046875 1.75,0.96875 0,0.1875 -0.046875,0.640625 -0.109375,1.078125 L 7.625,-5.5625 c 0,0.046875 0.046875,0.125 0.125,0.125 0.109375,0 0.109375,-0.0625 0.15625,-0.25 L 8.25,-7.8125 c 0.015625,-0.09375 0.015625,-0.125 0.015625,-0.15625 0,-0.140625 -0.0625,-0.140625 -0.3125,-0.140625 h -6.53125 c -0.28125,0 -0.28125,0.015625 -0.359375,0.234375 l -0.734375,2.15625 c 0,0.015625 -0.046875,0.15625 -0.046875,0.15625 0,0.0625 0.046875,0.125 0.125,0.125 0.09375,0 0.125,-0.046875 0.171875,-0.203125 0.5,-1.453125 0.75,-2.109375 2.34375,-2.109375 H 3.71875 c 0.28125,0 0.40625,0 0.40625,0.125 0,0.03125 0,0.0625 -0.0625,0.28125 L 2.46875,-0.9375 c -0.125,0.46875 -0.15625,0.59375 -1.421875,0.59375 -0.296875,0 -0.375,0 -0.375,0.21875 0,0.125 0.125,0.125 0.1875,0.125 0.296875,0 0.609375,-0.03125 0.90625,-0.03125 h 1.875 C 3.9375,-0.03125 4.25,0 4.546875,0 4.6875,0 4.8125,0 4.8125,-0.234375 c 0,-0.109375 -0.09375,-0.109375 -0.40625,-0.109375 -1.078125,0 -1.078125,-0.109375 -1.078125,-0.296875 0,0 0,-0.09375 0.046875,-0.28125 z m 0,0"
             id="path24" />
        </g>
      </g>
      <g
         fill="#000000"
         fill-opacity="1"
         id="g15"
         transform="matrix(0.352778,0,0,0.352778,-0.802305,-0.702116)">
        <g
           id="use14"
           transform="translate(54.893002,12.752)">
          <path
             d="m 4.140625,-3.65625 c 0.03125,-0.125 0.03125,-0.140625 0.03125,-0.1875 0,-0.109375 -0.09375,-0.125 -0.109375,-0.125 -0.09375,0 -0.4375,0.3125 -0.609375,0.625 -0.140625,-0.328125 -0.421875,-0.625 -0.875,-0.625 -1.046875,0 -2.203125,1.25 -2.203125,2.609375 0,0.984375 0.625,1.453125 1.234375,1.453125 0.375,0 0.734375,-0.1875 1.0625,-0.5 l -0.34375,1.375 c -0.109375,0.453125 -0.125,0.484375 -0.6875,0.5 -0.109375,0 -0.21875,0 -0.21875,0.15625 0,0.015625 0,0.109375 0.125,0.109375 0.203125,0 0.71875,-0.015625 0.90625,-0.015625 0.296875,0 0.3125,0 0.46875,0 0.109375,0.015625 0.359375,0.015625 0.46875,0.015625 0.046875,0 0.171875,0 0.171875,-0.15625 0,-0.109375 -0.09375,-0.109375 -0.25,-0.109375 -0.421875,0 -0.421875,-0.0625 -0.421875,-0.15625 0,0 0,-0.0625 0.046875,-0.1875 z M 2.84375,-1.09375 C 2.796875,-0.921875 2.796875,-0.921875 2.65625,-0.75 2.328125,-0.359375 1.96875,-0.125 1.625,-0.125 c -0.4375,0 -0.578125,-0.453125 -0.578125,-0.84375 0,-0.4375 0.25,-1.46875 0.46875,-1.90625 0.28125,-0.53125 0.703125,-0.859375 1.0625,-0.859375 0.59375,0 0.734375,0.71875 0.734375,0.78125 0,0.03125 -0.015625,0.09375 -0.03125,0.125 z m 0,0"
             id="path25" />
        </g>
      </g>
      <g
         fill="#000000"
         fill-opacity="1"
         id="g16"
         transform="matrix(0.352778,0,0,0.352778,-0.802305,-0.702116)">
        <g
           id="use15"
           transform="translate(59.831001,10.959)">
          <path
             d="m 3.890625,2.90625 c 0,-0.03125 0,-0.0625 -0.203125,-0.265625 C 2.484375,1.4375 1.8125,-0.53125 1.8125,-2.96875 c 0,-2.328125 0.5625,-4.328125 1.953125,-5.734375 0.125,-0.109375 0.125,-0.125 0.125,-0.171875 0,-0.0625 -0.0625,-0.09375 -0.109375,-0.09375 -0.15625,0 -1.140625,0.859375 -1.71875,2.03125 -0.609375,1.21875 -0.890625,2.484375 -0.890625,3.96875 0,1.0625 0.171875,2.484375 0.78125,3.75 C 2.671875,2.21875 3.640625,3 3.78125,3 3.828125,3 3.890625,2.96875 3.890625,2.90625 Z m 0,0"
             id="path26" />
        </g>
      </g>
      <g
         fill="#000000"
         fill-opacity="1"
         id="g17"
         transform="matrix(0.352778,0,0,0.352778,-0.802305,-0.702116)">
        <g
           id="use16"
           transform="translate(64.383003,10.959)">
          <path
             d="m 3.546875,-3.890625 h 1.15625 c 0.90625,0 0.96875,0.203125 0.96875,0.546875 0,0.15625 -0.015625,0.3125 -0.078125,0.578125 C 5.5625,-2.71875 5.5625,-2.65625 5.5625,-2.625 c 0,0.078125 0.046875,0.125 0.125,0.125 0.09375,0 0.109375,-0.046875 0.15625,-0.234375 l 0.6875,-2.78125 c 0,-0.046875 -0.03125,-0.125 -0.109375,-0.125 -0.109375,0 -0.125,0.046875 -0.171875,0.25 C 6,-4.5 5.765625,-4.25 4.71875,-4.25 H 3.640625 L 4.40625,-7.34375 C 4.515625,-7.75 4.546875,-7.796875 5.03125,-7.796875 h 1.609375 c 1.484375,0 1.703125,0.453125 1.703125,1.296875 0,0.0625 0,0.328125 -0.03125,0.640625 -0.015625,0.046875 -0.046875,0.203125 -0.046875,0.25 0,0.09375 0.0625,0.140625 0.140625,0.140625 0.078125,0 0.125,-0.046875 0.15625,-0.265625 l 0.25,-2.09375 c 0,-0.03125 0.015625,-0.15625 0.015625,-0.1875 0,-0.125 -0.109375,-0.125 -0.3125,-0.125 H 2.84375 c -0.21875,0 -0.34375,0 -0.34375,0.21875 0,0.125 0.078125,0.125 0.28125,0.125 0.75,0 0.75,0.09375 0.75,0.21875 0,0.0625 -0.015625,0.109375 -0.046875,0.234375 l -1.625,6.453125 C 1.75,-0.46875 1.734375,-0.34375 0.890625,-0.34375 c -0.21875,0 -0.34375,0 -0.34375,0.21875 C 0.546875,0 0.65625,0 0.734375,0 0.953125,0 1.1875,-0.03125 1.421875,-0.03125 H 2.96875 C 3.234375,-0.03125 3.53125,0 3.796875,0 c 0.09375,0 0.25,0 0.25,-0.21875 0,-0.125 -0.078125,-0.125 -0.34375,-0.125 -0.9375,0 -0.96875,-0.09375 -0.96875,-0.265625 0,-0.0625 0.03125,-0.15625 0.046875,-0.234375 z m 0,0"
             id="path27" />
        </g>
      </g>
      <g
         fill="#000000"
         fill-opacity="1"
         id="g18"
         transform="matrix(0.352778,0,0,0.352778,-0.802305,-0.702116)">
        <g
           id="use17"
           transform="translate(73.586998,10.959)">
          <path
             d="M 3.375,-2.96875 C 3.375,-3.890625 3.25,-5.359375 2.578125,-6.75 1.875,-8.1875 0.890625,-8.96875 0.765625,-8.96875 c -0.046875,0 -0.109375,0.03125 -0.109375,0.09375 0,0.046875 0,0.0625 0.203125,0.265625 1.203125,1.203125 1.859375,3.1875 1.859375,5.625 0,2.3125 -0.5625,4.3125 -1.9375,5.71875 C 0.65625,2.84375 0.65625,2.875 0.65625,2.90625 0.65625,2.96875 0.71875,3 0.765625,3 0.921875,3 1.90625,2.140625 2.484375,0.96875 3.09375,-0.25 3.375,-1.546875 3.375,-2.96875 Z m 0,0"
             id="path28" />
        </g>
      </g>
    </g>
    <g
       inkscape:label=""
       transform="matrix(0.456441,0,0,0.456441,66.988345,105.18203)"
       id="g6">
      <g
         inkscape:label=""
         transform="matrix(2.19086,0,0,2.19086,25.024,33.8894)"
         id="g5">
        <g
           fill="#000000"
           fill-opacity="1"
           id="g2"
           transform="matrix(0.352778,0,0,0.352778,-0.868451,-0.661238)">
          <g
             id="use1"
             transform="translate(1.993,7.1399999)">
            <path
               d="m 5.265625,-5.15625 c 0,-0.0625 -0.046875,-0.109375 -0.109375,-0.109375 -0.09375,0 -0.546875,0.4375 -0.78125,0.859375 -0.21875,-0.546875 -0.578125,-0.859375 -1.09375,-0.859375 -1.359375,0 -2.8125,1.734375 -2.8125,3.515625 0,1.171875 0.6875,1.875 1.5,1.875 0.640625,0 1.15625,-0.484375 1.40625,-0.765625 L 3.390625,-0.625 2.9375,1.171875 2.828125,1.609375 c -0.109375,0.34375 -0.28125,0.34375 -0.84375,0.359375 -0.125,0 -0.25,0 -0.25,0.234375 0,0.078125 0.078125,0.109375 0.15625,0.109375 0.171875,0 0.375,-0.015625 0.546875,-0.015625 h 1.21875 c 0.1875,0 0.390625,0.015625 0.5625,0.015625 0.078125,0 0.21875,0 0.21875,-0.21875 0,-0.125 -0.09375,-0.125 -0.28125,-0.125 -0.5625,0 -0.59375,-0.078125 -0.59375,-0.171875 0,-0.0625 0.015625,-0.078125 0.046875,-0.234375 z m -1.6875,3.734375 C 3.53125,-1.21875 3.53125,-1.1875 3.359375,-0.96875 3.09375,-0.640625 2.5625,-0.125 2.015625,-0.125 1.515625,-0.125 1.25,-0.5625 1.25,-1.265625 c 0,-0.65625 0.359375,-2 0.59375,-2.5 0.40625,-0.84375 0.96875,-1.265625 1.4375,-1.265625 0.78125,0 0.9375,0.984375 0.9375,1.078125 0,0.015625 -0.03125,0.15625 -0.046875,0.1875 z m 0,0"
               id="path5" />
          </g>
        </g>
      </g>
    </g>
  </g>
  <g
     inkscape:label=""
     transform="translate(55.12461,117.08721)"
     id="g20">
    <g
       fill="#000000"
       fill-opacity="1"
       id="g19"
       transform="matrix(0.352778,0,0,0.352778,-0.570794,-0.661238)">
      <g
         id="g7"
         transform="translate(1.993,7.1399999)">
        <path
           d="M 0.515625,1.515625 C 0.4375,1.875 0.375,1.96875 -0.109375,1.96875 c -0.140625,0 -0.265625,0 -0.265625,0.234375 0,0.015625 0.015625,0.109375 0.140625,0.109375 0.15625,0 0.328125,-0.015625 0.484375,-0.015625 h 0.515625 c 0.25,0 0.859375,0.015625 1.109375,0.015625 0.078125,0 0.21875,0 0.21875,-0.203125 C 2.09375,1.96875 2.015625,1.96875 1.8125,1.96875 1.25,1.96875 1.21875,1.890625 1.21875,1.796875 1.21875,1.65625 1.75,-0.40625 1.828125,-0.6875 c 0.125,0.34375 0.453125,0.8125 1.078125,0.8125 1.34375,0 2.8125,-1.765625 2.8125,-3.515625 0,-1.109375 -0.625,-1.875 -1.515625,-1.875 -0.765625,0 -1.421875,0.734375 -1.546875,0.90625 -0.09375,-0.59375 -0.5625,-0.90625 -1.046875,-0.90625 -0.34375,0 -0.625,0.15625 -0.84375,0.609375 C 0.546875,-4.21875 0.375,-3.484375 0.375,-3.4375 c 0,0.046875 0.0625,0.109375 0.140625,0.109375 0.09375,0 0.109375,-0.015625 0.171875,-0.296875 0.1875,-0.703125 0.40625,-1.40625 0.890625,-1.40625 0.28125,0 0.375,0.1875 0.375,0.546875 0,0.28125 -0.046875,0.40625 -0.09375,0.625 z m 2.0625,-5.25 C 2.671875,-4.0625 3,-4.40625 3.1875,-4.578125 c 0.140625,-0.125 0.53125,-0.453125 0.984375,-0.453125 0.53125,0 0.765625,0.53125 0.765625,1.140625 0,0.578125 -0.328125,1.9375 -0.640625,2.546875 C 4,-0.6875 3.453125,-0.125 2.90625,-0.125 c -0.8125,0 -0.953125,-1.015625 -0.953125,-1.0625 0,-0.046875 0.03125,-0.140625 0.046875,-0.203125 z m 0,0"
           id="path6" />
      </g>
    </g>
  </g>
  <g
     inkscape:label=""
     transform="translate(133.24605,119.08125)"
     id="g30">
    <g
       fill="#000000"
       fill-opacity="1"
       id="g3"
       transform="matrix(0.352778,0,0,0.352778,-0.868451,-0.563739)">
      <g
         id="use2"
         transform="translate(1.993,11.312)">
        <path
           d="m 5.265625,-5.15625 c 0,-0.0625 -0.046875,-0.109375 -0.109375,-0.109375 -0.09375,0 -0.546875,0.4375 -0.78125,0.859375 -0.21875,-0.546875 -0.578125,-0.859375 -1.09375,-0.859375 -1.359375,0 -2.8125,1.734375 -2.8125,3.515625 0,1.171875 0.6875,1.875 1.5,1.875 0.640625,0 1.15625,-0.484375 1.40625,-0.765625 L 3.390625,-0.625 2.9375,1.171875 2.828125,1.609375 c -0.109375,0.34375 -0.28125,0.34375 -0.84375,0.359375 -0.125,0 -0.25,0 -0.25,0.234375 0,0.078125 0.078125,0.109375 0.15625,0.109375 0.171875,0 0.375,-0.015625 0.546875,-0.015625 h 1.21875 c 0.1875,0 0.390625,0.015625 0.5625,0.015625 0.078125,0 0.21875,0 0.21875,-0.21875 0,-0.125 -0.09375,-0.125 -0.28125,-0.125 -0.5625,0 -0.59375,-0.078125 -0.59375,-0.171875 0,-0.0625 0.015625,-0.078125 0.046875,-0.234375 z m -1.6875,3.734375 C 3.53125,-1.21875 3.53125,-1.1875 3.359375,-0.96875 3.09375,-0.640625 2.5625,-0.125 2.015625,-0.125 1.515625,-0.125 1.25,-0.5625 1.25,-1.265625 c 0,-0.65625 0.359375,-2 0.59375,-2.5 0.40625,-0.84375 0.96875,-1.265625 1.4375,-1.265625 0.78125,0 0.9375,0.984375 0.9375,1.078125 0,0.015625 -0.03125,0.15625 -0.046875,0.1875 z m 0,0"
           id="path29" />
      </g>
    </g>
    <g
       fill="#000000"
       fill-opacity="1"
       id="g4"
       transform="matrix(0.352778,0,0,0.352778,-0.868451,-0.563739)">
      <g
         id="use3"
         transform="translate(7.612,6.973)">
        <path
           d="M 5.5625,-5 C 5.625,-5.140625 5.625,-5.171875 5.625,-5.1875 c 0,-0.109375 -0.09375,-0.1875 -0.1875,-0.1875 -0.0625,0 -0.140625,0 -0.234375,0.1875 L 3.0625,-0.453125 0.921875,-5.1875 C 0.84375,-5.359375 0.765625,-5.375 0.703125,-5.375 c -0.109375,0 -0.1875,0.078125 -0.1875,0.1875 0,0.015625 0,0.046875 0.046875,0.171875 l 2.296875,5.03125 c 0.078125,0.171875 0.15625,0.1875 0.203125,0.1875 0.046875,0 0.140625,-0.015625 0.21875,-0.1875 z m 0,0"
           id="path30" />
      </g>
    </g>
  </g>
  <g
     inkscape:label=""
     transform="translate(123.71455,109.55794)"
     id="g35">
    <g
       fill="#000000"
       fill-opacity="1"
       id="g32"
       transform="matrix(0.352778,0,0,0.352778,-0.570794,-0.563739)">
      <g
         id="g31"
         transform="translate(1.993,11.312)">
        <path
           d="M 0.515625,1.515625 C 0.4375,1.875 0.375,1.96875 -0.109375,1.96875 c -0.140625,0 -0.265625,0 -0.265625,0.234375 0,0.015625 0.015625,0.109375 0.140625,0.109375 0.15625,0 0.328125,-0.015625 0.484375,-0.015625 h 0.515625 c 0.25,0 0.859375,0.015625 1.109375,0.015625 0.078125,0 0.21875,0 0.21875,-0.203125 C 2.09375,1.96875 2.015625,1.96875 1.8125,1.96875 1.25,1.96875 1.21875,1.890625 1.21875,1.796875 1.21875,1.65625 1.75,-0.40625 1.828125,-0.6875 c 0.125,0.34375 0.453125,0.8125 1.078125,0.8125 1.34375,0 2.8125,-1.765625 2.8125,-3.515625 0,-1.109375 -0.625,-1.875 -1.515625,-1.875 -0.765625,0 -1.421875,0.734375 -1.546875,0.90625 -0.09375,-0.59375 -0.5625,-0.90625 -1.046875,-0.90625 -0.34375,0 -0.625,0.15625 -0.84375,0.609375 C 0.546875,-4.21875 0.375,-3.484375 0.375,-3.4375 c 0,0.046875 0.0625,0.109375 0.140625,0.109375 0.09375,0 0.109375,-0.015625 0.171875,-0.296875 0.1875,-0.703125 0.40625,-1.40625 0.890625,-1.40625 0.28125,0 0.375,0.1875 0.375,0.546875 0,0.28125 -0.046875,0.40625 -0.09375,0.625 z m 2.0625,-5.25 C 2.671875,-4.0625 3,-4.40625 3.1875,-4.578125 c 0.140625,-0.125 0.53125,-0.453125 0.984375,-0.453125 0.53125,0 0.765625,0.53125 0.765625,1.140625 0,0.578125 -0.328125,1.9375 -0.640625,2.546875 C 4,-0.6875 3.453125,-0.125 2.90625,-0.125 c -0.8125,0 -0.953125,-1.015625 -0.953125,-1.0625 0,-0.046875 0.03125,-0.140625 0.046875,-0.203125 z m 0,0"
           id="path31" />
      </g>
    </g>
    <g
       fill="#000000"
       fill-opacity="1"
       id="g34"
       transform="matrix(0.352778,0,0,0.352778,-0.570794,-0.563739)">
      <g
         id="g33"
         transform="translate(7.868,6.973)">
        <path
           d="M 5.5625,-5 C 5.625,-5.140625 5.625,-5.171875 5.625,-5.1875 c 0,-0.109375 -0.09375,-0.1875 -0.1875,-0.1875 -0.0625,0 -0.140625,0 -0.234375,0.1875 L 3.0625,-0.453125 0.921875,-5.1875 C 0.84375,-5.359375 0.765625,-5.375 0.703125,-5.375 c -0.109375,0 -0.1875,0.078125 -0.1875,0.1875 0,0.015625 0,0.046875 0.046875,0.171875 l 2.296875,5.03125 c 0.078125,0.171875 0.15625,0.1875 0.203125,0.1875 0.046875,0 0.140625,-0.015625 0.21875,-0.1875 z m 0,0"
           id="path32" />
      </g>
    </g>
  </g>
</svg>
